<svg width="32" height="32" viewBox="0 0 32 32" fill="none" xmlns="http://www.w3.org/2000/svg">
<path d="M30.1669 29.1499L18.9712 2.08213C18.3397 0.682666 17.4011 0 16.1637 0H15.1739C13.9365 0 12.9979 0.682666 12.3664 2.08213L7.49386 13.8752H3.80746C2.70666 13.8837 1.81067 14.7712 1.80213 15.8805V15.9061C1.81067 17.0069 2.70666 17.9029 3.80746 17.9115H5.7872L1.13653 29.1499C1.0512 29.3973 1 29.6533 1 29.9179C1 30.5493 1.19627 31.0443 1.54613 31.4283C1.896 31.8123 2.39947 32 3.03093 32C3.44906 31.9915 3.85013 31.8635 4.18293 31.616C4.54133 31.3685 4.7888 31.0101 4.98506 30.6005L10.1051 17.9029H13.6549C14.7557 17.8944 15.6517 17.0069 15.6602 15.8976V15.8464C15.6517 14.7456 14.7557 13.8496 13.6549 13.8411H11.7605L15.6688 4.10453L26.3184 30.592C26.5146 31.0016 26.7621 31.36 27.1205 31.6075C27.4533 31.8549 27.8629 31.9829 28.2725 31.9915C28.904 31.9915 29.3989 31.8037 29.7573 31.4197C30.1157 31.0357 30.3034 30.5408 30.3034 29.9093C30.312 29.6533 30.2693 29.3888 30.1669 29.1499Z" fill="white"/>
</svg>
