<svg width="32" height="32" viewBox="0 0 32 32" fill="none" xmlns="http://www.w3.org/2000/svg">
<path d="M23.9664 19.2367C24.7488 17.8852 26.0113 17.8852 26.7938 19.2367L31.6661 27.7899C32.4485 29.1413 31.8083 30.2438 30.2435 30.2438H20.4278C18.8807 30.2438 18.2405 29.1413 19.0052 27.7899L23.9664 19.2367V19.2367ZM14.5419 2.77042C15.3243 1.41898 16.569 1.41898 17.3514 2.77042L18.4362 4.72645L20.9968 9.22534C21.6192 10.5057 21.6192 12.0171 20.9968 13.2974L12.408 28.1811C11.6256 29.3903 10.3275 30.1549 8.88714 30.2438H1.7565C0.191672 30.2438 -0.448485 29.1591 0.333929 27.7899L14.5419 2.77042Z" fill="white"/>
</svg>
