<svg width="32" height="32" viewBox="0 0 32 32" fill="none" xmlns="http://www.w3.org/2000/svg">
<path d="M9.7856 13.4464L16 7.232L22.2176 13.4496L25.8336 9.8336L16 0L6.1696 9.8304L9.7856 13.4464ZM0 16L3.616 12.384L7.232 16L3.616 19.616L0 16ZM9.7856 18.5536L16 24.768L22.2176 18.5504L25.8336 22.1648L16 32L6.1696 22.1696L6.1648 22.1648L9.7856 18.5536ZM24.768 16L28.384 12.384L32 16L28.384 19.616L24.768 16ZM19.6672 15.9968H19.6704V16L16 19.6704L12.3344 16.0064L12.328 16L12.3344 15.9952L12.976 15.352L13.288 15.04L16 12.3296L19.6688 15.9984L19.6672 15.9968Z" fill="white"/>
</svg>
