<svg width="32" height="32" viewBox="0 0 32 32" fill="none" xmlns="http://www.w3.org/2000/svg">
<path fill-rule="evenodd" clip-rule="evenodd" d="M19.1393 8C19.1393 8 22.6931 8.68778 24.1307 12.4002C24.1307 12.4002 26.1892 17.2835 23.1392 21.6123C23.1392 21.6123 21.2346 24 18.8586 24H9V20.2254H11.0585V11.7814H9.03927L9.00015 8H19.1393ZM17.2969 20.184C18.1383 20.184 18.9116 19.0683 18.9116 19.0683C20.3607 16.8158 19.4338 13.9803 19.4338 13.9803C18.7346 11.9999 17.7339 11.7907 17.7339 11.7907H15.5739L15.6138 20.184H17.2969Z" fill="white"/>
<path fill-rule="evenodd" clip-rule="evenodd" d="M32 16C32 24.8366 24.8366 32 16 32C7.16344 32 0 24.8366 0 16C0 7.16344 7.16344 0 16 0C24.8366 0 32 7.16344 32 16ZM30 16C30 23.732 23.732 30 16 30C8.26801 30 2 23.732 2 16C2 8.26801 8.26801 2 16 2C23.732 2 30 8.26801 30 16Z" fill="white"/>
</svg>
