<svg fill="none" xmlns="http://www.w3.org/2000/svg" viewBox="0 0 32 32"><g clip-path="url(#a)" fill="#fff"><path d="M16 0C9.309 0 3.84 5.433 3.84 12.152c0 1.35.225 2.669.643 3.955.29.868 1.255 1.35 2.156 1.06.868-.289 1.35-1.253 1.061-2.153a8.555 8.555 0 0 1-.482-3.119c.128-4.533 3.796-8.262 8.331-8.487 5.051-.257 9.233 3.761 9.233 8.745 0 4.661-3.667 8.487-8.267 8.744 0 0-1.705.097-2.542.225-.418.065-.74.129-.965.161-.096.032-.193-.064-.16-.16l.289-1.415 1.576-7.266c.193-.9-.386-1.8-1.287-1.993a1.686 1.686 0 0 0-1.994 1.286S7.636 29.417 7.604 29.61c-.193.9.386 1.8 1.286 1.993.901.193 1.802-.386 1.995-1.286.032-.193.547-2.54.547-2.54a4.272 4.272 0 0 1 3.603-3.343c.386-.065 1.898-.161 1.898-.161 6.273-.482 11.227-5.723 11.227-12.12C28.16 5.433 22.69 0 16 0Z"/><path d="M16.871 27.97c-1.093-.225-2.187.45-2.412 1.576-.226 1.093.45 2.186 1.576 2.41 1.094.226 2.188-.45 2.413-1.574.225-1.126-.45-2.187-1.577-2.412Z"/></g><defs><clipPath id="a"><path fill="#fff" d="M0 0h32v32H0z"/></clipPath></defs></svg>
