<svg width="32" height="32" viewBox="0 0 32 32" fill="none" xmlns="http://www.w3.org/2000/svg">
<g clip-path="url(#clip0)">
<path d="M16.896 0.0475557L9.53378 7.40889L0 16.9418L0.0222223 31.9787L15.0591 32.0009L22.4231 24.6364L31.9551 15.1049L32 0L16.896 0.0475557ZM17.428 1.32578L29.808 1.28889L22.7982 8.29867H10.456L17.428 1.32578ZM8.252 10.5018V22.844L1.3 29.7956L1.28089 17.4729L8.252 10.5018ZM14.5289 30.7195L2.20578 30.7027L9.15822 23.7511H21.5L14.5298 30.7209L14.5289 30.72V30.7195ZM9.53333 22.4698V9.57867H22.4231V22.4676H9.53289V22.4698H9.53333ZM23.7031 21.5467V9.20355L30.7129 2.19378L30.6751 14.5738L23.7031 21.5471V21.5467Z" fill="white"/>
</g>
<defs>
<clipPath id="clip0">
<rect width="32" height="32" fill="white"/>
</clipPath>
</defs>
</svg>
