<svg width="32" height="32" viewBox="0 0 32 32" fill="none" xmlns="http://www.w3.org/2000/svg">
<path d="M9.04627 2.00176C16.6964 1.99941 24.347 1.99941 31.9981 2.00176C32.0004 4.47459 32.0004 6.94699 31.9981 9.41896C24.3478 9.42131 16.6971 9.42131 9.04627 9.41896C9.04382 6.94613 9.04382 4.47373 9.04627 2.00176Z" fill="white"/>
<path opacity="0.8" d="M0.00959986 12.2093C2.47772 12.1965 4.94627 12.1965 7.41525 12.2093C7.42805 14.6774 7.42805 17.146 7.41525 19.615C4.94638 19.6276 2.47783 19.6279 0.00959986 19.6156C-0.00319995 17.147 -0.00319995 14.6783 0.00959986 12.2093ZM9.05219 12.2093C14.5739 12.1976 20.0953 12.1976 25.6163 12.2093C25.628 14.6774 25.628 17.146 25.6163 19.615C20.0946 19.6265 14.5733 19.6265 9.05219 19.615C9.04066 17.1467 9.04066 14.6782 9.05219 12.2093Z" fill="white"/>
<path opacity="0.6" d="M9.05926 22.4195C11.5232 22.3927 13.9867 22.3927 16.4498 22.4195C16.4754 24.8819 16.4758 27.3454 16.451 29.8102C13.987 29.8345 11.5235 29.8341 9.06054 29.8089C9.03494 27.3467 9.03451 24.8836 9.05926 22.4195Z" fill="white"/>
</svg>
