<svg width="32" height="32" viewBox="0 0 32 32" fill="none" xmlns="http://www.w3.org/2000/svg">
<path fill-rule="evenodd" clip-rule="evenodd" d="M16 3.75C9.23451 3.75 3.75 9.23451 3.75 16C3.75 22.7655 9.23451 28.25 16 28.25C22.7655 28.25 28.25 22.7655 28.25 16C28.25 9.23451 22.7655 3.75 16 3.75ZM14 6.59375C14.4142 6.59375 14.75 6.92954 14.75 7.34375V10.5625L17.25 10.5625V7.34375C17.25 6.92954 17.5858 6.59375 18 6.59375C18.4142 6.59375 18.75 6.92954 18.75 7.34375V10.5625H22.4688C22.883 10.5625 23.2188 10.8983 23.2188 11.3125C23.2188 11.7267 22.883 12.0625 22.4688 12.0625L10.25 12.0625V19.9688H21.75V16.6562H14.0312C13.617 16.6562 13.2812 16.3205 13.2812 15.9062C13.2812 15.492 13.617 15.1562 14.0312 15.1562H22.4219C22.435 15.1562 22.448 15.1566 22.4609 15.1572C22.4739 15.1566 22.4869 15.1562 22.5 15.1562C22.9142 15.1562 23.25 15.492 23.25 15.9062V20.6719C23.25 20.8357 23.1975 20.9872 23.1084 21.1105C22.9765 21.3254 22.7394 21.4688 22.4688 21.4688H18.75V24.6875C18.75 25.1017 18.4142 25.4375 18 25.4375C17.5858 25.4375 17.25 25.1017 17.25 24.6875V21.4688H14.75V24.6875C14.75 25.1017 14.4142 25.4375 14 25.4375C13.5858 25.4375 13.25 25.1017 13.25 24.6875V21.4688H9.5625C9.33949 21.4688 9.13921 21.3714 9.00183 21.2169C8.84733 21.0795 8.75 20.8793 8.75 20.6562V11.3438C8.75 11.0731 8.89334 10.836 9.10824 10.7041C9.23159 10.615 9.3831 10.5625 9.54688 10.5625H13.25V7.34375C13.25 6.92954 13.5858 6.59375 14 6.59375Z" fill="white"/>
<path fill-rule="evenodd" clip-rule="evenodd" d="M16 32C24.8366 32 32 24.8366 32 16C32 7.16344 24.8366 0 16 0C7.16344 0 0 7.16344 0 16C0 24.8366 7.16344 32 16 32ZM2.25 16C2.25 8.40608 8.40608 2.25 16 2.25C23.5939 2.25 29.75 8.40608 29.75 16C29.75 23.5939 23.5939 29.75 16 29.75C8.40608 29.75 2.25 23.5939 2.25 16Z" fill="white"/>
</svg>
