<svg width="32" height="32" viewBox="0 0 32 32" fill="none" xmlns="http://www.w3.org/2000/svg">
<path d="M10.723 1.10707C13.9499 -0.079287 17.582 -0.0819955 20.8695 0.893094C25.1491 2.19863 28.7619 5.37309 30.6495 9.35741C31.1704 10.4923 31.6691 11.676 31.7188 12.9382C29.313 11.5676 26.6758 10.6792 24.0331 9.86934C19.8058 8.37149 15.3801 7.33139 11.3789 5.27287C10.4474 4.72574 9.25971 4.16506 9.00619 3.02475C8.90423 2.03882 9.96518 1.48898 10.723 1.10707V1.10707ZM0.981561 10.6955C1.91575 8.20356 3.44792 5.89043 5.52848 4.1759C6.05758 8.45275 7.90942 12.586 10.9683 15.6955C14.6361 19.4415 19.8609 21.7411 25.1767 21.6544C27.2876 21.7194 29.3516 21.24 31.4101 20.8526C29.3847 28.0466 21.3628 32.8219 13.9306 31.6734C9.44435 31.11 5.30251 28.499 2.80308 24.8126C-0.0160072 20.7389 -0.72698 15.3298 0.981561 10.6955Z" fill="white"/>
<path opacity="0.6" d="M23.7886 9.77734C26.4721 10.595 29.096 11.4462 31.5389 12.83L31.704 12.9147C31.9306 14.5802 32.0957 16.2785 31.7935 17.9467C30.5651 17.438 29.5689 16.5438 28.5279 15.7534C26.5244 14.1235 24.5329 12.3043 23.7886 9.77734Z" fill="white"/>
</svg>
