<svg width="32" height="32" viewBox="0 0 32 32" fill="none" xmlns="http://www.w3.org/2000/svg">
<g clip-path="url(#clip0)">
<path d="M31.9775 10.2549H31.975L26.8525 5.12745L31.975 0H31.9775V10.2549Z" fill="white"/>
<path d="M32.0029 20.9302L32.0003 20.9327L26.8779 15.8027L32.0003 10.6753L32.0029 10.6778V20.9302Z" fill="white"/>
<path d="M32.0029 31.6075H32.0003L26.8779 26.48L32.0003 21.3525H32.0029V31.6075Z" fill="white"/>
<path opacity="0.8" d="M26.6915 26.2685H26.689V16.0162L26.6915 16.0137L31.8164 21.1411L26.6915 26.2685Z" fill="white"/>
<path opacity="0.8" d="M26.6915 15.5933L26.689 15.5908V5.33838H26.6915L31.8164 10.4658L26.6915 15.5933Z" fill="white"/>
<path d="M26.6888 26.2685L21.5664 21.141L26.6888 16.0161V26.2685Z" fill="white"/>
<path d="M26.6888 15.5908L21.5664 10.4658L26.6888 5.33838V15.5908Z" fill="white"/>
<path d="M26.4928 15.79L26.4978 15.7951L21.3729 20.9225L16.248 15.7951L16.2506 15.79H26.4928Z" fill="white"/>
<path opacity="0.8" d="M16.2506 15.7974L16.248 15.7949L21.3729 10.6675L26.4978 15.7949L26.4928 15.7974H16.2506Z" fill="white"/>
<path d="M16.0469 26.2685V16.0137L21.1718 21.1411L16.0469 26.2685Z" fill="white"/>
<path opacity="0.8" d="M16.0462 26.2685L10.9238 21.1411L16.0462 16.0137V26.2685Z" fill="white"/>
<path d="M15.8254 15.79L15.8279 15.7951L10.703 20.9225L5.58057 15.7951L5.58308 15.79H15.8254Z" fill="white"/>
<path opacity="0.8" d="M5.58308 15.7974L5.58057 15.7949L10.703 10.6675L15.8279 15.7949L15.8254 15.7974H5.58308Z" fill="white"/>
<path d="M5.33594 26.2685V16.0161L10.4584 21.141L5.33594 26.2685Z" fill="white"/>
<path d="M5.33594 15.5908V5.33838L10.4584 10.4658L5.33594 15.5908Z" fill="white"/>
<path opacity="0.8" d="M5.33634 26.2685H5.33383L0.211426 21.1411L5.33383 16.0137L5.33634 16.0162V26.2685Z" fill="white"/>
<path opacity="0.8" d="M5.33634 15.5908L5.33383 15.5933L0.211426 10.4658L5.33383 5.33838H5.33634V15.5908Z" fill="white"/>
<path d="M0 31.6075V21.3525L5.12493 26.48L0 31.6075Z" fill="white"/>
<path d="M0 20.9327V10.6753L5.12493 15.8027L0 20.9327Z" fill="white"/>
<path d="M0 10.2549V0L5.12493 5.12745L0 10.2549Z" fill="white"/>
</g>
<defs>
<clipPath id="clip0">
<rect width="32" height="32" fill="white"/>
</clipPath>
</defs>
</svg>
