<svg width="32" height="32" viewBox="0 0 32 32" fill="none" xmlns="http://www.w3.org/2000/svg">
<path d="M14.5678 15.1015L2.45423 7.84666C1.88467 7.50536 1.37954 7.01974 0.971605 6.4211C0.563671 5.82245 0.262138 5.12403 0.0865205 4.37185L0 4L0.00846786 4.00626L12.083 11.1326C12.7192 11.5081 13.2752 12.0626 13.7067 12.7518C14.1382 13.441 14.4331 14.2458 14.5678 15.1015ZM12.5072 27.2736L6.03212 23.4947C5.50306 23.1861 5.03291 22.7421 4.65295 22.1925C4.27263 21.6424 3.99098 20.9996 3.82641 20.3048L3.69828 19.7655L3.74357 19.7912V19.7931L12.8617 25.1132C13.0174 25.2041 13.1905 25.2398 13.3617 25.2162C13.5393 25.1894 13.7038 25.1066 13.8311 24.9799C13.9666 24.8488 14.0704 24.6739 14.1304 24.4744C14.1909 24.2717 14.205 24.0581 14.1717 23.8492C14.0483 23.0742 13.7799 22.3456 13.3882 21.7212C12.9968 21.0971 12.4924 20.595 11.9162 20.2548L4.18353 15.6905C3.66331 15.3831 3.20052 14.9446 2.82498 14.4031C2.44945 13.8618 2.16927 13.2293 2.00249 12.5464C1.94836 12.3251 1.89829 12.1185 1.85779 11.947L1.8924 11.9661L12.2789 18.0977C13.2174 18.6518 14.038 19.4695 14.6757 20.4856C15.3134 21.5018 15.7504 22.688 15.9514 23.9501C16.039 24.499 16.0022 25.0605 15.8435 25.5933C15.6852 26.1179 15.4128 26.5781 15.0556 26.9227C14.6985 27.2673 14.2714 27.4823 13.8215 27.5442C13.3716 27.6064 12.9166 27.5125 12.5072 27.2736ZM17.4322 15.1015L29.5458 7.84666C30.1153 7.50536 30.6205 7.01974 31.0284 6.4211C31.4363 5.82245 31.7379 5.12403 31.9135 4.37185L32 4L31.9915 4.00626L19.917 11.1326C19.2808 11.5081 18.7248 12.0626 18.2933 12.7518C17.8618 13.441 17.5669 14.2458 17.4322 15.1015Z" fill="white"/>
<path d="M19.4927 27.2739L25.9678 23.495C26.4968 23.1864 26.967 22.7424 27.3469 22.1927C27.7272 21.6427 28.0089 20.9999 28.1735 20.3051L28.3012 19.7658L28.2563 19.7915V19.7934L19.1382 25.1135C18.9879 25.2033 18.8117 25.2396 18.6382 25.2165C18.4605 25.1898 18.2961 25.1069 18.1688 24.9802C18.0275 24.84 17.9243 24.666 17.8691 24.4747C17.8088 24.272 17.7948 24.0583 17.8282 23.8495C17.9516 23.0745 18.22 22.3455 18.6117 21.7215C19.0031 21.0974 19.5071 20.5953 20.0836 20.2551L27.816 15.6905C28.3366 15.383 28.799 14.9449 29.1749 14.4033C29.5504 13.8621 29.8306 13.2296 29.9974 12.5466C30.0515 12.3254 30.1016 12.1188 30.1421 11.9473L30.1075 11.9664L19.721 18.0979C18.7825 18.652 17.9619 19.4697 17.3242 20.4859C16.6865 21.5021 16.2495 22.6883 16.0485 23.9504C15.9607 24.4992 15.9974 25.0608 16.156 25.5936C16.3143 26.1182 16.5867 26.5784 16.9439 26.923C17.301 27.2676 17.7281 27.4826 18.178 27.5449C18.6283 27.6067 19.0833 27.5128 19.4924 27.2739H19.4927Z" fill="white"/>
</svg>
