<svg width="32" height="32" viewBox="0 0 32 32" fill="none" xmlns="http://www.w3.org/2000/svg">
<g clip-path="url(#clip0)">
<path opacity="0.9" d="M19.0212 21.5435C17.4632 25.2678 14.4719 27.7339 10.8478 28.1074C10.7699 28.1178 9.77798 28.1961 9.23047 28.1556C13.529 31.2983 18.6002 31.8232 18.6002 31.8232C19.6859 31.9345 20.9149 32.0257 22.1483 31.9935C22.5826 30.8595 22.8271 29.5612 22.757 28.0881C22.5941 24.6669 24.5779 22.9105 26.7261 22.0094C25.6251 20.3072 24.8035 18.2455 24.2408 16.3154C22.5633 16.7617 20.433 18.165 19.0212 21.5435Z" fill="white"/>
<path d="M22.6894 28.0638C22.7599 29.5368 22.4646 30.8659 22.0303 31.9999C25.2148 31.9161 28.547 31.0069 29.3976 27.5467C29.5779 26.8126 29.6009 26.0147 29.3011 25.321C29.0088 24.6452 28.4454 24.134 27.9453 23.5932C27.4775 23.0764 27.0534 22.5218 26.6771 21.9351C24.5308 22.8365 22.5266 24.643 22.6894 28.0638Z" fill="white"/>
<path d="M24.1304 15.9341C23.6411 14.6246 23.2245 13.3137 22.5913 12.0944C22.3796 11.683 22.1402 11.2864 21.8747 10.9074C21.2344 10.0001 20.553 9.11648 19.734 8.3642C18.3244 8.36828 16.8513 8.13162 15.5052 7.44092C14.1416 9.37503 12.5814 12.656 14.0095 16.4011C16.1184 21.9319 11.8388 25.7118 9.09229 28.0521L9.23102 28.1552C9.74596 28.1954 10.2635 28.188 10.7771 28.133C14.4009 27.7591 17.5654 25.2337 19.1234 21.5097C20.5356 18.1312 22.5899 16.8477 24.265 16.4011C24.2178 16.2453 24.1729 16.0896 24.1304 15.9341Z" fill="white"/>
<path d="M6.1692 8.56934C4.06965 10.8692 2.96275 14.1035 3.00096 17.2599C3.02284 19.0964 3.50618 20.8243 4.29927 22.4116C4.41823 22.6497 4.54435 22.8846 4.67763 23.1164C9.09151 18.6858 7.49682 12.084 6.1692 8.56934Z" fill="white"/>
<path opacity="0.9" d="M14.0839 16.4014C12.6558 12.6549 14.1811 9.3954 15.5428 7.46167C14.6448 6.99936 13.8459 6.3659 13.1911 5.59693C12.1301 5.57656 11.0734 5.73803 10.067 6.07433C8.4615 6.6059 7.10533 7.53957 6.02031 8.72807C7.31862 12.1656 8.87882 18.6234 4.5625 22.9568C5.38229 24.3886 6.45432 25.6929 7.65915 26.8428C8.13437 27.2958 8.63789 27.7182 9.16667 28.1074C11.9131 25.7682 16.1927 21.9322 14.0839 16.4014Z" fill="white"/>
<path d="M19.409 3.46675C22.3977 4.64598 24.4909 4.96536 26.0085 4.91974L26.0522 4.89155C20.3983 -4.75303 13.0054 2.84022 13.0054 2.84022L13.0161 2.85914C14.6108 2.57648 16.9285 2.48856 19.409 3.46675Z" fill="white"/>
<path opacity="0.9" d="M19.4456 3.40024C16.9666 2.42354 14.6356 2.46064 13.0142 2.8594C17.2656 10.3132 25.3455 5.34474 26.0065 4.92001C24.4879 4.96563 22.4343 4.57948 19.4456 3.40024Z" fill="white"/>
</g>
<defs>
<clipPath id="clip0">
<rect width="32" height="32" fill="white"/>
</clipPath>
</defs>
</svg>
