<svg width="32" height="32" viewBox="0 0 32 32" fill="none" xmlns="http://www.w3.org/2000/svg">
<g clip-path="url(#clip0_1551_2618)">
<path opacity="0.4" d="M5.19951 22.1422C5.39263 21.9491 5.65815 21.8364 5.93977 21.8364H31.4786C31.9453 21.8364 32.1787 22.3997 31.8488 22.7296L26.8038 27.7746C26.6107 27.9677 26.3451 28.0804 26.0635 28.0804H0.52463C0.0579459 28.0804 -0.175396 27.5171 0.154501 27.1872L5.19951 22.1422Z" fill="white"/>
<path opacity="0.4" d="M5.19951 3.30576C5.40067 3.11265 5.6662 3 5.93977 3H31.4786C31.9453 3 32.1787 3.56324 31.8488 3.89314L26.8038 8.93814C26.6107 9.13125 26.3451 9.2439 26.0635 9.2439H0.52463C0.0579459 9.2439 -0.175396 8.68066 0.154501 8.35077L5.19951 3.30576Z" fill="white"/>
<path opacity="0.4" d="M26.8038 12.6637C26.6107 12.4706 26.3451 12.3579 26.0635 12.3579H0.52463C0.0579459 12.3579 -0.175396 12.9211 0.154501 13.251L5.19951 18.2961C5.39263 18.4892 5.65815 18.6018 5.93977 18.6018H31.4786C31.9453 18.6018 32.1787 18.0386 31.8488 17.7087L26.8038 12.6637Z" fill="white"/>
<path d="M11.9267 5.932C10.3455 6.44311 9.11805 7.29156 8.24423 8.47733C7.39123 9.64267 6.96472 11.0942 6.96472 12.832C6.96472 13.6089 7.03754 14.1404 7.18317 14.4267C7.32881 14.7129 7.40163 14.8867 7.40163 14.948C5.17549 14.948 4.06242 14.0178 4.06242 12.1573C4.06242 10.8898 4.55133 9.62222 5.52917 8.35467C6.52782 7.06667 7.79692 6.024 9.3365 5.22667C10.8969 4.40889 12.4469 4 13.9864 4C14.7562 4 15.5468 4.14311 16.3582 4.42933L15.6404 20.5907L22.5061 4.42933H27L23.7232 27H19.2293L21.2266 13.2307L15.3596 27H11.0841L11.7083 13.1693L6.49661 27H4L11.9267 5.932Z" fill="white"/>
</g>
<defs>
<clipPath id="clip0_1551_2618">
<rect width="32" height="32" fill="white"/>
</clipPath>
</defs>
</svg>
