<svg width="32" height="32" viewBox="0 0 32 32" fill="none" xmlns="http://www.w3.org/2000/svg">
<path d="M27.6636 12.0095V23.1677L15.5385 30.3318L3.4066 23.1677V8.83236L15.5385 1.66127L24.8572 7.1711L26.2637 6.34047L15.5385 0L2 8.00173V23.9983L15.5385 32L29.077 23.9983V11.1789L27.6636 12.0095Z" fill="white"/>
<path d="M12.144 23.1747H10.1152V16.2113H16.8777C17.5175 16.204 18.1287 15.9393 18.5794 15.4742C19.0298 15.0092 19.2833 14.3813 19.2851 13.7263C19.2889 13.4025 19.2278 13.0813 19.1056 12.7825C18.9836 12.4837 18.8029 12.2137 18.5751 11.9889C18.3546 11.757 18.0906 11.5731 17.7988 11.4482C17.5072 11.3233 17.1939 11.26 16.8777 11.2622H10.1152V9.14404H16.8845C18.0695 9.1513 19.2041 9.63642 20.0422 10.4942C20.8801 11.352 21.3542 12.5133 21.3612 13.7263C21.3684 14.6549 21.0918 15.5625 20.57 16.3221C20.0898 17.0488 19.413 17.6165 18.6224 17.9557C17.8397 18.2097 17.0226 18.3359 16.2015 18.3294H12.144V23.1747Z" fill="white"/>
<path d="M21.3133 23.0015H18.9465L17.1206 19.7412C17.8429 19.696 18.5555 19.5469 19.2373 19.2983L21.3133 23.0015Z" fill="white"/>
<path d="M26.25 9.69088L27.6499 10.4869L29.0497 9.69088V8.00886L27.6499 7.17822L26.25 8.00886V9.69088Z" fill="white"/>
</svg>
