<svg width="32" height="32" viewBox="0 0 32 32" fill="none" xmlns="http://www.w3.org/2000/svg">
<path d="M16.0422 26.2825C11.2198 26.2825 7.30371 22.3664 7.30371 17.544C7.30371 12.8559 15.2142 4.57619 15.5499 4.22933L15.9639 3.79297L16.389 4.21814C16.7359 4.565 24.7806 12.8447 24.7806 17.5328C24.7806 22.3664 20.8645 26.2825 16.0422 26.2825ZM15.975 5.48248C15.2813 6.23213 13.8268 7.85451 12.3834 9.75661C9.82119 13.1356 8.46735 15.8209 8.46735 17.5328C8.46735 21.7063 11.8687 25.1077 16.0422 25.1077C20.2156 25.1077 23.617 21.7063 23.617 17.5328C23.617 15.8209 22.2408 13.1356 19.6338 9.75661C18.168 7.8657 16.6799 6.23213 15.975 5.48248Z" fill="white"/>
<path d="M16.042 29.0799C9.67558 29.0799 4.50635 23.8994 4.50635 17.5442C4.50635 11.3232 13.1889 2.6407 13.5581 2.28266C13.7819 2.05888 14.1623 2.05888 14.3861 2.28266C14.6098 2.50643 14.6098 2.88685 14.3861 3.11063C14.2966 3.20014 5.68117 11.8155 5.68117 17.5442C5.68117 23.2617 10.3357 27.9162 16.0532 27.9162C21.7707 27.9162 26.4252 23.2617 26.4252 17.5442C26.4252 15.1945 24.9036 11.9498 22.0168 8.13441C19.8015 5.21413 17.5749 2.99874 17.5525 2.97636C17.3175 2.75259 17.3175 2.38336 17.5525 2.14839C17.7763 1.91343 18.1455 1.91343 18.3805 2.14839C18.7609 2.51762 27.6001 11.312 27.6001 17.5442C27.5777 23.8994 22.4084 29.0799 16.042 29.0799Z" fill="white"/>
<path d="M16.042 31.8769C8.2993 31.8769 2 25.5776 2 17.835C2 14.635 3.61119 10.6965 6.77762 6.14268C9.11608 2.78603 11.4098 0.391629 11.5105 0.290929C11.7343 0.0559642 12.1035 0.0559642 12.3385 0.27974C12.5734 0.503517 12.5734 0.872747 12.3497 1.10771C12.3273 1.13009 10.0112 3.54687 7.72867 6.8252C4.74126 11.1105 3.16364 14.9147 3.16364 17.835C3.16364 24.9287 8.93706 30.7133 16.042 30.7133C23.1469 30.7133 28.9203 24.9399 28.9203 17.835C28.9203 14.9147 27.3315 11.1105 24.3217 6.8252C22.0168 3.54687 19.6783 1.13009 19.6559 1.10771C19.4322 0.872747 19.4322 0.503517 19.6671 0.27974C19.9021 0.0559642 20.2713 0.0559642 20.4951 0.290929C20.8867 0.693726 30.0839 10.249 30.0839 17.835C30.0839 25.5776 23.7846 31.8769 16.042 31.8769Z" fill="white"/>
</svg>
