<svg width="32" height="32" viewBox="0 0 32 32" fill="none" xmlns="http://www.w3.org/2000/svg">
<path opacity="0.4" d="M1.99121 8.03896L11.1807 2.68066V8.00879L6.60254 10.6807V16.0377L1.99121 18.6494V8.03896Z" fill="white"/>
<path d="M15.7631 0L29.5118 7.99871L24.9294 10.6649L11.1807 2.66624L15.7631 0Z" fill="white"/>
<path opacity="0.6" d="M24.919 10.6605V15.9934L11.1714 7.99351V2.66064L24.919 10.6605Z" fill="white"/>
<path d="M11.161 8.00098L24.9098 15.9997L20.3274 18.6659L6.57861 10.6672L11.1614 8.00098H11.161Z" fill="white"/>
<path opacity="0.6" d="M20.3266 18.6649V23.9978L6.57861 15.9979V10.665L20.3262 18.6649H20.3266Z" fill="white"/>
<path d="M6.59247 16.002L20.3412 24.0007L15.758 26.6669L2.00928 18.6682L6.59247 16.002Z" fill="white"/>
<path opacity="0.6" d="M15.748 26.6628V31.9957L2 23.9954V18.6621L15.748 26.6624V26.6628Z" fill="white"/>
<path opacity="0.8" d="M15.7402 26.6643L20.2812 24.0466V18.7188L24.875 16V10.6875L29.4844 7.98438V24.0466L15.7402 31.997V26.6643Z" fill="white"/>
</svg>
