<svg width="32" height="32" viewBox="0 0 32 32" fill="none" xmlns="http://www.w3.org/2000/svg">
<g clip-path="url(#clip0)">
<path fill-rule="evenodd" clip-rule="evenodd" d="M12.1872 2.45254C10.104 2.28588 8.49309 2.79966 7.65982 3.96624L1.92428 11.9658C1.09101 13.1323 1.11868 14.8266 1.95195 16.7431C3.10464 19.3818 5.77117 22.5067 9.43758 25.1176C13.0901 27.7424 16.9093 29.27 19.7841 29.52C21.8533 29.6866 23.4782 29.1729 24.3114 28.0063L30.0331 20.0068C30.8664 18.8402 30.8388 17.1459 30.0055 15.2294C28.8667 12.5907 26.1862 9.46588 22.5337 6.84106C18.8673 4.23014 15.062 2.68863 12.1872 2.45254ZM29.1166 15.6182C29.7693 17.1459 29.9083 18.507 29.2416 19.4236L29.1999 19.493C28.5194 20.368 27.2278 20.6596 25.589 20.5346C22.8531 20.3124 19.2286 18.8263 15.7427 16.3265C12.2569 13.8267 9.68761 10.8685 8.59047 8.34093C7.93774 6.84104 7.7987 5.52168 8.42365 4.5912L8.45159 4.53573C9.11821 3.60524 10.4374 3.29965 12.1039 3.43853C14.8399 3.66073 18.4646 5.14671 21.9505 7.64653C25.4503 10.1464 28.0195 13.1045 29.1166 15.6182ZM23.9086 13.9101C23.367 12.6463 22.0756 11.1603 20.3257 9.91037C18.5897 8.66046 16.7704 7.92437 15.4094 7.79938C14.6316 7.74383 14.0066 7.86877 13.701 8.29929C13.3955 8.72982 13.4788 9.3548 13.7843 10.0631C14.3259 11.3269 15.6176 12.799 17.3675 14.0489C19.1174 15.2989 20.9228 16.0488 22.2977 16.1599C23.0615 16.2294 23.6864 16.1044 23.9919 15.6739C24.3113 15.2433 24.2281 14.6183 23.9086 13.9101ZM7.29195 6.82462C7.28714 6.70967 7.19006 6.62038 7.0751 6.62519C6.96015 6.62999 6.87087 6.72708 6.87567 6.84203L6.88937 7.06823C6.89845 7.18292 6.99878 7.26854 7.11347 7.25946C6.99972 7.27668 6.92407 7.40408 6.94129 7.51784C7.20579 9.26492 8.18307 10.9449 9.40447 12.4567C9.47677 12.5462 9.60793 12.5601 9.69743 12.4878C9.78692 12.4155 9.80086 12.2844 9.72856 12.1949C8.52755 10.7083 7.60178 9.09714 7.35323 7.45547C7.33669 7.34622 7.23569 7.25014 7.12695 7.25796C7.23479 7.24242 7.31343 7.14551 7.30471 7.03536L7.29195 6.82462ZM7.12695 7.25796C7.1225 7.2586 7.11801 7.2591 7.11347 7.25946C7.11798 7.25878 7.12247 7.25828 7.12695 7.25796ZM13.5676 16.0328C13.4804 15.9577 13.3489 15.9676 13.2739 16.0548C13.1988 16.142 13.2087 16.2735 13.2959 16.3486L13.4622 16.4911L13.6738 16.6687C13.7625 16.742 13.8938 16.7295 13.9671 16.6408C14.0404 16.5521 14.0279 16.4208 13.9392 16.3475L13.7324 16.174L13.5676 16.0328ZM14.3621 16.6869C14.2713 16.6161 14.1404 16.6323 14.0697 16.7231C13.999 16.8138 14.0152 16.9447 14.1059 17.0154C15.8562 18.38 17.9809 19.572 20.0896 20.4245C20.1963 20.4676 20.3177 20.4161 20.3609 20.3095C20.404 20.2028 20.3525 20.0814 20.2458 20.0383C18.1692 19.1987 16.0788 18.0253 14.3621 16.6869ZM27.1295 21.7185C27.2431 21.7003 27.3204 21.5934 27.3022 21.4798C27.2839 21.3662 27.177 21.2889 27.0634 21.3072L26.8028 21.3426C26.6884 21.3554 26.6061 21.4585 26.6189 21.5728C26.6318 21.6871 26.7348 21.7694 26.8492 21.7566L27.1295 21.7185Z" fill="white"/>
<g clip-path="url(#clip1)">
<path fill-rule="evenodd" clip-rule="evenodd" d="M11.9507 18.6337L11.7713 18.8837C11.7431 18.9234 11.6883 18.9426 11.6172 18.9367C11.5254 18.9291 11.4037 18.8806 11.287 18.7969C11.1704 18.7132 11.0853 18.6135 11.0482 18.5291C11.02 18.4636 11.0204 18.4058 11.0491 18.3661L11.2281 18.116C11.2567 18.0763 11.3114 18.0572 11.3822 18.063C11.474 18.0706 11.5961 18.1192 11.7128 18.2029C11.8294 18.2865 11.9145 18.3863 11.9511 18.4707C11.9798 18.5361 11.9789 18.594 11.9507 18.6337ZM11.2761 18.1504C11.2946 18.1247 11.3317 18.118 11.3776 18.1218C11.4614 18.1287 11.5717 18.1744 11.6782 18.2508C11.7848 18.3271 11.8635 18.4171 11.8972 18.4942C11.9153 18.5364 11.9212 18.5737 11.9027 18.5993L11.9267 18.6165L11.9027 18.5993L11.7233 18.8494C11.7052 18.8751 11.6681 18.8817 11.6222 18.8779C11.5384 18.8711 11.4277 18.8254 11.3211 18.749C11.2146 18.6726 11.1358 18.5826 11.1026 18.5056C11.084 18.4633 11.0786 18.4261 11.0971 18.4005L11.2761 18.1504Z" fill="white"/>
<path fill-rule="evenodd" clip-rule="evenodd" d="M11.2524 18.1394C11.3109 18.0577 11.5093 18.0996 11.6954 18.233C11.8815 18.3663 11.9851 18.541 11.9266 18.6227L11.7476 18.8727C11.6891 18.9544 11.4903 18.9125 11.3042 18.7791C11.118 18.6457 11.0145 18.4711 11.073 18.3894L11.2524 18.1394Z" fill="white"/>
<path fill-rule="evenodd" clip-rule="evenodd" d="M11.2394 18.1239C11.2654 18.0875 11.3157 18.0714 11.3808 18.0766C11.4707 18.084 11.5896 18.1322 11.7042 18.2138C11.8183 18.2958 11.9021 18.3935 11.9377 18.4759C11.9637 18.5358 11.9646 18.5888 11.9385 18.6252L11.7597 18.8752C11.7337 18.9117 11.6829 18.9277 11.6182 18.9225C11.5284 18.9147 11.4091 18.867 11.2949 18.7849C11.1803 18.7033 11.097 18.6057 11.061 18.5232C11.0349 18.4633 11.0341 18.4104 11.0601 18.3739L11.2394 18.1239ZM11.9138 18.6074V18.607C11.9346 18.5783 11.9303 18.5358 11.9099 18.4881C11.8756 18.4095 11.7953 18.3171 11.6859 18.239C11.577 18.1608 11.4637 18.1144 11.3782 18.1075C11.3262 18.1031 11.2849 18.1127 11.2641 18.1417L11.2632 18.1435C11.2437 18.1726 11.248 18.2138 11.2684 18.2607C11.3027 18.3396 11.383 18.4321 11.4919 18.5102C11.6009 18.5883 11.7141 18.6348 11.7996 18.6417C11.8509 18.6456 11.8912 18.6365 11.9125 18.6092L11.9138 18.607V18.6074ZM11.6352 18.3097C11.6898 18.3488 11.7302 18.3952 11.7471 18.4347C11.7571 18.4568 11.7597 18.4764 11.7497 18.4898C11.7402 18.5033 11.7207 18.5072 11.6968 18.505C11.6538 18.5015 11.5974 18.4781 11.5427 18.439C11.488 18.4 11.4477 18.354 11.4307 18.3145C11.4212 18.2923 11.4186 18.2728 11.4281 18.2594C11.4377 18.2459 11.4572 18.242 11.4815 18.2437C11.5241 18.2476 11.5809 18.2706 11.6352 18.3097Z" fill="#0E0F23"/>
<path d="M11.2217 18.2134C11.2265 18.3275 11.3389 18.4365 11.4252 18.5102C11.5454 18.6127 11.739 18.6895 11.8471 18.6721" stroke="white" stroke-width="0.0130199" stroke-linecap="round" stroke-linejoin="round" stroke-dasharray="0.03 0.03 0.33 0.33"/>
</g>
</g>
<defs>
<clipPath id="clip0">
<rect width="32" height="32" fill="white"/>
</clipPath>
<clipPath id="clip1">
<rect width="1" height="1" fill="white" transform="translate(11 18)"/>
</clipPath>
</defs>
</svg>
