<svg width="32" height="32" viewBox="0 0 32 32" fill="none" xmlns="http://www.w3.org/2000/svg">
<g clip-path="url(#clip0)">
<path d="M12.8988 7.28182C12.552 7.23228 12.5355 7.21577 12.7006 7.19926C13.0143 7.14972 13.7409 7.21577 14.2527 7.33135C15.4416 7.61205 16.5149 8.33858 17.6542 9.60999L17.9514 9.95674L18.3807 9.89069C20.2135 9.59348 22.0959 9.82465 23.6645 10.5512C24.0938 10.7493 24.7708 11.1456 24.8534 11.2447C24.8864 11.2777 24.9359 11.4923 24.9689 11.707C25.0845 12.4831 25.035 13.061 24.7873 13.5068C24.6552 13.7545 24.6552 13.8205 24.7378 14.0352C24.8038 14.2003 25.002 14.3159 25.1836 14.3159C25.5799 14.3159 25.9927 13.6884 26.1908 12.8133L26.2734 12.4665L26.422 12.6317C27.2641 13.5728 27.9246 14.8773 28.0236 15.8019L28.0567 16.0496L27.908 15.835C27.6604 15.4552 27.4292 15.2075 27.1155 14.9929C26.5541 14.6131 25.9596 14.4975 24.391 14.415C22.971 14.3324 22.1619 14.2168 21.3693 13.9526C20.0154 13.5068 19.3219 12.9289 17.7202 10.7988C17.0102 9.85767 16.5644 9.3458 16.1186 8.91649C15.1444 7.97532 14.1702 7.47996 12.8988 7.28182Z" fill="white"/>
<path d="M25.2003 9.37895C25.2333 8.75149 25.3159 8.3387 25.4975 7.95892C25.5635 7.81032 25.6296 7.67822 25.6461 7.67822C25.6626 7.67822 25.6296 7.79381 25.5801 7.9259C25.448 8.28916 25.4315 8.80103 25.514 9.37895C25.6296 10.122 25.6791 10.2211 26.4717 11.0301C26.835 11.4099 27.2643 11.8888 27.4294 12.0869L27.7101 12.4502L27.4294 12.186C27.0826 11.8557 26.2901 11.2283 26.1084 11.1457C25.9929 11.0797 25.9763 11.0797 25.8938 11.1622C25.8277 11.2283 25.8112 11.3273 25.8112 11.8062C25.7947 12.5492 25.6956 13.0116 25.448 13.4904C25.3159 13.7381 25.2994 13.6885 25.4149 13.4078C25.4975 13.1932 25.514 13.0941 25.514 12.3841C25.514 10.9476 25.3489 10.6008 24.3417 10.0229C24.094 9.8743 23.6647 9.65965 23.417 9.54406C23.1528 9.42848 22.9547 9.32941 22.9712 9.32941C23.0042 9.29639 23.9784 9.57709 24.3582 9.74221C24.9361 9.97337 25.0352 9.98989 25.1012 9.97337C25.1507 9.92384 25.1838 9.79174 25.2003 9.37895Z" fill="white"/>
<path d="M13.576 11.8387C12.8825 10.881 12.4366 9.39494 12.5357 8.28864L12.5687 7.94189L12.7339 7.97492C13.0311 8.02445 13.5429 8.2226 13.7906 8.3712C14.4511 8.76749 14.7483 9.31238 15.029 10.6664C15.1116 11.0626 15.2271 11.525 15.2767 11.6736C15.3592 11.9213 15.673 12.4992 15.9372 12.8624C16.1188 13.1266 16.0032 13.2587 15.5904 13.2257C14.963 13.1596 14.1209 12.5817 13.576 11.8387Z" fill="white"/>
<path d="M24.3578 19.0217C21.0884 17.7008 19.9326 16.5614 19.9326 14.6295C19.9326 14.3488 19.9491 14.1177 19.9491 14.1177C19.9656 14.1177 20.0812 14.2167 20.2298 14.3323C20.8903 14.8607 21.6333 15.0919 23.6973 15.3891C24.9027 15.5707 25.5962 15.7028 26.2236 15.9175C28.2216 16.5779 29.46 17.9319 29.7572 19.7647C29.8397 20.2931 29.7902 21.3003 29.6581 21.8287C29.5425 22.2415 29.2123 23.0011 29.1297 23.0176C29.1132 23.0176 29.0802 22.935 29.0802 22.8029C29.0472 22.1094 28.7004 21.4489 28.1225 20.9371C27.429 20.3426 26.5374 19.8968 24.3578 19.0217Z" fill="white"/>
<path d="M22.0464 19.5667C22.0134 19.319 21.9308 19.0053 21.8813 18.8732L21.7987 18.6255L21.9473 18.8071C22.162 19.0548 22.3271 19.352 22.4757 19.7648C22.5913 20.0785 22.5913 20.1776 22.5913 20.6895C22.5913 21.1848 22.5748 21.3004 22.4757 21.5811C22.3106 22.0269 22.1125 22.3407 21.7822 22.6874C21.1878 23.2983 20.4117 23.6286 19.3054 23.7772C19.1073 23.7937 18.5459 23.8432 18.0505 23.8763C16.8121 23.9423 15.9866 24.0744 15.2435 24.3386C15.1444 24.3716 15.0454 24.4046 15.0289 24.3881C14.9958 24.3551 15.5077 24.0579 15.9205 23.8598C16.4984 23.5791 17.0928 23.4304 18.3973 23.1993C19.0412 23.1002 19.7017 22.9681 19.8668 22.9021C21.5015 22.3902 22.3106 21.1188 22.0464 19.5667Z" fill="white"/>
<path d="M23.5489 22.2253C23.1196 21.2841 23.0206 20.3925 23.2517 19.5504C23.2848 19.4678 23.3178 19.3853 23.3508 19.3853C23.3838 19.3853 23.4829 19.4348 23.582 19.5008C23.7801 19.6329 24.1929 19.8641 25.2497 20.442C26.5871 21.1685 27.3467 21.7299 27.875 22.3739C28.3374 22.9353 28.6181 23.5793 28.7502 24.3718C28.8327 24.8177 28.7832 25.8909 28.6676 26.3367C28.3044 27.7403 27.4788 28.8631 26.2734 29.507C26.0918 29.6061 25.9432 29.6721 25.9266 29.6721C25.9101 29.6721 25.9762 29.507 26.0753 29.3089C26.4715 28.4668 26.5211 27.6577 26.2239 26.7495C26.0422 26.1881 25.6625 25.5112 24.9029 24.3718C23.9948 23.0509 23.7801 22.7041 23.5489 22.2253Z" fill="white"/>
<path d="M11.2476 27.2778C12.4695 26.2541 13.9721 25.5275 15.3591 25.2964C15.9535 25.1973 16.9442 25.2303 17.4891 25.3789C18.3642 25.6101 19.1568 26.1055 19.5696 26.7164C19.9659 27.3108 20.1475 27.8227 20.3292 28.962C20.3952 29.4078 20.4778 29.8702 20.4943 29.9692C20.6264 30.5637 20.8906 31.026 21.2208 31.2737C21.7327 31.6534 22.6243 31.67 23.4994 31.3397C23.648 31.2902 23.7801 31.2406 23.7801 31.2572C23.8132 31.2902 23.3673 31.5874 23.0701 31.736C22.6573 31.9507 22.3271 32.0167 21.8813 32.0167C21.0887 32.0167 20.4117 31.6039 19.8668 30.7783C19.7512 30.6132 19.5201 30.1344 19.3219 29.6885C18.744 28.3511 18.4468 27.9548 17.7698 27.509C17.1754 27.1292 16.4158 27.0466 15.8379 27.3273C15.0784 27.6906 14.8802 28.6648 15.4086 29.2592C15.6233 29.5069 16.0196 29.705 16.3498 29.7546C16.9607 29.8371 17.4891 29.3583 17.4891 28.7474C17.4891 28.3511 17.3405 28.1199 16.9442 27.9383C16.4158 27.7071 15.8379 27.9713 15.8544 28.4832C15.8544 28.6978 15.9535 28.8299 16.1682 28.929C16.3003 28.995 16.3003 28.995 16.2012 28.9785C15.7223 28.8795 15.6068 28.285 15.9865 27.9053C16.4489 27.4429 17.4231 27.6411 17.7533 28.285C17.8854 28.5492 17.9019 29.0776 17.7863 29.4078C17.5056 30.1344 16.7131 30.5141 15.904 30.2995C15.3591 30.1509 15.1279 30.0023 14.4674 29.3253C13.3116 28.1364 12.8658 27.9053 11.2146 27.6576L10.9009 27.608L11.2476 27.2778Z" fill="white"/>
<path fill-rule="evenodd" clip-rule="evenodd" d="M2.56214 0.71001C6.4094 5.38287 12.3372 12.6481 12.6344 13.0444C12.8821 13.3746 12.783 13.6883 12.3702 13.9195C12.139 14.0516 11.6602 14.1837 11.429 14.1837C11.1648 14.1837 10.8511 14.0516 10.6364 13.8369C10.4878 13.6883 9.84387 12.7472 8.39083 10.485C7.28453 8.75129 6.34336 7.31476 6.32684 7.29825C6.2608 7.26522 6.2608 7.26522 8.27524 10.8648C9.54666 13.1269 9.95946 13.936 9.95946 14.0351C9.95946 14.2497 9.89341 14.3653 9.62922 14.6625C9.1834 15.1579 8.98525 15.7193 8.83665 16.8916C8.67153 18.1961 8.22571 19.1207 6.95429 20.6894C6.21126 21.614 6.09568 21.7792 5.91405 22.1589C5.68288 22.6213 5.61683 22.8854 5.58381 23.4799C5.55079 24.1073 5.61683 24.5036 5.79846 25.098C5.96358 25.6264 6.14521 25.9732 6.59103 26.6502C6.97081 27.2446 7.20197 27.6904 7.20197 27.8555C7.20197 27.9876 7.235 27.9876 7.82942 27.8555C9.24944 27.5253 10.4218 26.9639 11.0658 26.2704C11.462 25.8411 11.5611 25.6099 11.5611 25.0155C11.5611 24.6357 11.5446 24.5531 11.4455 24.322C11.2804 23.9587 10.9667 23.6615 10.2897 23.1992C9.39805 22.5882 9.01828 22.0929 8.91921 21.4324C8.83665 20.871 8.93572 20.4912 9.43108 19.451C9.94294 18.3777 10.075 17.9319 10.1576 16.8421C10.2071 16.1486 10.2897 15.8679 10.4878 15.6533C10.7025 15.4221 10.8841 15.3395 11.396 15.2735C12.2381 15.1579 12.783 14.9432 13.2123 14.5304C13.5921 14.1837 13.7572 13.8369 13.7737 13.3251L13.7902 12.9453L13.5756 12.7141C12.7995 11.8225 2.05027 0 2.00073 0C1.98422 0 2.24841 0.313726 2.56214 0.71001ZM7.63128 24.1899C7.81291 23.8762 7.71384 23.4799 7.41663 23.2817C7.13593 23.1001 6.70662 23.1827 6.70662 23.4303C6.70662 23.4964 6.73964 23.5624 6.83871 23.5955C6.98732 23.678 7.00383 23.7606 6.88825 23.9422C6.77266 24.1238 6.77266 24.289 6.92127 24.4045C7.15244 24.5862 7.46616 24.4871 7.63128 24.1899Z" fill="white"/>
<path fill-rule="evenodd" clip-rule="evenodd" d="M14.3189 15.5042C13.9226 15.6198 13.5428 16.0491 13.4272 16.4784C13.3612 16.7426 13.3942 17.2215 13.5098 17.3701C13.6914 17.6012 13.8565 17.6673 14.3189 17.6673C15.227 17.6673 16.0031 17.271 16.0856 16.7922C16.1682 16.3959 15.8214 15.851 15.3426 15.6033C15.0949 15.4712 14.583 15.4217 14.3189 15.5042ZM15.3756 16.3298C15.5077 16.1317 15.4582 15.917 15.2105 15.7684C14.7647 15.4877 14.0877 15.7189 14.0877 16.1482C14.0877 16.3628 14.4344 16.594 14.7647 16.594C14.9793 16.594 15.2765 16.4619 15.3756 16.3298Z" fill="white"/>
</g>
<defs>
<clipPath id="clip0">
<rect width="32" height="32" fill="white"/>
</clipPath>
</defs>
</svg>
