<svg width="32" height="32" viewBox="0 0 32 32" fill="none" xmlns="http://www.w3.org/2000/svg">
<path d="M16.023 15.7763C17.3269 15.7763 17.9114 15.7414 18.0245 15.7329L18.0207 15.732C22.0208 15.5547 25.0047 14.8571 25.0047 14.0237C25.0047 13.1903 22.0199 12.4927 18.0207 12.3145V15.0391C17.9085 15.0494 17.2854 15.1013 16.0409 15.1013C15.0039 15.1013 14.2535 15.057 13.9914 15.0381V12.3126C9.98372 12.4917 6.99236 13.1884 6.99236 14.0237C6.99236 14.859 9.98372 15.5566 13.9914 15.7329C14.2497 15.7452 14.986 15.7763 16.023 15.7763Z" fill="white"/>
<path fill-rule="evenodd" clip-rule="evenodd" d="M0.0244761 14.4741L5.8592 2.21826C5.8783 2.17698 5.90893 2.14211 5.94741 2.11786C5.98588 2.0936 6.03055 2.081 6.07603 2.08156H25.9258C25.971 2.08144 26.0154 2.09436 26.0535 2.11877C26.0916 2.14318 26.1219 2.17804 26.1407 2.2192L31.9755 14.475C31.9977 14.5206 32.0047 14.5721 31.9955 14.622C31.9864 14.6719 31.9615 14.7175 31.9245 14.7522L16.1664 29.8514C16.1216 29.8943 16.062 29.9183 16 29.9183C15.9379 29.9183 15.8783 29.8943 15.8336 29.8514L0.075385 14.7513C0.0384323 14.7166 0.0135572 14.6709 0.00439729 14.6211C-0.00476259 14.5712 0.00227334 14.5197 0.0244761 14.4741ZM18.0245 9.59369V12.0326C22.5521 12.242 25.954 13.1385 25.954 14.2141C25.954 15.2898 22.5488 16.1873 18.0235 16.3957V24.214H13.9904V16.3985C9.45484 16.1892 6.04395 15.2917 6.04395 14.2151C6.04395 13.1385 9.45484 12.24 13.9904 12.0317V9.59369H8.41026V5.87451H23.6056V9.59369H18.0245Z" fill="white"/>
</svg>
