<svg width="47" height="47" viewBox="0 0 47 47" fill="none" xmlns="http://www.w3.org/2000/svg">
<path d="M23.6562 3.30523C12.5189 3.30523 3.49219 12.3344 3.49219 23.4694C3.49219 29.0371 5.74953 34.0782 9.39753 37.7266L37.9135 9.21043C34.2642 5.56256 29.2229 3.30523 23.6562 3.30523Z" fill="#DBA36B"/>
<path d="M37.9144 9.21041L9.39844 37.7265C13.0478 41.3771 18.0878 43.6328 23.6571 43.6328C34.7931 43.6328 43.8198 34.6052 43.8198 23.4693C43.8198 17.9011 41.5638 12.8609 37.9144 9.21041" fill="#CD7F32"/>
<path d="M23.6627 6.19139C14.1374 6.19139 6.38804 13.9409 6.38804 23.4665C6.38804 32.9914 14.1374 40.7419 23.6627 40.7419C33.1867 40.7419 40.9374 32.9914 40.9374 23.4665C40.9374 13.9409 33.1867 6.19139 23.6627 6.19139ZM23.6627 46.5195C10.9507 46.5195 0.609375 36.1785 0.609375 23.4665C0.609375 10.7555 10.9507 0.41273 23.6627 0.41273C36.3734 0.41273 46.7147 10.7555 46.7147 23.4665C46.7147 36.1785 36.3734 46.5195 23.6627 46.5195" fill="#EFBF8D"/>
<mask id="mask0_715_14151" style="mask-type:alpha" maskUnits="userSpaceOnUse" x="15" y="12" width="18" height="21">
<path d="M29.9033 15.2995C29.9242 15.2991 29.9448 15.2986 29.9653 15.298L29.9936 15.2798C26.3359 9.0404 21.5532 13.9527 21.5532 13.9527L21.56 13.9647L21.5588 13.965C24.3092 18.7871 29.5363 15.5728 29.964 15.2981C29.9439 15.2987 29.9237 15.2992 29.9033 15.2995Z" fill="#FFE28A"/>
<path fill-rule="evenodd" clip-rule="evenodd" d="M23.1704 16.929C24.0412 17.3758 24.9942 17.5289 25.9061 17.5263C26.4359 18.013 26.8768 18.5846 27.291 19.1716C27.4627 19.4167 27.6176 19.6733 27.7546 19.9395C28.0713 20.5494 28.3043 21.1947 28.54 21.8477C28.6091 22.0391 28.6785 22.2314 28.7503 22.4235C28.7728 22.5057 28.7963 22.588 28.8208 22.6704C29.1848 23.919 29.7173 25.2525 30.4295 26.3538C30.6651 26.7156 30.9285 27.0583 31.2183 27.3784C31.2753 27.4401 31.3336 27.5013 31.3921 27.5625C31.6649 27.8483 31.9396 28.1361 32.0954 28.4962C32.2893 28.945 32.2744 29.4612 32.1578 29.9361C31.6075 32.1746 29.4518 32.7628 27.3916 32.817L27.3926 32.8145C26.6201 32.8299 25.8529 32.7723 25.1726 32.7026C25.1726 32.7026 21.8919 32.363 19.1111 30.3299L19.0698 30.2988C18.7278 30.047 18.402 29.7739 18.0945 29.4808C17.3151 28.7369 16.6216 27.8931 16.0912 26.9668L16.1015 26.9564C16.0387 26.8434 15.9785 26.7292 15.9209 26.6139C15.4079 25.5871 15.0952 24.4692 15.081 23.2811C15.0569 21.2873 15.739 19.2455 17.0356 17.7652L17.0343 17.7618C17.7362 16.9929 18.6136 16.3889 19.6522 16.045C20.3033 15.8275 20.9869 15.723 21.6733 15.7362C22.0909 16.2266 22.5995 16.6311 23.1704 16.929Z" fill="#FFE28A"/>
</mask>
<g mask="url(#mask0_715_14151)">
<path d="M37.9144 9.21041L9.39844 37.7265C13.0478 41.3771 18.0878 43.6328 23.6571 43.6328C34.7931 43.6328 43.8198 34.6052 43.8198 23.4693C43.8198 17.9011 41.5638 12.8609 37.9144 9.21041" fill="#E6994E"/>
</g>
<mask id="mask1_715_14151" style="mask-type:alpha" maskUnits="userSpaceOnUse" x="15" y="12" width="18" height="21">
<path d="M29.9033 15.2995C29.9242 15.2991 29.9448 15.2986 29.9653 15.298L29.9936 15.2798C26.3359 9.0404 21.5532 13.9527 21.5532 13.9527L21.56 13.9647L21.5588 13.965C24.3092 18.7871 29.5363 15.5728 29.964 15.2981C29.9439 15.2987 29.9237 15.2992 29.9033 15.2995Z" fill="#FFE28A"/>
<path fill-rule="evenodd" clip-rule="evenodd" d="M23.1704 16.929C24.0412 17.3758 24.9942 17.5289 25.9061 17.5263C26.4359 18.013 26.8768 18.5846 27.291 19.1716C27.4627 19.4167 27.6176 19.6733 27.7546 19.9395C28.0713 20.5494 28.3043 21.1947 28.54 21.8477C28.6091 22.0391 28.6785 22.2314 28.7503 22.4235C28.7728 22.5057 28.7963 22.588 28.8208 22.6704C29.1848 23.919 29.7173 25.2525 30.4295 26.3538C30.6651 26.7156 30.9285 27.0583 31.2183 27.3784C31.2753 27.4401 31.3336 27.5013 31.3921 27.5625C31.6649 27.8483 31.9396 28.1361 32.0954 28.4962C32.2893 28.945 32.2744 29.4612 32.1578 29.9361C31.6075 32.1746 29.4518 32.7628 27.3916 32.817L27.3926 32.8145C26.6201 32.8299 25.8529 32.7723 25.1726 32.7026C25.1726 32.7026 21.8919 32.363 19.1111 30.3299L19.0698 30.2988C18.7278 30.047 18.402 29.7739 18.0945 29.4808C17.3151 28.7369 16.6216 27.8931 16.0912 26.9668L16.1015 26.9564C16.0387 26.8434 15.9785 26.7292 15.9209 26.6139C15.4079 25.5871 15.0952 24.4692 15.081 23.2811C15.0569 21.2873 15.739 19.2455 17.0356 17.7652L17.0343 17.7618C17.7362 16.9929 18.6136 16.3889 19.6522 16.045C20.3033 15.8275 20.9869 15.723 21.6733 15.7362C22.0909 16.2266 22.5995 16.6311 23.1704 16.929Z" fill="#FFE28A"/>
</mask>
<g mask="url(#mask1_715_14151)">
<path d="M23.6562 3.30523C12.5189 3.30523 3.49219 12.3344 3.49219 23.4694C3.49219 29.0371 5.74953 34.0782 9.39753 37.7266L37.9135 9.21043C34.2642 5.56256 29.2229 3.30523 23.6562 3.30523Z" fill="#F0BF8D"/>
</g>
</svg>
