<svg width="47" height="47" viewBox="0 0 47 47" fill="none" xmlns="http://www.w3.org/2000/svg">
<path d="M23.1562 3.30523C12.0189 3.30523 2.99219 12.3344 2.99219 23.4694C2.99219 29.0371 5.24953 34.0782 8.89753 37.7266L37.4135 9.21043C33.7642 5.56256 28.7229 3.30523 23.1562 3.30523Z" fill="#C0C0C0"/>
<path d="M37.4144 9.21041L8.89844 37.7265C12.5478 41.3771 17.5878 43.6328 23.1571 43.6328C34.2931 43.6328 43.3198 34.6052 43.3198 23.4693C43.3198 17.9011 41.0638 12.8609 37.4144 9.21041" fill="#B8B8B8"/>
<path d="M23.1627 6.19139C13.6374 6.19139 5.88804 13.9409 5.88804 23.4665C5.88804 32.9914 13.6374 40.7419 23.1627 40.7419C32.6867 40.7419 40.4374 32.9914 40.4374 23.4665C40.4374 13.9409 32.6867 6.19139 23.1627 6.19139ZM23.1627 46.5195C10.4507 46.5195 0.109375 36.1785 0.109375 23.4665C0.109375 10.7555 10.4507 0.41273 23.1627 0.41273C35.8734 0.41273 46.2147 10.7555 46.2147 23.4665C46.2147 36.1785 35.8734 46.5195 23.1627 46.5195" fill="#D8D6D6"/>
<mask id="mask0_715_14152" style="mask-type:alpha" maskUnits="userSpaceOnUse" x="14" y="12" width="18" height="21">
<path d="M29.4033 15.2995C29.4242 15.2991 29.4448 15.2986 29.4653 15.298L29.4936 15.2798C25.8359 9.0404 21.0532 13.9527 21.0532 13.9527L21.06 13.9647L21.0588 13.965C23.8092 18.7871 29.0363 15.5728 29.464 15.2981C29.4439 15.2987 29.4237 15.2992 29.4033 15.2995Z" fill="#FFE28A"/>
<path fill-rule="evenodd" clip-rule="evenodd" d="M22.6704 16.929C23.5412 17.3758 24.4942 17.5289 25.4061 17.5263C25.9359 18.013 26.3768 18.5846 26.791 19.1716C26.9627 19.4167 27.1176 19.6733 27.2546 19.9395C27.5713 20.5494 27.8043 21.1947 28.04 21.8477C28.1091 22.0391 28.1785 22.2314 28.2503 22.4235C28.2728 22.5057 28.2963 22.588 28.3208 22.6704C28.6848 23.919 29.2173 25.2525 29.9295 26.3538C30.1651 26.7156 30.4285 27.0583 30.7183 27.3784C30.7753 27.4401 30.8336 27.5013 30.8921 27.5625C31.1649 27.8483 31.4396 28.1361 31.5954 28.4962C31.7893 28.945 31.7744 29.4612 31.6578 29.9361C31.1075 32.1746 28.9518 32.7628 26.8916 32.817L26.8926 32.8145C26.1201 32.8299 25.3529 32.7723 24.6726 32.7026C24.6726 32.7026 21.3919 32.363 18.6111 30.3299L18.5698 30.2988C18.2278 30.047 17.902 29.7739 17.5945 29.4808C16.8151 28.7369 16.1216 27.8931 15.5912 26.9668L15.6015 26.9564C15.5387 26.8434 15.4785 26.7292 15.4209 26.6139C14.9079 25.5871 14.5952 24.4692 14.581 23.2811C14.5569 21.2873 15.239 19.2455 16.5356 17.7652L16.5343 17.7618C17.2362 16.9929 18.1136 16.3889 19.1522 16.045C19.8033 15.8275 20.4869 15.723 21.1733 15.7362C21.5909 16.2266 22.0995 16.6311 22.6704 16.929Z" fill="#FFE28A"/>
</mask>
<g mask="url(#mask0_715_14152)">
<path d="M37.4144 9.21041L8.89844 37.7265C12.5478 41.3771 17.5878 43.6328 23.1571 43.6328C34.2931 43.6328 43.3198 34.6052 43.3198 23.4693C43.3198 17.9011 41.0638 12.8609 37.4144 9.21041" fill="#C7C7C7"/>
</g>
<mask id="mask1_715_14152" style="mask-type:alpha" maskUnits="userSpaceOnUse" x="14" y="12" width="18" height="21">
<path d="M29.4033 15.2995C29.4242 15.2991 29.4448 15.2986 29.4653 15.298L29.4936 15.2798C25.8359 9.0404 21.0532 13.9527 21.0532 13.9527L21.06 13.9647L21.0588 13.965C23.8092 18.7871 29.0363 15.5728 29.464 15.2981C29.4439 15.2987 29.4237 15.2992 29.4033 15.2995Z" fill="#FFE28A"/>
<path fill-rule="evenodd" clip-rule="evenodd" d="M22.6704 16.929C23.5412 17.3758 24.4942 17.5289 25.4061 17.5263C25.9359 18.013 26.3768 18.5846 26.791 19.1716C26.9627 19.4167 27.1176 19.6733 27.2546 19.9395C27.5713 20.5494 27.8043 21.1947 28.04 21.8477C28.1091 22.0391 28.1785 22.2314 28.2503 22.4235C28.2728 22.5057 28.2963 22.588 28.3208 22.6704C28.6848 23.919 29.2173 25.2525 29.9295 26.3538C30.1651 26.7156 30.4285 27.0583 30.7183 27.3784C30.7753 27.4401 30.8336 27.5013 30.8921 27.5625C31.1649 27.8483 31.4396 28.1361 31.5954 28.4962C31.7893 28.945 31.7744 29.4612 31.6578 29.9361C31.1075 32.1746 28.9518 32.7628 26.8916 32.817L26.8926 32.8145C26.1201 32.8299 25.3529 32.7723 24.6726 32.7026C24.6726 32.7026 21.3919 32.363 18.6111 30.3299L18.5698 30.2988C18.2278 30.047 17.902 29.7739 17.5945 29.4808C16.8151 28.7369 16.1216 27.8931 15.5912 26.9668L15.6015 26.9564C15.5387 26.8434 15.4785 26.7292 15.4209 26.6139C14.9079 25.5871 14.5952 24.4692 14.581 23.2811C14.5569 21.2873 15.239 19.2455 16.5356 17.7652L16.5343 17.7618C17.2362 16.9929 18.1136 16.3889 19.1522 16.045C19.8033 15.8275 20.4869 15.723 21.1733 15.7362C21.5909 16.2266 22.0995 16.6311 22.6704 16.929Z" fill="#FFE28A"/>
</mask>
<g mask="url(#mask1_715_14152)">
<path d="M23.1562 3.30523C12.0189 3.30523 2.99219 12.3344 2.99219 23.4694C2.99219 29.0371 5.24953 34.0782 8.89753 37.7266L37.4135 9.21043C33.7642 5.56256 28.7229 3.30523 23.1562 3.30523Z" fill="#D8D6D6"/>
</g>
</svg>
