<svg width="47" height="47" viewBox="0 0 47 47" fill="none" xmlns="http://www.w3.org/2000/svg">
<path d="M23.0468 2.8925C11.9095 2.8925 2.88281 11.9217 2.88281 23.0566C2.88281 28.6244 5.14015 33.6654 8.78815 37.3138L37.3041 8.7977C33.6548 5.14983 28.6135 2.8925 23.0468 2.8925Z" fill="#F2C94C"/>
<path d="M37.3051 8.79768L8.78906 37.3138C12.4384 40.9643 17.4784 43.2201 23.0477 43.2201C34.1837 43.2201 43.2104 34.1925 43.2104 23.0566C43.2104 17.4883 40.9544 12.4482 37.3051 8.79768" fill="#E4AF11"/>
<path d="M23.0533 5.77866C13.528 5.77866 5.77866 13.5281 5.77866 23.0537C5.77866 32.5787 13.528 40.3292 23.0533 40.3292C32.5773 40.3292 40.328 32.5787 40.328 23.0537C40.328 13.5281 32.5773 5.77866 23.0533 5.77866ZM23.0533 46.1068C10.3413 46.1068 0 35.7657 0 23.0537C0 10.3428 10.3413 -1.64172e-06 23.0533 -1.64172e-06C35.764 -1.64172e-06 46.1053 10.3428 46.1053 23.0537C46.1053 35.7657 35.764 46.1068 23.0533 46.1068" fill="#FDE877"/>
<mask id="mask0_716_14153" style="mask-type:alpha" maskUnits="userSpaceOnUse" x="14" y="11" width="18" height="22">
<path d="M29.294 14.8868C29.3148 14.8864 29.3354 14.8859 29.3559 14.8853L29.3842 14.867C25.7265 8.62766 20.9438 13.54 20.9438 13.54L20.9506 13.552L20.9495 13.5523C23.6998 18.3744 28.927 15.1601 29.3546 14.8853C29.3345 14.8859 29.3143 14.8864 29.294 14.8868Z" fill="#FFE28A"/>
<path fill-rule="evenodd" clip-rule="evenodd" d="M22.561 16.5163C23.4318 16.9631 24.3848 17.1162 25.2967 17.1136C25.8266 17.6002 26.2674 18.1719 26.6816 18.7588C26.8533 19.004 27.0082 19.2606 27.1452 19.5268C27.462 20.1367 27.6949 20.782 27.9306 21.4349C27.9997 21.6264 28.0691 21.8187 28.1409 22.0107C28.1634 22.093 28.1869 22.1753 28.2114 22.2577C28.5755 23.5063 29.1079 24.8398 29.8201 25.9411C30.0557 26.3028 30.3191 26.6456 30.6089 26.9657C30.6659 27.0274 30.7243 27.0885 30.7827 27.1497C31.0555 27.4355 31.3302 27.7234 31.486 28.0835C31.6799 28.5323 31.665 29.0484 31.5484 29.5234C30.9981 31.7618 28.8424 32.35 26.7822 32.4043L26.7832 32.4017C26.0107 32.4171 25.2435 32.3596 24.5632 32.2899C24.5632 32.2899 21.2825 31.9503 18.5017 29.9172L18.4605 29.8861C18.1184 29.6343 17.7926 29.3611 17.4852 29.068C16.7057 28.3241 16.0122 27.4804 15.4818 26.5541L15.4922 26.5437C15.4294 26.4307 15.3692 26.3165 15.3115 26.2012C14.7985 25.1743 14.4858 24.0565 14.4716 22.8684C14.4475 20.8746 15.1296 18.8328 16.4262 17.3525L16.4249 17.3491C17.1269 16.5802 18.0042 15.9762 19.0428 15.6323C19.694 15.4147 20.3775 15.3103 21.0639 15.3235C21.4815 15.8138 21.9901 16.2183 22.561 16.5163Z" fill="#FFE28A"/>
</mask>
<g mask="url(#mask0_716_14153)">
<path d="M37.3051 8.79768L8.78906 37.3138C12.4384 40.9643 17.4784 43.2201 23.0477 43.2201C34.1837 43.2201 43.2104 34.1925 43.2104 23.0566C43.2104 17.4883 40.9544 12.4482 37.3051 8.79768" fill="#FFCF40"/>
</g>
<mask id="mask1_716_14153" style="mask-type:alpha" maskUnits="userSpaceOnUse" x="14" y="11" width="18" height="22">
<path d="M29.294 14.8868C29.3148 14.8864 29.3354 14.8859 29.3559 14.8853L29.3842 14.867C25.7265 8.62766 20.9438 13.54 20.9438 13.54L20.9506 13.552L20.9495 13.5523C23.6998 18.3744 28.927 15.1601 29.3546 14.8853C29.3345 14.8859 29.3143 14.8864 29.294 14.8868Z" fill="#FFE28A"/>
<path fill-rule="evenodd" clip-rule="evenodd" d="M22.561 16.5163C23.4318 16.9631 24.3848 17.1162 25.2967 17.1136C25.8266 17.6002 26.2674 18.1719 26.6816 18.7588C26.8533 19.004 27.0082 19.2606 27.1452 19.5268C27.462 20.1367 27.6949 20.782 27.9306 21.4349C27.9997 21.6264 28.0691 21.8187 28.1409 22.0107C28.1634 22.093 28.1869 22.1753 28.2114 22.2577C28.5755 23.5063 29.1079 24.8398 29.8201 25.9411C30.0557 26.3028 30.3191 26.6456 30.6089 26.9657C30.6659 27.0274 30.7243 27.0885 30.7827 27.1497C31.0555 27.4355 31.3302 27.7234 31.486 28.0835C31.6799 28.5323 31.665 29.0484 31.5484 29.5234C30.9981 31.7618 28.8424 32.35 26.7822 32.4043L26.7832 32.4017C26.0107 32.4171 25.2435 32.3596 24.5632 32.2899C24.5632 32.2899 21.2825 31.9503 18.5017 29.9172L18.4605 29.8861C18.1184 29.6343 17.7926 29.3611 17.4852 29.068C16.7057 28.3241 16.0122 27.4804 15.4818 26.5541L15.4922 26.5437C15.4294 26.4307 15.3692 26.3165 15.3115 26.2012C14.7985 25.1743 14.4858 24.0565 14.4716 22.8684C14.4475 20.8746 15.1296 18.8328 16.4262 17.3525L16.4249 17.3491C17.1269 16.5802 18.0042 15.9762 19.0428 15.6323C19.694 15.4147 20.3775 15.3103 21.0639 15.3235C21.4815 15.8138 21.9901 16.2183 22.561 16.5163Z" fill="#FFE28A"/>
</mask>
<g mask="url(#mask1_716_14153)">
<path d="M23.0468 2.8925C11.9095 2.8925 2.88281 11.9217 2.88281 23.0566C2.88281 28.6244 5.14015 33.6654 8.78815 37.3138L37.3041 8.7977C33.6548 5.14983 28.6135 2.8925 23.0468 2.8925Z" fill="#FDE877"/>
</g>
</svg>
