<svg width="32" height="32" viewBox="0 0 32 32" fill="none" xmlns="http://www.w3.org/2000/svg">
<path d="M16 32C24.8366 32 32 24.8366 32 16C32 7.16344 24.8366 0 16 0C7.16344 0 0 7.16344 0 16C0 24.8366 7.16344 32 16 32Z" fill="url(#paint0_linear)"/>
<path d="M23.0021 22.3752L17.5918 9.29476C17.2866 8.61847 16.833 8.28857 16.2351 8.28857H15.7567C15.1588 8.28857 14.7052 8.61847 14.4 9.29476L12.0454 14.9937H10.2639C9.73197 14.9979 9.29898 15.4267 9.29486 15.9628V15.9752C9.29898 16.5071 9.73197 16.9401 10.2639 16.9443H11.2206L8.97321 22.3752C8.93197 22.4948 8.90723 22.6185 8.90723 22.7463C8.90723 23.0515 9.00207 23.2907 9.17114 23.4762C9.34022 23.6618 9.58352 23.7525 9.88867 23.7525C10.0907 23.7484 10.2845 23.6865 10.4454 23.5669C10.6186 23.4474 10.7382 23.2742 10.833 23.0762L13.3072 16.9401H15.0227C15.5546 16.936 15.9876 16.5071 15.9918 15.9711V15.9463C15.9876 15.4144 15.5546 14.9814 15.0227 14.9772H14.1072L15.9959 10.2721L21.1423 23.0721C21.2371 23.27 21.3567 23.4432 21.5299 23.5628C21.6907 23.6824 21.8887 23.7443 22.0866 23.7484C22.3918 23.7484 22.6309 23.6577 22.8041 23.4721C22.9773 23.2865 23.0681 23.0474 23.0681 22.7422C23.0722 22.6185 23.0516 22.4906 23.0021 22.3752Z" fill="white"/>
<defs>
<linearGradient id="paint0_linear" x1="27.939" y1="5.96553" x2="4.13097" y2="25.9975" gradientUnits="userSpaceOnUse">
<stop stop-color="#B6509E"/>
<stop offset="1" stop-color="#2EBAC6"/>
</linearGradient>
</defs>
</svg>
