<svg xmlns="http://www.w3.org/2000/svg" viewBox="0 0 375 346.51"><g data-name="Layer 2"><g data-name="Layer 1" fill="#335cbe"><path d="M102.76 172a25.31 25.31 0 0023.78 26.65H128A25.26 25.26 0 10102.76 172zM8.62 165.5a8.16 8.16 0 107.69 8.61 8.15 8.15 0 00-7.69-8.61zM101.16 25.43a8.16 8.16 0 10-11-3.62 8.18 8.18 0 0011 3.62zM126.78 70.1a12.61 12.61 0 10-16.94-5.59 12.62 12.62 0 0016.94 5.59zM40.58 100.82a10.39 10.39 0 10-3-14.38 10.39 10.39 0 003 14.38zM55.93 161a12.62 12.62 0 1011.88 13.31A12.62 12.62 0 0055.93 161zM42 245.72a10.39 10.39 0 1013.95 4.6 10.37 10.37 0 00-13.95-4.6zM91 134.89a14.84 14.84 0 10-4.27-20.55A14.83 14.83 0 0091 134.89zM246.47 69.1a12.62 12.62 0 10-3.63-17.47 12.61 12.61 0 003.63 17.47zM272.35 24.57A8.16 8.16 0 10270 13.26a8.16 8.16 0 002.35 11.31zM248.45 147.91a25.25 25.25 0 00-2.87 50.42h1.45a25.25 25.25 0 001.42-50.46zM135.08 133.14A25.12 25.12 0 00157.64 147a25.25 25.25 0 0022.54-36.62 25.25 25.25 0 10-45.1 22.73zM333 100.79a10.39 10.39 0 10-14-4.6 10.4 10.4 0 0014 4.6zM269 108.83a14.84 14.84 0 1019.94 6.58 14.86 14.86 0 00-19.94-6.58zM186.55 20.76a10.39 10.39 0 10-9.79-11 10.38 10.38 0 009.79 11zM186.43 86.13a14.84 14.84 0 10-14-15.66 14.84 14.84 0 0014 15.66zM106 237.68a14.84 14.84 0 10-19.93-6.58 14.85 14.85 0 0019.93 6.58zM196 107.79a25.22 25.22 0 1021.14-11.41A25.28 25.28 0 00196 107.79zM239.92 213.37a25.26 25.26 0 10-11.18 33.91 25.11 25.11 0 0011.18-33.91zM284 211.62a14.84 14.84 0 104.27 20.55 14.84 14.84 0 00-4.27-20.55zM332.38 173.68a12.62 12.62 0 10-13.31 11.88 12.62 12.62 0 0013.31-11.88zM367.3 164.71a8.16 8.16 0 107.69 8.61 8.17 8.17 0 00-7.69-8.61zM334.42 245.68a10.39 10.39 0 103 14.39 10.39 10.39 0 00-3-14.39zM102.65 321.94a8.16 8.16 0 102.34 11.3 8.17 8.17 0 00-2.34-11.3zM273.83 321.08a8.16 8.16 0 1011 3.62 8.16 8.16 0 00-11-3.62zM179 238.71a25.25 25.25 0 10-21.14 11.41A25.1 25.1 0 00179 238.71zM128.53 277.41a12.62 12.62 0 103.63 17.47 12.62 12.62 0 00-3.63-17.47zM187.38 325.74a10.39 10.39 0 109.78 11 10.39 10.39 0 00-9.78-11zM187.49 260.37a14.84 14.84 0 1014 15.67 14.85 14.85 0 00-14-15.67zM248.21 276.4a12.62 12.62 0 1017 5.59 12.62 12.62 0 00-17-5.59z"/></g></g></svg>