<svg width="32" height="32" viewBox="0 0 32 32" fill="none" xmlns="http://www.w3.org/2000/svg">
<circle cx="10" cy="16" r="2" fill="white"/>
<circle cx="16" cy="16" r="2" fill="white"/>
<circle cx="22" cy="16" r="2" fill="white"/>
<path d="M16 32C24.8366 32 32 24.8366 32 16C32 7.16344 24.8366 0 16 0C7.16344 0 0 7.16344 0 16C0 24.8366 7.16344 32 16 32Z" fill="#988430"/>
<path d="M16.0002 31.4877C24.5537 31.4877 31.4877 24.5537 31.4877 16.0002C31.4877 7.44668 24.5537 0.512695 16.0002 0.512695C7.44668 0.512695 0.512695 7.44668 0.512695 16.0002C0.512695 24.5537 7.44668 31.4877 16.0002 31.4877Z" fill="#7A6A2A"/>
<path d="M16 31.1612C24.3733 31.1612 31.1612 24.3733 31.1612 16C31.1612 7.62676 24.3733 0.838867 16 0.838867C7.62676 0.838867 0.838867 7.62676 0.838867 16C0.838867 24.3733 7.62676 31.1612 16 31.1612Z" fill="#BA9F33"/>
<path fill-rule="evenodd" clip-rule="evenodd" d="M6.99512 14.2916C6.9045 14.2089 6.80875 14.1259 6.72069 14.0432C6.63263 13.9604 6.54217 13.8774 6.45155 13.7947L6.18224 13.5387C6.1382 13.4946 6.09161 13.4559 6.04758 13.4117C6.00355 13.3729 5.95184 13.3289 5.9078 13.29C5.55043 12.9509 5.191 12.6118 4.83858 12.2725C5.20363 12.6065 5.56101 12.9381 5.92607 13.277L6.05287 13.404C6.0969 13.4479 6.14349 13.4868 6.18753 13.5308L6.45667 13.7793C6.54729 13.8621 6.63536 13.945 6.72598 14.0353C6.8166 14.1256 6.90467 14.2087 6.99529 14.2913L6.99512 14.2916ZM2.25212 14.2404C2.25212 14.2404 3.55175 14.3749 4.18612 14.4656C4.77372 14.5485 6.61197 14.8306 6.61197 14.8306L2.25212 14.2404ZM2.25212 14.2404C2.61718 14.2715 2.98224 14.3103 3.34729 14.3492C3.53366 14.3673 3.71235 14.3879 3.89104 14.406L4.1653 14.4372C4.25592 14.45 4.34398 14.463 4.43461 14.476L5.5221 14.6494L6.06567 14.74C6.24436 14.7711 6.42305 14.8049 6.60941 14.8359C6.43073 14.8178 6.24436 14.7919 6.06567 14.7659L5.5221 14.6883L4.43461 14.5279C4.34398 14.5149 4.25592 14.4966 4.1653 14.4838L3.89087 14.4522C3.71218 14.4342 3.52581 14.4082 3.34712 14.3874C2.98207 14.3435 2.61701 14.2968 2.25195 14.2399L2.25212 14.2404ZM6.48261 15.1692C6.48261 15.1692 5.09492 15.5215 4.62627 15.6562C4.16547 15.783 2.76993 16.2076 2.76993 16.2076L6.48244 15.1694L6.48261 15.1692Z" fill="#CFB66C"/>
<path fill-rule="evenodd" clip-rule="evenodd" d="M6.48238 15.1689C6.17432 15.2596 5.86798 15.3476 5.55548 15.4306L4.62859 15.6791C4.32054 15.7697 4.01419 15.8577 3.70699 15.9484L3.24619 16.0752C3.09345 16.1192 2.93814 16.1579 2.78027 16.2021C2.93285 16.1509 3.08833 16.0985 3.24107 16.0545L3.70187 15.9071C4.00993 15.8111 4.31627 15.7205 4.62347 15.6248C4.93665 15.5471 5.24487 15.4642 5.55804 15.3891C5.85569 15.314 6.16903 15.2391 6.48238 15.1691V15.1689ZM2.96408 17.0616C3.11666 17.0046 4.87725 16.184 5.28634 15.9924C5.49114 15.8965 6.08643 15.6852 6.08643 15.6852L2.96408 17.0616Z" fill="#CFB66C"/>
<path fill-rule="evenodd" clip-rule="evenodd" d="M2.96453 17.0615C3.09901 17.0103 3.22599 16.9477 3.35535 16.8881L3.7385 16.7094L4.50752 16.3392C4.76352 16.2175 5.01236 16.0832 5.27638 15.9689C5.41103 15.912 5.54569 15.8654 5.68017 15.8214L5.88497 15.7567C5.95478 15.7386 6.01963 15.7178 6.08977 15.6997C5.83377 15.8214 5.56429 15.925 5.30795 16.044C5.05195 16.1709 4.79015 16.2745 4.52596 16.3884L3.74413 16.7326C3.48165 16.8389 3.22565 16.9528 2.96436 17.0615H2.96453ZM3.13519 17.7783C3.13519 17.7783 4.7299 16.8437 5.27877 16.5433C5.56617 16.3829 6.49562 15.9219 6.49562 15.9219L3.13519 17.7783Z" fill="#CFB66C"/>
<path fill-rule="evenodd" clip-rule="evenodd" d="M3.13525 17.7789C3.40439 17.6132 3.67882 17.4449 3.95326 17.2741L4.36285 17.0254C4.50263 16.9427 4.63728 16.865 4.77979 16.7822C4.91957 16.6993 5.05422 16.6165 5.19656 16.5389C5.26432 16.497 5.33531 16.4607 5.40886 16.4302L5.62629 16.3214C5.91369 16.1817 6.2011 16.0392 6.50403 15.9175C6.2296 16.091 5.94732 16.2387 5.66521 16.3913C5.52543 16.4689 5.38292 16.5389 5.24315 16.6165C5.10337 16.6942 4.96872 16.7771 4.82621 16.8522C4.68644 16.935 4.55178 17.0126 4.40945 17.0877L3.98739 17.3181L3.1356 17.7789H3.13525ZM6.48269 16.1271C6.48269 16.1271 5.49113 16.8882 5.1701 17.1316C4.84908 17.375 3.9041 18.0585 3.9041 18.0585L6.48269 16.1271V16.1271Z" fill="#CFB66C"/>
<path fill-rule="evenodd" clip-rule="evenodd" d="M12.1734 22.265L11.666 21.3045L11.9611 20.1032L14.0659 19.2903L13.1701 17.4522L13.6128 15.5959L14.444 13.9336L17.0123 13.5298L18.8996 11.7305L22.9748 12.0385L23.7747 16.3958L22.2343 21.8819L21.3567 24.7221L17.7993 24.8568L16.1476 23.7125L14.2136 22.9045L12.1734 22.265Z" fill="#E2CC85"/>
<path fill-rule="evenodd" clip-rule="evenodd" d="M18.413 22.2346C18.413 22.2346 17.9209 22.4599 17.0818 22.408C16.8389 22.0819 15.138 21.9291 15.138 21.9291C15.138 21.9291 14.9257 21.8645 14.5503 22.0198C14.1724 22.1734 13.815 22.1544 13.4811 22.2372C13.1471 22.32 12.8155 21.8851 12.5595 21.7945C12.3035 21.6987 11.964 21.4683 11.964 21.4683L11.2472 21.3984L9.80781 20.7899L7.52106 18.5117L6.89967 19.4845L6.70801 20.6884L7.39938 22.115L9.26083 23.8107L12.8905 24.7323L15.042 24.0985L17.7371 22.9593L18.413 22.2345V22.2346Z" fill="#F1D789"/>
<path fill-rule="evenodd" clip-rule="evenodd" d="M5.51706 14.1829L5.97787 12.7875L6.52691 11.8864L8.29503 11.7388L7.76425 13.2871L6.2861 15.9176L6.89965 18.2658L5.81232 18.8094L5.47815 18.2969L5.20901 17.1215L5.19092 15.801L5.51706 14.1829Z" fill="#F4ECB4"/>
<path fill-rule="evenodd" clip-rule="evenodd" d="M7.5005 22.1383L7.16138 21.6646C7.16138 21.6646 7.07076 21.4393 7.12264 21.2425C7.17384 21.0432 7.1665 21.0302 7.14073 20.9551C7.11496 20.88 6.89736 20.6211 6.91033 20.3984C6.92313 20.1731 6.89224 20.098 7.05779 19.9195C7.23118 19.7461 7.17947 19.4457 7.17947 19.4457L7.40475 19.5855L7.45595 19.5078C7.45595 19.5078 7.53872 19.5725 7.53872 19.6736C7.55682 19.5338 7.48172 18.8864 7.65256 18.739C7.8234 18.5915 8.12633 19.4302 8.12633 19.4302L7.93996 18.2133L7.4609 16.9656L6.6091 15.8264L6.5579 14.5706V14.4619C6.5579 14.4619 6.16691 15.0627 6.05819 15.5371C5.98054 15.8633 6.16691 16.2594 6.12816 16.728C6.09693 17.1941 6.05819 17.1578 6.17203 17.3424C6.28586 17.5271 6.56302 17.9068 6.45431 18.1813C6.35856 18.4169 6.03225 18.2512 6.03225 18.2512C6.03225 18.2512 5.96757 18.4427 5.8795 18.5127C5.84844 18.3989 5.81482 18.3263 5.7527 18.2567C5.74741 18.3007 5.73461 18.3603 5.73461 18.3603C5.73461 18.3603 5.6776 18.1816 5.6206 17.9563C5.54312 17.6561 5.46018 17.26 5.38508 17.0477C5.35402 17.1694 5.27637 17.5395 5.27637 17.5395L5.3204 18.1092L5.53271 18.8911L5.73751 19.4031L5.93685 20.0296L6.11007 20.4504L6.24985 20.7715L6.37154 21.4939L6.95914 22.1151L7.27248 22.2551L7.50015 22.1385L7.5005 22.1383Z" fill="#F3E19D"/>
<path fill-rule="evenodd" clip-rule="evenodd" d="M5.82535 13.0434C5.82535 13.0434 5.40329 13.7602 5.28177 14.4828C5.16026 15.2054 5.05137 15.9689 5.12817 16.9526C5.20582 17.9444 5.35345 18.5526 5.47258 18.9877C5.67738 19.7101 6.20781 20.7146 6.20781 20.7146L6.2259 20.6757C6.13675 20.5067 6.06558 20.3288 6.01359 20.1449C5.94362 19.8705 5.91768 19.5444 5.853 19.3967C5.79599 19.2493 5.70025 19.1223 5.65366 18.9411C5.60962 18.7677 5.60246 18.4932 5.46729 18.2888C5.41028 18.2058 5.34031 17.9884 5.31966 17.771C5.29372 17.4447 5.33263 17.0796 5.30157 16.7794C5.24457 16.2797 5.20582 15.9406 5.25754 15.679C5.30925 15.4173 5.57873 14.6746 5.74445 14.0843C5.85317 13.7062 5.78831 13.3878 5.98765 13.0589C6.18699 12.7328 6.30885 12.4454 6.35271 12.246C6.40391 12.0648 5.82466 13.0434 5.82466 13.0434H5.82535Z" fill="#F2E8B0"/>
<path fill-rule="evenodd" clip-rule="evenodd" d="M7.82678 12.7559C7.82678 12.7559 7.60935 12.8207 7.50575 12.9345C7.40216 13.0433 7.35813 13.1339 7.21835 13.3177C7.07858 13.5015 7.07072 13.6517 6.95672 13.8821C6.84289 14.1074 6.59167 14.4465 6.5606 14.5682C6.52954 14.6899 6.47783 15.2594 6.41315 15.5287C6.35615 15.798 6.47783 16.1294 6.47783 16.1294L6.62529 16.0982C6.62529 16.0982 6.62529 16.2899 6.77291 16.4194C6.92037 16.5462 6.94631 15.9895 6.94631 15.9895L7.49773 14.128L8.3287 13.5636L8.41933 13.1079L7.82643 12.7559H7.82678Z" fill="#F5EEC0"/>
<path fill-rule="evenodd" clip-rule="evenodd" d="M8.23035 13.6C8.23035 13.6 7.83936 13.6258 7.64787 13.7657C7.57022 13.8226 7.53916 13.8692 7.45639 13.9391C7.30364 14.0659 7.14817 14.1825 7.07324 14.3487C6.9903 14.5143 6.89968 14.7655 6.83756 15.2393C6.81162 15.4386 6.81162 15.6225 6.79353 15.7831C6.76758 16.0005 6.72884 16.1739 6.74949 16.2951C6.77543 16.5436 7.03177 16.6731 7.05669 16.9552L7.58746 16.6861L8.08716 14.7157L9.1487 14.0501L8.54796 13.377L8.22967 13.5988L8.23035 13.6Z" fill="#E6DB9D"/>
<path fill-rule="evenodd" clip-rule="evenodd" d="M5.43035 26.8682C5.43256 26.8487 5.43478 26.8293 5.437 26.8093C5.51449 26.1437 5.52763 25.6392 5.58446 25.3233C5.66723 24.8755 5.72424 24.7089 5.71127 24.5413C5.69317 24.2722 5.67252 24.0754 5.69847 23.8682C5.73721 23.5938 6.00652 23.2676 5.99884 23.0423C5.99355 22.8637 5.90293 22.7473 5.82527 22.6385C5.74762 22.5298 5.68549 22.4392 5.68549 22.4392C5.68549 22.4392 6.21627 22.0742 6.21115 20.6035C6.22199 20.6066 6.23242 20.6109 6.24221 20.6165L6.50368 21.3594L6.68236 21.5768L7.36845 22.8558L8.25131 23.7129L9.55607 24.5905L10.3742 25.4808L10.457 27.855L9.38779 29.2427L9.21268 29.5598C7.82152 28.8614 6.54583 27.9535 5.43018 26.868L5.43035 26.8682Z" fill="#E5CB7A"/>
<path fill-rule="evenodd" clip-rule="evenodd" d="M8.69629 29.1392C8.69629 29.1392 8.71438 28.8441 8.95775 28.6525C8.99666 28.7172 9.02243 28.7795 9.01475 28.8259C9.05878 28.7484 9.36684 28.2512 10.0633 28.1217C10.7598 27.9949 10.9281 27.4875 10.9281 27.4875L12.4062 26.1438L14.0969 24.5879L16.1525 23.8654L17.1132 23.6298C17.1132 23.6298 17.1313 23.6997 17.0951 23.855C17.2736 23.8422 17.6698 23.7516 18.0814 23.6065C18.2471 23.5419 18.4026 23.5159 18.4854 23.6014C18.6071 23.7153 18.6251 23.9846 18.6328 24.145C18.8322 24.101 19.0626 23.9095 19.2472 23.9276C19.5425 23.9586 19.8039 24.3056 20.1043 24.3056C20.5004 24.3056 20.6789 24.0622 20.9561 23.8706C21.1218 23.7567 21.3599 23.6146 21.4946 23.5185C21.8156 23.2828 25.2124 22.2446 25.2124 22.2446L26.4033 22.3223L26.5949 23.6013L26.4925 26.9446C26.4799 26.9567 26.4673 26.9694 26.4545 26.9815L21.0396 29.8096L13.5337 30.9602C11.8523 30.6855 10.2298 30.1274 8.7352 29.3097L8.6968 29.139L8.69629 29.1392Z" fill="#D8C173"/>
<path fill-rule="evenodd" clip-rule="evenodd" d="M5.88525 27.2932C5.99192 27.0702 6.08784 26.8836 6.10473 26.8169C6.11804 26.9514 6.14245 27.2465 6.1916 27.5601C6.0884 27.4724 5.98629 27.3834 5.88525 27.2931V27.2932Z" fill="#F1D789"/>
<path fill-rule="evenodd" clip-rule="evenodd" d="M11.3689 30.4393L12.3396 30.1693L12.4224 30.1952C12.4224 30.1952 12.4664 30.2211 12.4664 30.309C12.5881 30.2392 12.6917 30.252 12.7668 30.2056C12.8055 30.2884 12.8443 30.5628 13.0153 30.5964C13.1938 30.6354 13.3855 30.5188 13.5797 30.3713C13.7712 30.2186 13.9893 30.0269 14.1543 29.9493C14.2149 30.0606 14.2685 30.1756 14.3149 30.2935C14.5324 30.1201 14.9104 29.4159 15.4488 29.4287C15.6045 29.061 15.8645 28.7468 16.1967 28.5252C16.6964 28.1861 17.0096 28.1602 17.4006 28.1912C17.5559 27.9895 17.7473 27.8183 17.965 27.6864C18.0297 27.7123 18.2084 27.821 18.4311 27.7175C18.6564 27.614 18.91 27.2126 19.244 27.1609C19.424 27.1361 19.607 27.1746 19.7618 27.2696C19.7618 27.2696 20.7346 26.3038 21.4058 25.9828C21.3799 25.9051 21.3282 25.6126 22.1151 24.9653C22.1591 25.0042 22.1281 25.1129 22.1591 25.1189C22.1719 25.1189 22.3639 25.0361 22.607 24.8496C22.9074 24.6245 23.2671 24.3888 23.4846 24.3241C23.8942 24.2024 24.3287 24.4509 24.3287 24.4509C24.3656 24.425 24.4068 24.4057 24.4504 24.3939C24.5538 24.3758 24.6289 24.3628 24.6859 24.3427C24.6808 24.4773 24.7559 24.7077 24.6859 24.9071C24.7669 24.9527 24.8528 24.9891 24.9419 25.0158C24.898 25.1115 24.8021 25.3549 24.6417 25.4715C24.7762 25.5362 24.7943 25.6112 24.9859 25.6763C24.9083 25.785 24.7811 25.9715 24.7245 26.0859C24.6674 26.2076 24.4628 26.7124 24.3722 26.9039C24.2764 27.0955 24.1471 27.4476 24.0848 27.5183C24.0225 27.5889 23.7974 27.8885 23.624 28.0359C23.7776 27.9789 24.406 27.7874 24.6726 27.7149C24.5932 27.8313 24.1909 28.4281 23.8042 29.0021C21.9526 30.1119 19.8856 30.8144 17.7412 31.0626C15.5967 31.3109 13.4239 31.0992 11.3677 30.4418L11.3689 30.4393Z" fill="#E0CD81"/>
<path fill-rule="evenodd" clip-rule="evenodd" d="M8.29448 13.5302C8.29448 13.5302 8.06937 13.5302 8.02534 13.5613C7.98131 13.5923 8.25062 13.6572 8.33339 13.6882C8.41616 13.7193 8.59485 13.8616 8.64144 13.9756C8.68547 14.0844 10.2595 14.7185 10.2595 14.7185L11.3728 14.6615L11.7566 14.1313L11.0265 13.4918L11.5385 11.9824L10.8603 12.0911L9.22922 13.0639L8.41104 13.3773L8.29448 13.5302Z" fill="#DFC57C"/>
<path fill-rule="evenodd" clip-rule="evenodd" d="M10.7393 14.0299C10.7553 14.056 10.778 14.0773 10.805 14.0919C10.8319 14.1064 10.8622 14.1136 10.8929 14.1127C11.1233 14.1127 11.3354 14.1697 11.4235 14.2861C11.5711 14.4726 11.9802 15.0681 11.9802 15.0681L12.9588 15.4202L13.0219 14.2678L11.9527 13.5249L10.7358 13.9727V14.0297H10.7386L10.7393 14.0299Z" fill="#E5CC7C"/>
<path fill-rule="evenodd" clip-rule="evenodd" d="M10.5471 14.4571C10.5471 14.4571 10.7257 14.47 10.9509 14.3871C11.1762 14.3041 11.5464 14.1256 11.707 14.1956C11.9321 14.2913 11.8855 14.5917 12.1291 14.8612C12.2765 15.0269 12.5458 15.0218 12.6986 15.2005C12.8513 15.3792 13.3768 15.2962 13.3768 15.2962L13.5761 16.3714L12.7762 17.3968L12.5146 18.6705H11.4329L10.4447 18.2785L9.95801 17.1009L10.2014 15.9099L10.5471 14.4571Z" fill="#D2C281"/>
<path fill-rule="evenodd" clip-rule="evenodd" d="M12.6397 14.5087C12.6665 14.517 12.6944 14.5213 12.7224 14.5217C12.6914 14.5476 12.6265 14.6044 12.6525 14.7521C12.6784 14.8997 12.7612 15.0861 12.6914 15.1999C12.7471 15.2608 12.7886 15.3333 12.8131 15.4122C12.8571 15.5392 12.8701 15.6556 13.1573 15.6738C13.1158 15.6993 13.0776 15.7298 13.0435 15.7644C13.0435 15.7644 13.2428 15.9378 13.3438 16.0983C13.4473 16.0938 13.7217 16.0085 13.7217 16.0085L13.7787 16.0474L13.9004 15.9962C13.9004 15.9962 13.7865 15.9522 13.8693 15.6752C13.947 15.4318 14.0169 15.4448 14.0229 15.4267C14.0289 15.4086 14.0799 15.1523 14.0799 15.0487C14.1187 14.9142 14.1497 14.5051 14.1497 14.5051L14.0669 13.6016L13.601 13.3193L13.2221 12.9536L12.8648 13.6267L12.6294 13.8614L12.6113 14.4438L12.6397 14.5087Z" fill="#E2C270"/>
<path fill-rule="evenodd" clip-rule="evenodd" d="M13.7603 13.7527C13.7603 13.7527 13.843 13.9882 13.8743 14.1695C13.8853 14.1343 13.8914 14.0977 13.8923 14.0608C13.8923 14.0608 13.957 14.4181 13.9698 14.5658C13.9958 14.5605 14.021 14.5528 14.0268 14.5786C14.0326 14.6043 14.0917 14.8919 14.078 15.0523C14.1858 14.8745 14.335 14.7253 14.5129 14.6175C14.6165 14.5526 14.7382 14.4828 14.8651 14.4775C15.0645 14.4724 15.2094 14.6045 15.4476 14.6045C16.0223 14.6045 16.5428 14.1825 16.9259 14.0531C17.2081 13.9572 17.4514 13.8874 17.6223 13.7319C17.7052 13.6621 17.8528 13.5068 17.9873 13.2762C18.166 12.969 18.3524 12.7016 18.5389 12.668C18.4545 12.6835 18.3687 12.6895 18.2829 12.6861C18.2829 12.6861 18.3399 12.629 18.4365 12.5514C18.5331 12.4737 18.6488 12.378 18.8144 12.378C19.1096 12.378 19.2571 12.4219 19.4228 12.4219C19.5885 12.4167 19.6843 12.378 19.6843 12.378C19.6843 12.378 19.8578 12.4997 20.2487 12.4997C20.6397 12.5048 20.9011 12.5384 21.1057 12.5567C21.3104 12.5749 21.9963 12.4997 22.1931 12.5055C22.3214 12.5104 22.4473 12.5413 22.5634 12.5961L21.929 10.7529L19.6503 8.76123L18.2937 9.72174L16.2068 11.8085L14.1874 12.5567L13.7654 13.0305V13.7527H13.7603Z" fill="#CCB360"/>
<path fill-rule="evenodd" clip-rule="evenodd" d="M18.2918 12.6961C18.2918 12.6961 18.3488 12.6393 18.4444 12.5616C18.54 12.4839 18.6569 12.388 18.8224 12.388C19.1175 12.388 19.2651 12.4321 19.4308 12.4321C19.5966 12.4269 19.6923 12.388 19.6923 12.388C19.6923 12.388 19.866 12.5095 20.2567 12.5095C20.6477 12.5147 20.9091 12.5483 21.1138 12.5664C21.3184 12.5845 22.0043 12.5095 22.2011 12.5152C22.3293 12.52 22.4553 12.5508 22.5712 12.6058L22.2838 11.7747L21.95 11.1405L20.9972 10.097L19.845 9.41877C19.8399 9.41365 19.4489 9.31006 19.4489 9.31006L18.4133 9.93658L17.4737 12.3677L17.4556 12.8797L18.0638 13.1671C18.2166 12.9111 18.385 12.7063 18.5429 12.6804C18.4004 12.6959 18.2917 12.6959 18.2917 12.6959L18.2918 12.6961Z" fill="#D5B457"/>
<path fill-rule="evenodd" clip-rule="evenodd" d="M18.2785 12.8702C18.1879 12.8753 18.113 12.8572 18.0922 12.7925C18.0145 12.5751 17.9524 12.544 17.8874 12.544C17.8224 12.544 17.7346 12.6838 17.6826 12.6966C17.6305 12.7094 17.5688 12.5362 17.5688 12.5362L17.5117 12.5103C17.5117 12.5103 17.1778 12.7277 16.9422 12.984C16.7067 13.2404 16.3209 13.6754 16.1475 13.7529C15.9741 13.8304 15.3785 13.8565 15.1747 13.9005C14.9709 13.9445 14.745 14.0922 14.7139 14.1258C14.6828 14.1594 14.8047 14.1956 14.8228 14.2292C14.8409 14.2603 14.6233 14.2473 14.6052 14.2804C14.5924 14.3063 14.6564 14.4538 14.6881 14.5289C14.7437 14.5013 14.8046 14.4862 14.8666 14.4849C15.066 14.4797 15.211 14.6118 15.4491 14.6118C16.0239 14.6118 16.5443 14.1898 16.9274 14.0602C17.2097 13.9645 17.453 13.8945 17.6239 13.7392C17.7066 13.6694 17.8543 13.5139 17.9889 13.2835C18.0872 13.1257 18.1831 12.9781 18.2791 12.8693L18.2785 12.8702Z" fill="#D2B257"/>
<path fill-rule="evenodd" clip-rule="evenodd" d="M10.0352 25.6827C10.0352 25.6827 9.98399 25.4911 9.50954 24.9966C9.37488 24.8569 9.29211 24.7406 9.20148 24.6575C8.97621 24.445 8.84411 24.3882 8.68368 24.2665C8.3316 24.005 7.94846 24.005 7.65337 23.684C7.35829 23.363 7.0144 22.7496 6.77547 22.1227C6.53995 21.4962 6.4751 21.2969 6.4751 21.2788C6.4751 21.2607 6.53995 21.139 6.62272 21.1571C6.7055 21.1752 6.7055 21.3356 6.72632 21.3745C6.76756 21.438 6.81433 21.4978 6.86609 21.5531C6.98778 21.693 7.16117 21.8603 7.24924 22.1098C7.23115 21.8975 7.15861 21.6619 7.15861 21.6619C7.15861 21.6619 7.61429 21.9493 8.00256 22.2496C8.39355 22.5499 8.55398 22.6535 8.66815 22.845C8.78233 23.0365 9.0513 23.5415 9.18015 23.6891C9.309 23.8368 11.0745 24.3933 11.0745 24.3933L11.9144 25.0195L12.3313 25.9334L12.005 26.4454L11.3785 26.5801L10.361 26.1244L10.0352 25.6825V25.6827Z" fill="#D2B159"/>
<path fill-rule="evenodd" clip-rule="evenodd" d="M7.7749 22.5347C7.7749 22.5347 7.98721 22.8738 8.50501 23.1948C8.9711 23.4771 9.70889 23.7335 10.3666 23.8862C10.7445 23.9768 11.1225 24.0466 11.4616 24.0519C12.3755 24.0647 13.0046 23.8034 13.784 23.7179C14.2061 23.6739 14.7239 23.6403 15.2624 23.5131C15.9535 23.3474 16.3626 23.1609 16.9193 22.8987C17.3231 22.7124 17.6935 22.5726 17.9937 22.3939C18.4157 22.1454 18.7238 21.8684 19.0812 21.7856C19.0371 21.9073 18.9905 22.1248 18.6385 22.35C18.8248 22.3447 19.0812 22.3319 19.0812 22.3319C19.0812 22.3319 18.8327 22.4794 18.3951 22.8108C18.1258 23.0156 17.7686 23.3623 17.4035 23.5927C17.1678 23.7403 16.9115 23.8487 16.7432 23.9371C16.3336 24.1623 16.1684 24.2762 15.8993 24.5515C15.995 24.5463 16.0029 24.5515 16.0029 24.5515C16.0029 24.5515 15.6636 24.5955 15.4204 24.7249C15.3692 24.7249 15.2804 24.7068 15.1251 24.7508C15.0034 24.7895 14.8429 24.8778 14.6773 24.9242C14.4416 24.9942 14.3641 24.9631 14.3641 24.9631L14.4029 25.0408C14.4029 25.0408 14.0957 25.0355 13.9933 25.0459C14.0114 25.051 14.0062 25.0589 14.0062 25.0589C13.9883 25.0619 13.9709 25.068 13.955 25.077C13.9058 25.1089 13.8516 25.1325 13.7946 25.1468C13.7636 25.1519 13.7376 25.1519 13.6987 25.1597C13.7117 25.1908 13.8127 25.3645 13.8593 25.4669C13.8206 25.4929 13.2379 25.933 13.2379 25.933C13.256 25.9615 13.2708 25.9919 13.2819 26.0236C13.3 26.0805 13.3079 26.1634 13.326 26.2022C13.3698 26.2798 13.3958 26.2928 13.3958 26.2928C13.3958 26.2928 13.326 26.3058 13.2041 26.3368C13.1007 26.3628 12.9737 26.4066 12.7945 26.4326C12.7395 26.4397 12.6842 26.444 12.6288 26.4455C12.6547 26.5025 12.7686 26.72 12.5588 26.971C12.3491 27.2221 12.2844 27.2586 12.2197 27.419C12.1872 27.3944 12.1525 27.3727 12.1161 27.3542C12.0463 27.3231 11.9504 27.2767 11.9168 27.2144C11.8972 27.2974 11.8712 27.3787 11.8391 27.4578C11.7745 27.6311 11.6787 27.8022 11.6606 27.9315C11.5906 27.8539 11.4613 27.7011 11.2826 27.7322C11.1039 27.7632 10.9616 28.0066 10.9305 28.0766C10.9305 28.0326 10.8995 27.9989 10.8918 28.0506C10.8865 28.1076 10.7882 28.7029 10.2393 29.1846C10.2342 29.0629 10.2342 28.7936 10.2212 28.7057C10.17 28.7569 10.1074 28.8325 9.73449 28.9931C9.36943 29.1535 9.42729 29.3141 9.42729 29.3141C9.42729 29.3141 9.39623 29.0581 9.593 28.7884C9.79234 28.5193 9.91403 28.3923 9.91403 28.3717C9.91081 28.3506 9.90183 28.3309 9.88809 28.3147C9.86214 28.2887 9.81043 28.2577 9.81043 28.237C9.84149 28.2242 10.1495 28.0766 10.1315 27.7709C10.1134 27.4967 9.99697 27.3542 9.91403 27.2533C9.90123 27.2403 10.0359 27.1446 10.0176 27.1135C10.0047 27.0954 9.83911 26.9736 9.81828 26.9087C9.82318 26.87 9.83187 26.8319 9.84422 26.7949C9.86231 26.7379 9.87529 26.699 9.87017 26.6602C9.8572 26.5955 9.78722 26.4169 9.76657 26.3988C9.78466 26.4039 9.91403 26.3988 9.91403 26.3988C9.91403 26.3988 9.8106 26.233 9.79234 26.1554C9.77408 26.0777 9.73534 25.8731 9.71469 25.8344C9.75872 25.8395 9.86743 25.8472 9.86743 25.8344C9.87273 25.7955 9.77169 25.7308 9.81623 25.6808C9.8473 25.6859 9.90686 25.7118 9.96369 25.7844C9.93263 25.7014 9.88092 25.541 9.77203 25.4763C9.82323 25.4582 9.99731 25.4115 10.1501 25.5021C10.3028 25.5927 10.3549 25.7195 10.3549 25.7195C10.3549 25.7195 10.4455 25.7895 10.5854 25.8931C10.7459 26.0199 10.9503 26.2003 11.2766 26.3279C11.3466 26.3669 11.5251 26.3669 11.6546 26.3409C11.711 26.3275 11.7651 26.3057 11.8151 26.2762C11.8331 26.2656 11.8522 26.2569 11.8721 26.2503C11.8442 26.1944 11.8122 26.1407 11.7763 26.0897C11.8204 26.0897 11.8721 26.095 11.8721 26.095C11.8721 26.095 11.9031 26.025 11.7634 25.8902C11.7944 25.8591 11.8333 25.839 11.8333 25.7866C11.7893 25.7815 11.7116 25.7168 11.6936 25.6908C11.7193 25.6727 11.7582 25.6132 11.8023 25.5951C11.7634 25.564 11.6676 25.4345 11.6236 25.4217C11.6656 25.4061 11.7063 25.387 11.7453 25.3647C11.7453 25.3647 11.5278 25.3077 11.4579 25.2611C11.3879 25.2099 11.2845 25.1213 11.2224 25.0954C11.1575 25.0694 11.0437 25.0566 10.9971 25.0048C11.0409 25.0177 11.1109 25.0048 11.1628 25.0048C11.2015 25.0048 11.2198 25.0099 11.2326 25.0099C11.2275 24.9918 11.2275 24.9529 11.3285 24.9401C11.3771 24.9328 11.4243 24.9179 11.4683 24.896C11.4683 24.896 11.3724 24.8909 11.2635 24.7873C11.1546 24.6837 11.0641 24.601 11.002 24.588C10.9373 24.575 10.8157 24.632 10.7406 24.6267C10.637 24.6139 10.5929 24.5621 10.5929 24.5621C10.5929 24.5621 10.2487 24.5931 9.48497 24.1272C8.82467 23.7232 8.53727 23.366 8.53727 23.366C8.47547 23.3436 8.41574 23.3158 8.35875 23.2831C8.11026 23.1537 7.76586 22.8844 7.77627 22.5321L7.7749 22.5347Z" fill="#C2A44D"/>
<path fill-rule="evenodd" clip-rule="evenodd" d="M17.2995 6.9953C17.3594 7.01476 17.4126 7.05065 17.4531 7.09889C17.5748 7.23867 17.6524 7.50269 17.3754 7.78497C17.4842 7.82371 17.529 7.83617 17.6239 7.82371C17.5282 7.93772 17.3108 8.18109 17.2978 8.3934C17.2848 8.5668 17.3935 8.61868 17.3935 8.61868C17.3935 8.61868 17.2278 8.81017 17.2201 9.13068C17.2984 9.04243 17.384 8.96101 17.4761 8.88731C17.6678 8.73456 17.9318 8.56116 18.1105 8.45245C18.1081 8.49802 18.1142 8.54363 18.1286 8.58694C18.1286 8.58694 18.4624 8.3125 18.743 8.43436C18.8698 8.49136 18.8128 8.66988 18.8128 8.66988C18.8128 8.66988 18.9864 8.6052 19.108 8.72688C19.2297 8.84857 19.4018 9.16242 19.49 9.28411C19.5287 9.34111 19.6298 9.44983 19.7332 9.6181C19.8745 9.8537 19.9925 10.1025 20.0855 10.361C20.0906 10.2264 20.1242 10.0168 20.5075 10.1487C20.8907 10.2834 21.3255 10.5656 21.6906 11.1215C22.0556 11.6774 22.1461 12.3049 22.3299 12.5438C22.5163 12.7742 22.7079 13.1574 22.7209 13.318C22.7339 13.4786 22.6639 13.9962 23.047 15.3969C23.1557 14.962 23.3215 13.9962 23.3215 13.9962L23.4121 13.1444L23.5157 10.5088L20.7635 8.22239L18.6121 6.66113L17.2114 6.79579L17.2993 6.99513L17.2995 6.9953Z" fill="#CAA13E"/>
<path fill-rule="evenodd" clip-rule="evenodd" d="M22.4132 10.9179C22.4132 10.9179 22.3743 10.6619 21.7271 10.2267C21.0798 9.79695 20.575 9.79695 20.109 9.4319C19.7517 9.14449 19.3789 8.48418 19.1362 8.26675C18.9006 8.05188 18.8618 7.43049 18.8618 7.43049L19.6566 6.76489L20.8386 5.05634L21.8379 3.95605L22.3168 4.62165L22.9824 5.40348L23.3526 6.97242L23.4872 9.26891L22.412 10.9181L22.4132 10.9179Z" fill="#B59544"/>
<path fill-rule="evenodd" clip-rule="evenodd" d="M23.2132 13.6706C23.2328 13.3223 23.1898 12.9734 23.0862 12.6403C22.9156 12.1095 22.5427 11.1671 22.3694 10.8142C22.2995 10.4232 22.3513 10.3921 22.4264 10.3481C22.5015 10.304 22.7838 10.1433 22.9384 9.57921C23.0931 9.01516 23.5728 8.99673 23.5728 8.99673L23.8679 8.7793L24.3159 9.90024L24.7067 10.9126L24.8284 11.6868L24.919 12.3469L24.7067 13.7425L23.6583 14.69L23.213 13.6706H23.2132Z" fill="#C89D3A"/>
<path fill-rule="evenodd" clip-rule="evenodd" d="M8.58252 29.225V29.1963C8.60431 29.1827 8.62354 29.1654 8.63935 29.1451C8.65744 29.1192 8.67058 29.0881 8.68338 29.0805C8.70933 29.0675 8.83101 29.0293 8.8957 29.0415C8.96038 29.0538 9.13139 29.1243 9.22202 29.1192C9.40839 29.1141 9.62582 28.9716 9.97023 29.0364C10.488 29.1322 10.6097 29.4843 10.9101 29.6836C11.1149 29.8235 11.3269 29.7613 11.3579 29.7613H11.4277C11.4407 29.7613 11.5365 29.6525 11.5883 29.6578C11.6919 29.6629 11.7022 29.7484 11.7669 29.7536C11.9196 29.7717 12.2149 29.6759 12.3625 29.7148C12.4063 29.7285 12.4461 29.7526 12.4785 29.7851C12.511 29.8175 12.5351 29.8573 12.5489 29.901C12.5799 29.9968 12.554 30.1185 12.4789 30.1884C12.3185 30.3359 12.1657 30.4758 12.1347 30.598C12.1742 30.6282 12.2121 30.6603 12.2483 30.6943C10.9673 30.3679 9.7348 29.8744 8.58252 29.2265V29.225Z" fill="#CEB052"/>
<path fill-rule="evenodd" clip-rule="evenodd" d="M22.3687 24.0515C22.3687 24.0515 22.7724 23.513 22.9124 23.2463C23.0522 22.9713 22.4697 19.4897 22.4697 19.4897L23.6399 15.6555L23.6087 14.4076C23.6087 14.4076 23.6657 13.2555 23.8004 12.7557C23.961 13.0432 24.4607 13.3901 24.5694 13.5739C24.6206 13.2217 24.7945 12.4788 24.7687 11.6865C24.8645 11.834 25.0949 13.3176 25.0949 13.3176L25.3253 14.3168L25.6256 15.3784L25.9596 16.4995L26.159 17.2736L26.2728 17.46L26.3687 17.7862L26.4593 18.1384L26.7208 18.9643L26.8744 19.6425L26.9961 20.8723C27.0225 20.9665 27.0416 21.0626 27.0531 21.1597C27.0582 21.2944 27.035 21.372 27.035 21.3954C27.035 21.4188 27.079 21.6905 27.0609 21.8951C27.035 22.0999 27.035 22.2602 26.8744 22.4071C26.7138 22.5541 26.6129 23.4323 26.6129 23.4323L26.3255 23.2408C26.3255 23.2408 26.3825 22.9792 26.2479 22.7411C26.1132 22.503 25.8518 22.4537 25.7041 22.4926C25.5567 22.5237 25.2616 22.5701 25.1657 22.6531C25.0751 22.7358 24.8525 22.9922 24.6479 23.1087C24.3919 23.2623 23.9748 23.2744 23.7522 23.3262C23.527 23.3774 23.2785 23.531 23.0168 23.7093C22.8117 23.8421 22.5951 23.9563 22.3697 24.0506L22.3687 24.0515Z" fill="#CCA847"/>
<path fill-rule="evenodd" clip-rule="evenodd" d="M22.3687 29.7091C22.3687 29.7091 22.3857 29.7202 22.4187 29.7383C24.258 28.8765 25.9061 27.6549 27.2656 26.1457C27.2507 25.6218 27.2315 25.0847 27.2103 24.8857C27.1664 24.4636 27.1975 24.0339 27.1845 23.7854C27.1716 23.5369 27.0318 22.5245 26.9671 22.2631C26.8971 22.0016 26.7623 21.8721 26.7418 21.8721C26.7237 21.8774 26.6148 22.3641 26.6148 22.4865C26.6148 22.6088 26.5889 22.9034 26.5889 22.9785C26.5708 22.9732 26.5631 22.9273 26.5631 22.9085C26.5372 22.9732 26.5061 23.0872 26.4932 23.1002C26.4802 23.1132 26.5112 22.9915 26.4932 22.9655C26.4751 22.9396 26.442 22.9526 26.4491 22.8879C26.4522 22.8495 26.4582 22.8115 26.4672 22.774C26.4672 22.774 26.3896 22.8879 26.3327 23.1778C26.2757 23.4652 26.2757 23.4731 26.2551 23.4989C26.237 23.5301 26.1334 23.6335 26.1281 23.6724C26.123 23.7422 26.224 23.8122 26.2317 23.8509C26.2368 23.9158 26.1411 24.216 26.11 24.3629C26.0789 24.5099 26.0919 24.7978 26.0588 24.9454C26.0329 25.0801 26.0076 25.1577 25.919 25.2146C25.9837 25.2275 26.0458 25.2456 26.0458 25.2456C26.0458 25.2456 26.1365 25.6288 25.9061 25.9551C25.8233 26.0689 25.8026 26.1208 25.7146 26.2244C25.541 26.4159 25.4063 26.634 25.3934 26.7758C25.3844 26.734 25.3784 26.6916 25.3753 26.6489C25.3753 26.6489 25.1061 26.9622 24.9921 27.1409C24.8447 27.3713 24.6401 27.3583 24.5825 27.4153C24.525 27.4723 24.5126 27.5757 24.5313 27.6587C24.4801 27.6715 24.3839 27.6898 24.319 27.8891C24.288 27.9925 24.2103 28.0939 24.0886 28.1635C23.9669 28.2332 23.8193 28.2542 23.7442 28.2722C23.8089 28.2903 23.8348 28.2903 23.8659 28.311C23.8272 28.3757 23.6485 28.4767 23.4491 28.6062C23.2498 28.7279 23.1539 28.9064 23.1047 29.023C23.0535 29.1317 22.9779 29.2017 22.8562 29.2147C22.9074 29.2457 22.9832 29.3181 23.022 29.3415C22.965 29.3544 22.8684 29.3544 22.6958 29.5021C22.5146 29.6523 22.4524 29.6963 22.3695 29.7093L22.3687 29.7091Z" fill="#C39D3C"/>
<path fill-rule="evenodd" clip-rule="evenodd" d="M18.767 30.9087C18.8661 30.8392 18.9735 30.7823 19.0866 30.7392C19.4904 30.5788 19.9176 30.5478 20.0859 30.496C20.2465 30.4448 20.3733 30.3742 20.5726 30.3354C20.5673 30.3808 20.5629 30.4235 20.5581 30.4638C19.9704 30.6485 19.372 30.7971 18.7661 30.9087H18.767Z" fill="#D2BA6B"/>
<path fill-rule="evenodd" clip-rule="evenodd" d="M26.2141 20.2875C26.2141 20.2875 26.1313 20.7354 25.9837 21.0176C25.836 21.2999 25.6765 21.6907 25.6765 21.6907C25.6774 21.6027 25.6878 21.515 25.7075 21.4291C25.5211 21.5378 25.068 21.7995 24.9395 21.9159C24.8178 22.0246 24.6132 22.2162 24.5615 22.3069C24.6832 21.9497 24.81 21.6286 24.8308 21.481C24.6444 21.6157 23.7744 22.3328 23.3214 22.8066L21.9104 23.9483C21.7475 24.0362 21.5798 24.1147 21.4081 24.1835C21.1649 24.2869 20.8775 24.375 20.6652 24.4579C20.7222 24.3052 20.8126 24.1704 20.9396 24.041C21.0743 23.9142 21.4781 23.4766 21.5402 23.273C21.5972 23.0607 21.6101 22.9339 21.5351 22.7552C21.4651 22.7733 21.3047 22.7811 21.1959 22.8122C21.0872 22.8433 20.9707 22.9597 20.9707 22.9597C20.9707 22.9597 21.0534 22.4859 21.2321 22.0381C21.0975 22.0432 20.8671 22.0819 20.8671 22.0819C20.8671 22.0819 21.1881 21.5435 21.7375 21.1682C21.5692 21.204 21.4046 21.2551 21.2456 21.3207C20.9246 21.4554 20.5725 21.6547 20.311 21.7635C20.4585 21.5587 21.4941 20.0807 22.1104 18.7032C22.7248 17.3285 22.9543 16.9765 23.089 16.2387C23.1588 15.8736 23.1402 15.3341 23.1588 14.851C23.1769 14.3719 23.2364 13.9422 23.1977 13.6548C23.3581 13.8541 23.9589 14.416 23.9795 15.6717C23.9976 16.9273 23.4049 18.6232 22.7756 19.5369C22.9292 19.581 23.3272 19.6329 23.7361 18.9226C24.1451 18.2122 24.1401 18.0139 24.2877 17.7187C24.3058 17.8663 24.3005 17.918 24.3005 17.918C24.3005 17.918 24.8962 17.1958 25.1783 16.287C25.2353 16.678 25.4036 17.0224 25.1394 17.7395C24.9038 18.3867 24.5958 18.5447 24.5958 18.5447C24.5958 18.5447 24.7485 18.5188 24.9736 18.3841C25.0126 18.4798 25.0049 18.5889 25.0696 18.6275C25.1342 18.666 25.2223 18.7311 25.2353 18.7932C25.3051 18.6896 25.4138 18.5575 25.4476 18.4592C25.4216 18.664 25.4036 19.5595 25.4988 20.0152C25.6983 19.9971 25.9028 19.9841 26.0425 19.6242C25.9468 19.9764 25.9468 20.1886 26.0115 20.4889C26.1176 20.4166 26.2134 20.287 26.2134 20.287L26.2141 20.2875Z" fill="#C0993A"/>
<path fill-rule="evenodd" clip-rule="evenodd" d="M19.4874 6.0169C19.4874 6.0169 19.2881 6.09967 18.949 6.09967C18.6539 6.09967 18.7367 5.98584 18.2759 5.98584C17.5666 5.98584 15.0888 6.39544 14.6538 6.38964C14.3715 6.38452 15.6064 6.51132 15.6064 6.51132L18.7626 6.55535L19.3968 6.50415L19.6325 6.02458L19.4874 6.0169Z" fill="#A88F33"/>
<path fill-rule="evenodd" clip-rule="evenodd" d="M11.3034 12.1867C11.3034 12.1867 10.8995 12.4948 10.7286 12.7305C10.5578 12.9662 10.4672 13.1213 10.2729 13.313C10.3185 13.3147 10.3641 13.3086 10.4076 13.2949C10.4076 13.2949 10.4076 13.3461 10.3765 13.3595C10.4034 13.3565 10.4306 13.3596 10.4561 13.3684C10.4816 13.3773 10.5048 13.3918 10.524 13.4107C10.467 13.4418 10.3117 13.5973 10.4334 13.7811C10.524 13.9209 10.7157 13.9337 10.7157 13.9337C10.7157 13.9337 10.6716 14.0606 10.8554 14.0477C11.2516 14.0296 11.6943 13.856 11.8987 13.9C12.1035 13.9512 12.2199 13.97 12.3648 14.2212C12.5184 14.4697 12.6522 14.5086 12.6522 14.5086C12.6522 14.5086 12.7428 14.2781 12.7222 13.9338C12.7965 13.7483 12.8377 13.5511 12.8439 13.3514L12.7092 12.3598L12.1216 11.6167L11.3604 12.0388L11.3034 12.1862V12.1867Z" fill="#E3C571"/>
<path fill-rule="evenodd" clip-rule="evenodd" d="M12.0259 12.0391C12.0259 12.0391 12.0829 12.1737 12.3211 12.1865C12.2952 12.2435 12.2952 12.2514 12.303 12.2952C12.3082 12.3393 12.3158 12.4039 12.3158 12.4039C12.3421 12.3912 12.3658 12.3739 12.3858 12.3527C12.3988 12.4097 12.3728 12.5002 12.3858 12.565C12.3938 12.6045 12.4068 12.6427 12.4246 12.6789C12.4283 12.67 12.4327 12.6614 12.4375 12.6531C12.4426 12.6401 12.4887 12.7929 12.6162 12.9091C12.6161 12.8912 12.6205 12.8736 12.629 12.8579C12.631 12.8904 12.6417 12.9217 12.6601 12.9485C12.6505 12.944 12.6418 12.9379 12.6343 12.9304C12.6343 12.9304 12.6471 13.34 12.7171 13.5518C12.7288 13.5382 12.7392 13.5234 12.7481 13.5078C12.7481 13.495 12.743 13.6218 12.73 13.7126C12.712 13.8032 12.7249 13.93 12.7249 13.93C12.7716 13.8933 12.8229 13.8628 12.8775 13.8394C12.9552 13.8082 13.0823 13.7124 13.1598 13.5001C13.2047 13.3799 13.2394 13.2561 13.2634 13.13C13.2884 13.1781 13.3057 13.23 13.3146 13.2836C13.3199 13.3482 13.4416 13.3146 13.4416 13.3146L13.4675 13.0323L13.6211 12.3928L13.7609 11.9967L14.434 10.9483L15.6502 10.0117L16.7117 10.2551L17.6074 9.03822L16.0644 8.11133L14.6041 8.26407L13.2789 10.0996L12.2175 11.7644L12.0259 12.0389V12.0391Z" fill="#D8B65B"/>
<path fill-rule="evenodd" clip-rule="evenodd" d="M19.6739 9.38286C19.6739 9.38286 19.5833 9.40095 19.3219 9.53646C19.0604 9.67197 18.8791 9.71498 18.7781 9.91432C18.6771 10.1137 18.6694 10.2717 18.6694 10.2717C18.6694 10.2717 18.8481 10.194 18.9517 10.1681C19.0604 10.1423 19.1821 10.15 19.1691 10.194C19.1567 10.2242 19.1394 10.2522 19.1179 10.2768C19.1179 10.2768 19.3227 10.2717 19.3172 10.3727C19.3118 10.4738 19.2785 10.585 19.2398 10.6342C19.2008 10.6854 19.0404 10.7612 19.0223 10.8207C18.9783 10.9424 19.0404 10.9475 19.017 11.0458C18.9989 11.1418 18.9136 11.3281 18.6339 11.6543C18.3465 11.9806 18.2243 12.211 18.2243 12.211C18.2243 12.211 18.0845 11.9495 18.012 11.7242C17.9608 11.75 17.6858 11.9028 17.6858 11.9028L17.0489 9.68408L17.0617 9.53646C17.0617 9.53646 17.1187 9.46665 17.1317 9.33712C17.0359 9.30606 17.023 9.28011 16.896 9.1586C16.769 9.03708 16.6656 8.88929 16.4534 8.78825C16.4224 8.73125 16.3835 8.65376 16.2282 8.62253C16.0729 8.5913 15.9797 8.5657 15.9797 8.5657C15.9797 8.5657 16.0624 8.53447 16.1014 8.46979C16.0054 8.48276 15.928 8.51382 15.7182 8.5087C15.5059 8.50341 15.4825 8.49573 15.3661 8.51382C15.2497 8.53191 15.1101 8.58379 15.0581 8.4051C15.0011 8.36107 14.8794 8.39998 14.7758 8.55256C14.6722 8.70514 14.636 8.82699 14.4367 8.88656C14.4226 8.97442 14.3919 9.05878 14.346 9.13505C14.289 9.23096 14.1984 9.32671 14.0767 9.46904C13.8851 9.69433 13.9161 10.0645 13.6106 10.3468C13.3026 10.6289 13.6618 9.56479 13.6618 9.56479L14.1537 8.38718L15.5544 7.01757L17.7292 6.87012L17.9415 7.99652L19.003 8.36158L19.6736 9.38422L19.6739 9.38286Z" fill="#D3AE4D"/>
<path fill-rule="evenodd" clip-rule="evenodd" d="M20.0186 9.63112L19.1047 8.31341L18.4652 7.82139C18.4652 7.82139 18.0095 6.98274 17.9785 6.9568C17.9525 6.93871 17.5228 6.89211 17.2484 6.87402L17.2996 7.00083C17.3595 7.02028 17.4127 7.05618 17.4532 7.10442C17.5749 7.2442 17.6525 7.50822 17.3755 7.7905C17.4842 7.82924 17.5291 7.84169 17.624 7.82924C17.5283 7.94324 17.3108 8.18661 17.2979 8.39892C17.2849 8.57231 17.3936 8.62402 17.3936 8.62402C17.3936 8.62402 17.2279 8.81568 17.2202 9.13602C17.2985 9.04777 17.3841 8.96635 17.4762 8.89265C17.6679 8.73905 17.9319 8.56634 18.1106 8.45763C18.1081 8.50325 18.1143 8.54892 18.1287 8.59228C18.1287 8.59228 18.4625 8.31785 18.743 8.43954C18.8698 8.49654 18.8128 8.67522 18.8128 8.67522C18.8128 8.67522 18.9864 8.61054 19.1081 8.73223C19.2298 8.85391 19.4032 9.16708 19.4912 9.28894C19.53 9.34594 19.631 9.45465 19.7344 9.62276C19.8758 9.85839 19.9937 10.1073 20.0867 10.3658C20.0918 10.2622 20.1126 10.1173 20.2915 10.1173L20.0196 9.63061L20.0186 9.63112Z" fill="#CAA13E"/>
<path fill-rule="evenodd" clip-rule="evenodd" d="M6.31732 13.3747C6.31732 13.3747 6.25264 13.2142 6.31732 12.901C6.38201 12.5878 6.48304 12.4402 6.51666 11.9794C6.55028 11.5186 6.85066 10.9438 6.85066 10.9438L7.68165 10.5659L8.26943 10.7263L8.44283 11.5135L7.69974 11.9231C7.69974 11.9231 7.66099 12.0965 7.45124 12.2362C7.24149 12.376 6.95153 12.4847 6.88172 12.6272C6.83999 12.7145 6.80954 12.8067 6.7911 12.9017C6.7911 12.9017 6.57879 12.8576 6.45198 12.9974C6.31732 13.1399 6.32244 13.2667 6.31732 13.3754V13.3747Z" fill="#F4EFC8"/>
<path fill-rule="evenodd" clip-rule="evenodd" d="M7.99515 13.1653C7.99515 13.1653 7.92518 13.2093 7.87346 13.3189C7.82226 13.2361 7.6999 12.7441 7.69478 12.3014C7.68966 11.8587 7.6632 11.7489 7.7656 11.5964C7.868 11.4438 8.26958 11.283 8.21258 11.0082C8.15557 10.7468 7.91732 10.6381 7.6248 10.7132C7.42 10.7644 7.2676 11.1999 7.05529 11.4173C6.89469 11.583 6.7032 11.5571 6.65149 11.6477C6.58152 11.7694 6.6462 11.8911 6.62555 11.9687C6.62026 11.9947 6.55557 12.1345 6.43901 12.3027C6.20349 12.6419 5.80481 13.1209 5.75293 13.5506C5.77102 13.3073 5.75822 13.3022 5.8229 13.0328L5.78399 12.9682L6.03999 12.1293L6.20571 11.4381L6.57605 10.2807L7.22834 9.09764L7.86271 8.38818L8.52285 8.43222L8.6005 9.42378L8.97853 11.2854L9.77332 12.264L8.49947 13.1213L7.99464 13.1653H7.99515Z" fill="#EBCC73"/>
<path fill-rule="evenodd" clip-rule="evenodd" d="M8.39134 13.5168C8.39134 13.5168 8.28262 13.5427 8.24371 13.5221C8.2048 13.5014 8.16623 13.478 8.17903 13.4521C8.19183 13.4262 8.2618 13.3823 8.2618 13.3615C8.26324 13.3427 8.25729 13.324 8.24521 13.3095C8.23313 13.295 8.21588 13.2858 8.19712 13.2838C8.13756 13.2761 8.11947 13.3149 8.11947 13.3149C8.11947 13.3149 8.06246 13.271 8.01604 13.2637C8.04351 13.2603 8.07114 13.2585 8.09881 13.2584C8.02727 13.226 7.95138 13.2042 7.87354 13.1937C7.93822 13.155 8.06519 13.041 8.14797 13.041C8.23074 13.041 8.28262 13.0282 8.26965 12.9841C8.25668 12.9401 8.192 12.8754 8.1222 12.8495C8.14797 12.8184 8.16623 12.7718 8.10411 12.6447C8.03925 12.5179 8.06519 12.4323 8.08601 12.4015C8.10411 12.3625 8.16879 12.2927 8.19985 12.2487C8.23091 12.2047 8.25685 12.1451 8.30856 12.114C8.33451 12.096 8.41728 12.0628 8.50022 12.0313C8.59085 12.0002 8.66594 11.9613 8.71765 12.0002C8.77465 12.039 8.74871 12.0908 8.74871 12.0908C8.74871 12.0908 8.9274 12.026 9.08783 12.1089C9.24842 12.1864 9.63942 12.2357 9.63942 12.2357L9.77954 12.518L8.85265 13.3128L8.4695 13.5045L8.39185 13.5173L8.39134 13.5168Z" fill="#E5C66B"/>
<path fill-rule="evenodd" clip-rule="evenodd" d="M9.6779 12.2175C9.6779 12.2175 9.3905 12.4091 9.32582 12.4789C9.36456 12.4842 9.42924 12.5102 9.4033 12.5489C9.37224 12.5877 9.18587 12.7223 9.08228 12.8493C8.97356 12.9761 8.86997 13.1367 8.83379 13.2143C8.79504 13.2841 8.49979 13.4888 8.39893 13.5145C8.61124 13.5145 9.03841 13.2531 9.19884 13.2531C9.19372 13.3307 9.24287 13.4188 9.3335 13.4265C9.42412 13.4342 9.68558 13.4835 10.0377 13.2661C10.3898 13.0537 10.2734 12.8957 10.4208 12.7923C10.7031 12.6057 10.8169 12.44 10.9722 12.3366C11.1275 12.2332 11.2079 12.2096 11.2079 12.2096C11.2079 12.2096 11.213 12.132 11.2591 12.1398C11.2717 12.1413 11.2837 12.1461 11.2938 12.1539C11.3038 12.1617 11.3115 12.172 11.3161 12.1839C11.3161 12.1839 11.5854 11.9922 11.9305 11.9405C11.9225 11.9369 11.916 11.9304 11.9124 11.9224C11.9124 11.9224 11.9382 11.9094 11.9435 11.8965C11.9435 11.8965 11.9616 11.8705 11.9746 11.8835C11.9875 11.8965 12.0056 11.9922 12.0316 12.0311C12.0886 12.0052 12.1973 11.7618 12.1973 11.7618L12.4589 11.0136V10.3301L12.2541 10.369L10.7181 11.0213L9.78593 11.9871L9.67722 12.2175H9.6779Z" fill="#E6BD62"/>
<path fill-rule="evenodd" clip-rule="evenodd" d="M14.0994 8.86482C14.1825 8.84466 14.2621 8.81234 14.3357 8.7689C14.3047 8.85185 14.3047 8.94247 14.17 9.13925C14.0354 9.33603 14.0303 9.36454 13.9215 9.569C13.8128 9.78131 13.7999 10.0868 13.6963 10.2213C13.7427 10.1987 13.7925 10.1839 13.8437 10.1774C13.8437 10.1774 13.7403 10.2681 13.6963 10.3638C13.6522 10.4595 13.5746 10.6589 13.3831 10.7807C13.1916 10.9026 12.9481 10.9801 12.6866 11.2675C12.425 11.5496 12.1558 11.907 12.021 12.0355C12.091 11.9138 12.1867 11.6704 12.2127 11.51C12.2386 11.3496 12.2074 11.1577 12.2514 10.9456C12.2954 10.7335 12.2954 10.5805 12.5074 10.2102C12.7194 9.83985 13.0822 8.55318 13.0822 8.55318L13.864 8.30469L14.0997 8.86397L14.0994 8.86482Z" fill="#B6933F"/>
<path fill-rule="evenodd" clip-rule="evenodd" d="M13.5354 8.39094C13.5354 8.39094 13.2999 8.73005 13.2352 9.03043C13.1706 9.3308 13.2299 9.30486 13.1912 9.45249C13.168 9.5425 13.168 9.63691 13.1912 9.72692C13.2728 9.59551 13.3845 9.48541 13.517 9.40572C13.7397 9.27124 13.921 9.17532 14.029 9.06149C14.1377 8.9398 14.2283 8.74047 14.4639 8.58772C14.3681 8.57475 14.2335 8.53072 14.2079 8.53652C14.3038 8.4278 14.591 8.26209 14.881 8.06275C15.1684 7.85795 15.1503 7.77534 15.6164 7.57089C15.4636 7.59683 15.3911 7.55792 15.2641 7.57089C15.3153 7.46217 15.4945 7.41029 15.6737 7.23177C15.8529 7.05325 15.5599 6.78906 15.5599 6.78906L14.1946 7.61492L13.5344 8.39162L13.5354 8.39094Z" fill="#C49937"/>
<path fill-rule="evenodd" clip-rule="evenodd" d="M9.83057 7.77467L9.86163 7.52618L10.2526 6.89966L10.6617 5.79937V4.29512L10.6307 3.42523L10.6953 2.85554L10.7445 2.67447L10.7964 2.60449L11.1302 2.77789L11.5912 3.40441L11.6352 4.61358L11.1872 6.52163L9.90822 7.91717L9.83057 7.77467V7.77467Z" fill="#DFC068"/>
<path fill-rule="evenodd" clip-rule="evenodd" d="M10.8479 2.53474C10.8479 2.53474 10.6431 2.54003 10.5994 3.39183C10.5557 4.24362 10.5346 4.69145 10.5035 5.11351C10.4725 5.53557 10.4001 5.79174 10.3637 6.0404C10.3274 6.28906 10.3067 6.62801 10.1904 6.8352C10.1392 6.93094 10.0298 7.23131 9.77341 7.45659C9.48601 7.70508 9.05662 7.87865 8.9916 7.89162C8.87759 7.91739 8.30023 7.9744 8.06471 8.10393C7.98194 8.14796 7.83943 8.19968 7.68157 8.3473C7.36822 8.62941 6.95146 9.13425 6.65109 9.74267C6.19029 10.6515 5.72949 13.2171 5.72949 13.2171L5.83309 13.0437C5.83309 13.0437 5.84606 12.8133 6.07646 12.4093C6.30173 12.0055 6.23705 11.5524 6.55022 10.7783C6.67191 10.4832 6.82465 10.1 7.01102 9.77373C7.30627 9.24296 7.66348 8.78728 8.02341 8.53879C8.61101 8.13499 9.25835 8.04693 9.25835 8.04693L9.95483 7.58613C9.95483 7.58613 10.0765 7.35061 10.2371 7.0813C10.4622 6.70344 10.7491 6.28138 10.8117 5.66784C10.9077 4.75904 10.6771 4.16358 10.6901 3.62513C10.703 3.08667 10.7082 2.69056 10.817 2.59464C10.9259 2.49873 10.8481 2.53508 10.8481 2.53508L10.8479 2.53474Z" fill="#A88F33"/>
<path fill-rule="evenodd" clip-rule="evenodd" d="M10.848 6.59911C10.848 6.59911 11.1552 5.84306 11.2958 5.17251C11.3218 5.03785 11.3735 4.90337 11.3865 4.79465C11.4511 4.16028 11.4692 3.89882 11.3865 3.55186C11.3218 3.29586 11.0733 3.06512 10.9437 2.88626C10.8169 2.69972 10.7574 2.63026 10.7833 2.591C10.8093 2.55175 10.9101 2.48758 11.0084 2.49526C11.1129 2.4983 11.2157 2.52256 11.3105 2.56657C11.4054 2.61058 11.4902 2.67342 11.56 2.75126C11.7594 2.98166 11.9172 3.76365 11.9172 3.76365L12.0833 4.79551L12.5054 6.09513L10.8483 6.60013L10.848 6.59911Z" fill="#C99E3D"/>
<path fill-rule="evenodd" clip-rule="evenodd" d="M13.7345 5.81248C13.7345 5.81248 13.6775 5.83825 13.5741 5.81248C13.5785 5.85474 13.5712 5.8974 13.5529 5.93577C13.5346 5.97413 13.5061 6.0067 13.4705 6.0299C13.3618 5.98587 12.3441 6.07394 12.3441 6.07394C12.3441 6.07394 11.8703 5.99099 11.7227 5.36448C11.6193 4.94754 11.8004 4.3729 11.7408 3.99488C11.6502 3.43816 11.5234 3.32928 11.5104 3.15605C11.4974 2.98282 11.4845 2.93862 11.4845 2.8299C11.4275 2.81693 11.3938 2.79884 11.337 2.79884C11.324 2.74764 11.3498 2.70293 11.293 2.6123C11.324 2.62528 11.5363 2.65122 11.7848 2.88674C11.9896 3.0784 11.9896 3.1482 12.0205 3.18711C12.0593 3.22585 12.3726 3.49431 12.5073 3.76192C12.6419 4.02952 12.9034 4.88285 12.9629 5.02263C12.981 5.07963 13.0199 5.13664 13.1165 5.266C13.2667 5.45254 13.4867 5.76093 13.7352 5.81213L13.7345 5.81248Z" fill="#B58634"/>
<path fill-rule="evenodd" clip-rule="evenodd" d="M12.0571 3.2002C12.214 3.45355 12.3549 3.71643 12.479 3.98731C12.6318 4.33154 12.7224 4.61383 12.914 4.84423C12.8105 4.54402 12.6266 3.95369 12.5179 3.74394C12.3962 3.52207 12.1478 3.28314 12.0571 3.20037V3.2002Z" fill="#A88F33"/>
<path fill-rule="evenodd" clip-rule="evenodd" d="M10.2964 7.45623C10.2964 7.45623 10.035 7.52091 9.54823 7.77725C9.38763 7.86002 9.23505 7.92983 9.08742 7.99468C8.70393 8.16808 8.29262 8.32833 7.96631 8.41674C7.99225 8.4478 8.00505 8.4606 8.00505 8.4606C8.00505 8.4606 8.00505 8.58757 8.07502 8.65994C8.03628 8.69885 7.51831 9.05093 7.67122 10.2289C7.77465 10.1901 7.89633 10.1383 7.91442 10.1383C7.94566 10.1435 7.95334 10.2289 7.99208 10.2289C8.03082 10.2289 8.1578 10.1777 8.29245 10.0036C8.28733 10.0736 8.20968 10.7777 8.62645 11.2515C8.7041 11.1609 8.90088 10.8605 8.90088 10.8605L8.906 10.7648C8.906 10.7648 8.92409 10.4308 9.03298 10.1253C9.14187 9.81979 9.35401 9.59451 9.35401 9.59451L10.4618 8.0126L10.2961 7.45605L10.2964 7.45623Z" fill="#E6C367"/>
<path fill-rule="evenodd" clip-rule="evenodd" d="M9.26115 9.77897C9.21043 9.81481 9.15455 9.84272 9.09543 9.86174C9.07734 9.79706 9.0514 9.57434 9.20415 9.35691C9.38284 9.09528 9.77366 8.75617 9.88238 8.48652C9.95235 8.31295 9.92129 7.8781 10.5427 7.32138C11.1641 6.76467 11.4073 6.57319 11.4073 6.57319L12.4118 6.06836L13.6468 6.5551L13.0332 8.95977L12.5569 10.0862L10.6625 9.72896L9.26098 9.77897H9.26115Z" fill="#DCBA5A"/>
<path fill-rule="evenodd" clip-rule="evenodd" d="M9.98389 9.1259L10.2196 8.83082V8.62107C10.2196 8.62107 10.481 8.5511 10.7632 8.2637C11.0453 7.9763 11.4363 7.42488 11.7807 7.4585C12.1251 7.49741 12.1587 8.2067 12.1717 8.4062C12.1846 8.60571 12.2287 9.05849 12.2985 9.30203C12.3761 9.5454 11.4597 10.467 11.4597 10.467L10.8372 10.9408L9.98389 9.1259Z" fill="#E9CE77"/>
<path fill-rule="evenodd" clip-rule="evenodd" d="M10.7134 11.5832C10.7134 11.5832 10.905 11.2828 10.7646 11.2182C10.8473 11.0318 11.0001 10.835 11.0001 10.835C11.0001 10.835 11.1088 10.5659 11.4609 10.2344C11.813 9.903 12.0306 9.68284 12.0876 9.46029C12.1227 9.31525 12.1418 9.16679 12.1446 9.01758C12.1826 9.04867 12.2233 9.07637 12.2662 9.10035C12.3232 9.12629 12.5924 9.34884 12.5536 9.79684C12.5149 10.2448 12.3488 10.4312 12.3488 10.4312C12.3488 10.4312 12.1884 10.5916 12.0746 10.6746C11.9527 10.7574 11.9089 10.8531 11.7042 10.8609C11.7253 10.8442 11.7489 10.8311 11.7742 10.822C11.7742 10.822 11.5619 10.7963 11.4479 10.8997C11.3339 11.0031 11.0916 11.3217 10.9699 11.4177C10.8482 11.4953 10.7139 11.5834 10.7139 11.5834L10.7134 11.5832Z" fill="#CDAE50"/>
<path fill-rule="evenodd" clip-rule="evenodd" d="M19.3217 6.54752C19.0158 6.43604 18.6943 6.37316 18.369 6.36115C17.8253 6.34306 17.0305 6.37412 16.2512 6.37924C15.4124 6.38436 14.6512 6.09184 13.595 6.04013C13.4216 5.93653 12.9806 5.48341 11.604 6.44393C11.6868 6.43881 12.6034 6.23162 12.9217 6.63047C13.2427 7.02659 13.1521 7.6997 13.1082 7.86013C13.0253 8.21751 12.756 8.73787 12.6475 9.10293C12.5389 9.46799 12.5645 9.65982 12.4869 9.91582C12.4092 10.1718 12.2384 10.299 12.3392 10.5941C12.4739 10.5113 12.544 10.5113 12.769 10.0064C12.9939 9.50161 12.9477 9.14167 13.3206 8.71449C13.6856 8.28475 14.2933 7.69697 14.5244 7.54934C14.7555 7.40172 16.5903 6.44905 18.5115 7.35785C18.9749 7.3087 19.3218 6.54735 19.3218 6.54735L19.3217 6.54752Z" fill="#D2A83E"/>
<path fill-rule="evenodd" clip-rule="evenodd" d="M12.3782 6.19523C12.3763 6.17577 12.372 6.15663 12.3654 6.13823C12.3475 6.10036 12.3239 6.06544 12.2955 6.03463C12.2955 6.03463 11.8398 5.95186 11.6094 5.97763C11.2054 6.02166 10.8404 6.52137 10.6695 6.77771C10.4987 7.03405 10.2864 7.42999 10.056 7.63462C10.0585 7.61468 10.0539 7.5945 10.043 7.57762C10.043 7.57762 10.056 7.59571 10.0302 7.62165C10.0045 7.64759 10.0043 7.66039 10.0173 7.67285L10.0562 7.71159C10.069 7.71159 10.4263 7.55099 10.9131 7.09719C11.4309 6.62343 11.827 6.3804 12.0342 6.29711C12.1447 6.25016 12.2602 6.21598 12.3784 6.19523H12.3782Z" fill="#C29637"/>
<path fill-rule="evenodd" clip-rule="evenodd" d="M21.2167 4.24854C21.2167 4.24854 21.1338 4.35196 21.0302 4.46597C20.7998 4.70934 20.4994 4.9836 20.2431 5.26588C19.9999 5.5352 19.7254 5.74495 19.4172 6.09703C19.109 6.44912 18.7516 6.83995 18.6612 6.95395C18.5784 7.06796 18.5137 7.25433 18.5137 7.35007C18.4697 7.31901 18.418 7.28539 18.418 7.28539C18.4397 7.32604 18.4658 7.36425 18.4956 7.3994C18.5603 7.49002 18.6612 7.6042 18.7131 7.67383C18.7767 7.76247 18.8224 7.86272 18.8475 7.96891C18.8786 7.97403 19.0779 8.01295 19.3266 7.60386C19.5753 7.19477 19.9012 6.74693 19.9012 6.74693L20.419 5.97791L20.7454 5.32562L21.155 4.5955L21.2172 4.24854H21.2167Z" fill="#AC8132"/>
<path fill-rule="evenodd" clip-rule="evenodd" d="M21.7479 3.72607C21.7479 3.72607 21.4346 3.98208 21.3129 4.13568C21.1912 4.28928 20.9033 4.6924 20.9033 4.6924L21.0069 4.67943L21.5326 4.21351L21.7374 3.84844L21.7478 3.72676L21.7479 3.72607Z" fill="#A88F33"/>
<path fill-rule="evenodd" clip-rule="evenodd" d="M21.6518 24.3002C21.6518 24.3002 21.6466 24.0879 21.7658 23.9611C21.8874 23.8341 22.1955 23.6477 22.4959 22.9487C22.7962 22.2496 22.8297 22.0918 22.8297 22.0918C22.8297 22.0918 22.2912 22.5526 21.9593 22.6613C22.037 22.5007 22.081 22.3868 22.1199 22.3039C22.0759 22.2652 21.8895 22.2211 21.8714 22.2005C21.9748 22.0969 22.0318 21.8431 22.2416 21.6748C22.5109 21.47 23.0028 21.1181 23.385 20.8044C23.7673 20.4907 24.519 19.7611 24.6149 19.5488C24.6719 19.6316 24.6847 19.6833 24.6847 19.6833C24.6847 19.6833 24.3068 20.1753 24.11 20.4885C23.9365 20.7578 23.9494 20.9106 23.9494 20.9106L24.3068 20.757C24.3068 20.757 24.4102 21.1401 23.9418 21.7228C24.1466 21.6451 24.2292 21.6917 24.3456 21.6269C24.1539 21.7487 23.8899 21.9144 23.6414 22.3699C23.398 22.8256 23.0666 23.3564 22.5075 23.6877C21.9637 24.0372 21.6504 24.2987 21.6504 24.2987L21.6518 24.3002Z" fill="#A67A2E"/>
<path fill-rule="evenodd" clip-rule="evenodd" d="M20.2485 6.81687C20.2485 6.81687 20.0361 7.2594 20.0051 7.6038C20 7.68675 19.9791 7.75143 19.9791 7.84717C19.974 8.15522 19.9972 8.49963 19.9279 8.66005C19.902 8.59537 19.889 8.55134 19.8631 8.52557C19.8243 8.63428 19.7544 8.97339 19.6974 9.1002C19.6716 9.01742 19.6146 8.73002 19.6199 8.39091C19.6252 8.0518 19.6327 7.98695 19.6327 7.91715C19.6199 8.02057 19.5499 8.16051 19.5239 8.24329C19.4852 8.17348 19.4412 8.08286 19.3893 8.00777C19.3582 8.05897 19.3195 8.13457 19.2859 8.17349C19.2806 8.14242 19.2678 8.05948 19.2599 7.94309C19.2548 7.80843 19.2469 7.63504 19.2548 7.59868C19.2676 7.52888 19.3765 7.25445 19.6069 7.00323C19.8813 6.70286 20.1636 6.12567 20.2464 5.94698C20.3292 5.7683 20.6813 5.02539 20.6813 5.02539H20.9506L20.5596 5.91592C20.5596 5.91592 20.3241 6.40266 20.2024 6.58152C20.0807 6.76038 19.8243 7.27288 19.7103 7.47222C19.7931 7.36351 19.8631 7.3065 19.946 7.20291C20.0262 7.13038 20.2488 6.81721 20.2488 6.81721L20.2485 6.81687Z" fill="#8C6228"/>
<path fill-rule="evenodd" clip-rule="evenodd" d="M21.7531 3.69189C21.7091 3.82729 21.6396 3.953 21.5483 4.06224C21.3877 4.2539 21.0433 4.51007 20.8752 4.71453C20.7216 4.91387 20.4144 5.45761 20.554 6.10222C20.6052 5.96244 20.7016 5.68545 20.958 5.37211C21.2143 5.05876 21.4887 4.699 21.6236 4.41945C21.758 4.13716 21.7761 3.91461 21.7761 3.91461L21.8273 3.84993L21.7963 3.7023L21.7522 3.69189H21.7531Z" fill="#CBA94C"/>
<path fill-rule="evenodd" clip-rule="evenodd" d="M26.996 20.8646C26.996 20.8646 26.8924 20.5825 26.8613 20.3262C26.8303 20.0698 26.9125 20.019 26.8173 19.7256C26.7603 19.5469 26.6569 19.572 26.6309 19.5469C26.605 19.5218 26.5869 19.2518 26.592 19.1042C26.5972 18.9566 26.5869 18.7651 26.561 18.6822C26.5222 18.6511 26.4963 18.6252 26.4393 18.4337C26.3746 18.242 26.3435 18.1463 26.3125 18.0894C26.2814 18.0326 26.1906 17.9807 26.1906 17.9237C26.1906 17.8097 26.2942 17.7503 26.2942 17.7189C26.2891 17.6542 26.2114 17.7061 26.1906 17.6879C26.1648 17.6568 26.2555 17.4704 26.2219 17.4445C26.2089 17.4317 26.1183 17.5404 26.0949 17.5093C26.0689 17.4781 26.0379 17.17 25.9913 16.9656C25.9474 16.7663 25.9007 16.6214 25.8955 16.5618C25.8904 16.5048 25.5382 15.5002 25.4528 15.2569C25.3841 15.0512 25.3262 14.8421 25.2794 14.6304C25.2535 14.5087 25.2354 14.26 25.2224 14.286C25.2095 14.3119 25.2173 14.4387 25.1965 14.4336C25.1784 14.4283 25.1137 13.9857 25.0931 13.9158C25.075 13.8458 24.9661 13.6086 24.9395 13.4369C24.9135 13.2633 24.8567 12.8102 24.8178 12.5021C24.7789 12.1941 24.7608 12.0673 24.7608 11.9901C24.7671 11.8015 24.7567 11.6126 24.7297 11.4257C24.6785 11.0994 24.5761 10.7033 24.4863 10.4731C24.3129 10.0381 23.852 8.9248 23.7695 8.64781C23.7695 8.57783 23.8602 8.61675 23.8602 8.61675C23.8602 8.61675 24.0853 9.18114 24.251 9.616C24.4116 10.051 24.5643 10.4342 24.6032 10.4731C24.6343 10.5118 24.8777 10.939 24.9864 11.6381C25.0951 12.3371 25.1338 12.9817 25.1987 13.4115C25.2298 13.6163 25.2557 13.8335 25.3204 14.0509C25.3902 14.2866 25.4989 14.53 25.6414 14.9027C25.7631 15.2161 25.8537 15.4775 25.9029 15.7028C25.9599 15.9902 25.9599 16.2077 25.9935 16.3502C26.0247 16.4719 26.0712 16.7151 26.18 17.067C26.2889 17.4189 26.4492 17.8722 26.5579 18.1543C26.7704 18.7187 26.8651 19.1899 26.8972 19.4411C26.9255 19.7 27.0214 20.5958 26.9955 20.865L26.996 20.8646Z" fill="#A88F33"/>
<path fill-rule="evenodd" clip-rule="evenodd" d="M21.7658 3.66085L21.7528 3.69192C21.7528 3.69192 21.7915 3.70489 21.7839 3.75677C21.7844 3.82775 21.7801 3.89869 21.7709 3.96908C21.7581 4.0597 21.7322 4.12951 21.727 4.18651C21.727 4.3082 21.7451 4.44797 21.5734 4.79494C21.5222 4.89068 21.4907 4.97346 21.4647 5.03046C21.4 5.17024 21.3871 5.19106 21.3301 5.25574C21.4207 5.20454 21.747 4.99974 21.9125 5.03046C21.7987 5.09514 21.6252 5.22212 21.5164 5.38784C21.5424 5.39296 21.6511 5.41378 21.8236 5.38784C22.111 5.34381 22.432 5.24021 22.7141 5.26086C23.0224 5.27895 22.9007 4.89068 22.9007 4.89068L22.545 4.10886L21.8719 3.63525L21.7658 3.66102V3.66085Z" fill="#BE9C44"/>
<path fill-rule="evenodd" clip-rule="evenodd" d="M23.5208 9.51699C23.5208 9.51699 23.2204 9.21662 23.0988 8.18579C22.9771 7.15018 23.003 5.62579 23.003 5.62579L22.7596 5.03033C22.7596 5.03033 22.7084 4.63422 22.581 4.48676C22.4535 4.33931 22.2031 4.09064 22.0891 3.96896C21.9751 3.84727 21.8457 3.68156 21.7681 3.65561C21.8068 3.59093 21.9804 3.22588 22.6456 3.22076C23.3109 3.21564 23.516 3.58581 23.5855 3.72047C23.655 3.85512 23.9686 4.43727 24.085 5.5466C24.1938 6.65457 24.199 6.73751 24.181 7.12066C24.168 7.33297 24.098 7.82483 23.9762 8.35031C23.8649 8.79575 23.7432 9.29291 23.5205 9.51801L23.5208 9.51699Z" fill="#A17C34"/>
<path fill-rule="evenodd" clip-rule="evenodd" d="M22.5792 10.3997C22.6793 10.4069 22.7793 10.3844 22.8666 10.3349C22.9624 10.3297 23.3094 10.3738 23.576 10.0347C23.5941 10.1122 23.6408 10.3221 23.519 10.5084C23.5838 10.4436 23.6796 10.4178 23.6925 10.3997C23.6977 10.4955 23.7883 10.7905 23.4051 11.5077C23.5086 11.3938 23.6302 11.399 23.739 11.386C23.7443 11.5207 23.8166 11.9736 23.6251 12.2171C23.4983 12.3829 23.2911 12.331 23.2911 12.331C23.2941 12.2948 23.2941 12.2584 23.2911 12.2223C23.286 12.1523 23.2601 12.0825 23.2783 12.0359C23.1782 11.9902 23.087 11.927 23.009 11.8494C22.7837 11.637 22.4912 11.2747 22.4705 11.0054C22.4446 10.705 22.7139 10.6404 22.7139 10.6404C22.6913 10.6202 22.6721 10.5966 22.6569 10.5704C22.6439 10.5265 22.6309 10.4566 22.5792 10.3997V10.3997Z" fill="#8C6228"/>
<path fill-rule="evenodd" clip-rule="evenodd" d="M20.5823 7.1431C20.5823 7.1431 20.5693 7.12501 20.4995 7.20778C20.5125 7.12501 20.5255 7.04718 20.5306 6.97209C20.5636 6.90257 20.6064 6.83809 20.6575 6.7806C20.6186 6.85808 20.5927 6.92806 20.5927 6.92806C20.5927 6.92806 20.6886 6.74937 20.8284 6.64066C20.9241 6.563 21.0458 6.52682 21.0975 6.45429C21.1545 6.37663 21.1415 6.36366 21.1545 6.35069C21.1545 6.35069 21.2815 6.26792 21.4757 6.02438C21.5015 5.99332 21.5404 5.9597 21.5663 5.92863C21.6102 5.91054 21.7138 5.86395 21.8355 5.80166C21.9624 5.73186 22.1048 5.63611 22.1928 5.59686C22.3662 5.5192 22.5502 5.52706 22.6355 5.4052C22.7002 5.38711 22.77 5.19289 22.7572 5.02734C22.853 5.06609 23.3448 5.37158 23.5133 6.03957C23.6349 6.51334 23.4173 7.24345 23.3267 7.59571C23.2361 7.94796 23.2233 8.20925 23.0963 8.36968C22.9357 8.58216 22.4181 8.88168 22.2911 9.02999C22.1824 9.15167 21.8563 9.45973 21.8691 9.68228C21.8821 9.84799 22.0865 9.93828 22.1307 9.96968C22.1749 10.0011 22.1746 10.0397 22.2575 10.0209C22.3405 10.0021 22.3713 9.96388 22.4051 9.96388C22.4439 9.969 22.4439 9.97685 22.462 9.97685C22.4751 9.97646 22.4881 9.97468 22.5009 9.97156C22.5009 9.97156 22.4879 10.2072 21.9365 10.2788C21.8976 10.284 21.8588 10.2968 21.8095 10.3047C21.8744 10.2736 21.9131 10.2736 21.9831 10.1779C21.9054 10.1649 21.6827 10.152 21.6257 10.1339C21.6438 10.1028 21.7034 10.0199 21.7525 9.98111C21.7966 9.94237 21.7474 9.92991 21.7087 9.95005C21.642 9.99543 21.578 10.0447 21.517 10.0975C21.4523 10.1545 21.3953 10.2322 21.2917 10.3023C21.2607 10.1987 21.2658 10.0019 21.3876 9.8596C21.3564 9.86472 21.2969 9.95534 21.24 9.93725C21.2297 9.84282 21.2359 9.74732 21.2581 9.65497C21.2892 9.5384 21.4574 9.33395 21.4574 9.33395L22.2703 7.8814L22.4437 6.78111L20.5823 7.14276V7.1431Z" fill="#92723A"/>
<path fill-rule="evenodd" clip-rule="evenodd" d="M20.5386 7.20513C20.5386 7.20513 20.4946 7.23619 20.5827 7.29575C20.5697 7.31384 20.5386 7.37853 20.4997 7.42256C20.4558 7.47376 20.4091 7.5055 20.391 7.54953C20.3522 7.64016 20.3212 7.70228 20.3212 7.74119C20.3212 7.7801 20.3082 8.02859 20.1995 8.18902C20.1606 8.24602 20.1165 8.34177 20.0855 8.40645C20.0208 8.52029 19.9638 8.61125 19.9508 8.66245C19.925 8.75307 19.907 9.00157 19.907 9.00157C19.907 9.00157 19.964 8.93159 19.9846 8.90582C19.9534 8.9705 19.9198 9.04031 19.8706 9.09219C19.9017 9.06625 19.9923 9.00157 20.145 8.86691C20.3574 8.68839 20.6888 8.38802 21.0928 8.15011C20.9709 8.19414 20.8675 8.19414 20.7847 8.20711C20.8494 8.14243 21.4319 7.45891 21.7374 7.39423C21.756 7.37071 21.7652 7.34118 21.7634 7.31128L21.5017 7.28551L20.9709 7.39935L20.8935 6.98975L20.5386 7.20462V7.20513Z" fill="#B18E3E"/>
<path fill-rule="evenodd" clip-rule="evenodd" d="M21.3828 9.53556C21.3828 9.53556 21.3128 9.60536 21.2481 9.77893C21.1983 9.72693 21.1556 9.66856 21.1211 9.60536C21.0254 9.44493 20.8779 9.2403 20.5335 9.35687C20.5284 9.24815 20.5205 9.19115 20.5335 9.1135C20.5905 9.1007 20.7639 8.96092 20.9373 8.75629C21.0592 8.61652 21.173 8.45592 21.2507 8.25146C21.3019 8.21255 21.3904 8.14787 21.5067 8.07277C21.6724 7.95894 21.8717 7.80346 21.9028 7.63006C21.8251 7.66112 21.6594 7.73878 21.4107 7.72598C21.5067 7.68195 21.6541 7.63535 21.636 7.4437C21.6749 7.41775 21.706 7.39966 21.706 7.39966C21.6768 7.38993 21.6461 7.38554 21.6154 7.38669C21.6101 7.3686 21.6024 7.34283 21.5584 7.35563C21.5143 7.36843 21.5072 7.3686 21.5014 7.38669C21.4833 7.39198 21.4237 7.38669 21.3797 7.41792C21.3357 7.44916 21.214 7.55241 21.1674 7.5705C21.1855 7.53944 21.2112 7.49302 21.2112 7.49302C21.2112 7.49302 21.0844 7.50582 20.9938 7.54422C20.8281 7.60122 20.6366 7.70481 20.4424 7.80568C20.4605 7.77462 20.4683 7.75448 20.4811 7.74868C20.4939 7.74287 20.5252 7.73588 20.5252 7.73059C20.5252 7.7253 20.5124 7.67939 20.52 7.66078C20.5781 7.53777 20.6466 7.41998 20.7248 7.3087C20.8155 7.18684 20.8335 7.01344 20.8335 7.01344L21.2297 6.81411L22.3429 6.55811L23.0654 6.60214L22.9747 7.10185L22.5481 7.9743L22.183 8.76909L21.7661 9.256L21.3829 9.53556H21.3828Z" fill="#543E26"/>
<path fill-rule="evenodd" clip-rule="evenodd" d="M23.1875 7.37287C23.1875 7.37287 22.7524 7.91132 22.6308 7.99427C22.7084 7.82855 23.1875 6.8421 23.3609 6.56766C23.3221 6.5366 23.2703 6.5366 23.3919 6.05566C23.2885 6.29886 23.2522 6.42584 23.1668 6.49052C23.0815 6.55521 23.0709 6.53455 23.0132 6.53455C23.0241 6.51485 23.0286 6.49224 23.026 6.46987C23.026 6.46987 22.661 6.42584 22.4116 6.42584C22.1623 6.42584 21.6687 6.5605 21.3941 6.66921C21.1766 6.75983 21.055 6.75983 20.9773 6.81667C20.8996 6.88135 20.8556 6.95132 20.8167 6.96941C20.7856 6.9875 20.6382 7.0341 20.6044 7.08325C20.5733 7.13445 20.5216 7.19196 20.5216 7.20493C20.5216 7.2179 20.5086 7.23617 20.5475 7.22302C20.5603 7.2179 20.6563 7.16602 20.765 7.10134C20.9124 7.01857 21.0911 6.92282 21.2207 6.86582C21.5909 6.71819 21.7074 6.74413 21.873 6.71307C22.0464 6.68201 22.295 6.60948 22.4606 6.60948C22.6263 6.60436 22.9397 6.60948 23.0122 6.62245C22.9811 6.64839 22.9552 6.67945 22.9682 6.78817C22.9682 6.81923 22.9422 6.85285 22.917 6.92794C22.8395 7.14025 22.6919 7.49234 22.6098 7.67102C22.4959 7.91422 22.3666 8.11885 22.3026 8.24566C22.2386 8.37246 22.0977 8.70646 21.9583 8.88515C21.8189 9.06383 21.746 9.17255 21.7023 9.21146C21.6586 9.25037 21.3449 9.4806 21.3683 9.56355C21.4253 9.54546 21.7852 9.40995 22.0465 9.11572C22.3078 8.82149 22.3599 8.64195 22.5644 8.48135C22.7688 8.32075 22.9294 8.05161 23.0252 7.82906C23.1054 7.62187 23.0873 7.55719 23.1882 7.37338L23.1875 7.37287Z" fill="#806031"/>
<path fill-rule="evenodd" clip-rule="evenodd" d="M13.8121 11.3915C13.8121 11.3915 13.7551 11.627 13.6256 11.7436C13.4988 11.8576 13.2735 11.9559 13.2477 12.1475C13.2167 12.339 13.473 12.4349 13.473 12.4349C13.473 12.4349 13.3331 12.6653 13.3331 12.8387C13.3331 13.0174 13.3279 13.0511 13.346 13.2219C13.3255 13.2351 13.308 13.2526 13.2948 13.2731C13.2948 13.2731 13.3076 13.4388 13.4346 13.5422C13.5616 13.6457 13.6701 13.7079 13.7348 13.682C13.7447 13.7031 13.7534 13.7248 13.7608 13.7469C13.7608 13.7469 13.8567 13.5035 13.9214 13.2912C13.986 13.0738 14.0431 13.1046 14.0688 12.8121C14.0946 12.5196 14.376 12.0173 14.376 12.0173L14.568 11.5881L14.2549 11.3447L13.8121 11.3913V11.3915Z" fill="#B6903C"/>
<path fill-rule="evenodd" clip-rule="evenodd" d="M14.395 11.8135C14.3304 11.8798 14.2708 11.9507 14.2167 12.0258C14.1339 12.1398 14.0692 12.2432 13.9475 12.2874C13.8259 12.3316 13.7482 12.3313 13.7559 12.4531C13.7636 12.575 13.8776 12.6265 13.9423 12.6887C14.0122 12.7533 14.0692 12.8621 14.0382 12.9839C14.0769 12.9658 14.1469 12.945 14.2116 12.8052C14.2762 12.6654 14.7287 11.8136 14.7287 11.8136H14.395V11.8135Z" fill="#685026"/>
<path fill-rule="evenodd" clip-rule="evenodd" d="M16.1792 9.84851C16.1792 9.84851 16.2179 9.74509 16.1792 9.67C16.1402 9.59234 15.9047 9.5664 15.7882 9.47834C15.6665 9.38771 15.5188 9.32474 15.3972 9.3645C15.4153 9.32047 15.4878 9.22456 15.4282 9.20391C15.3712 9.18582 15.1591 9.28156 15.1021 9.32559C15.0451 9.36962 14.9155 9.42134 14.8898 9.45257C14.864 9.4838 14.8198 9.54319 14.7939 9.51725C14.7679 9.49916 14.7551 9.45257 14.7111 9.47834C14.6671 9.50411 14.4551 9.67768 14.416 9.77871C14.3769 9.87974 14.289 10.105 14.025 10.3612C13.761 10.6174 13.647 10.7832 13.7246 10.879C13.8023 10.9747 13.8386 10.9049 13.8516 10.9877C13.8616 11.069 13.8572 11.1513 13.8386 11.2311C13.8076 11.3657 13.7559 11.4925 13.8257 11.5185C14.0044 11.5755 14.1779 11.4673 14.2167 11.5004C14.2943 11.5702 14.1726 11.8214 14.3564 11.8706C14.543 11.9218 14.7268 11.8265 14.7268 11.8265L15.405 11.4615L16.0575 11.1172L16.3913 10.4569L16.2123 9.90552L16.1781 9.84851H16.1792Z" fill="#D4B968"/>
<path fill-rule="evenodd" clip-rule="evenodd" d="M15.5394 11.425C15.5394 11.425 15.4254 11.2516 15.5653 11.0987C15.7053 10.9458 15.9044 10.8813 15.9821 10.7856C15.9673 10.7673 15.9475 10.7538 15.9251 10.7468C15.9766 10.6546 16.0553 10.5804 16.1504 10.5343C16.1116 10.4956 16.0597 10.4645 16.0029 10.4645C15.8759 10.4645 15.7981 10.5422 15.6817 10.5422C15.5679 10.5422 15.5549 10.4852 15.5549 10.4852C15.5549 10.4852 15.7466 10.4671 15.7283 10.3816C15.7102 10.291 15.6771 10.291 15.6771 10.291C15.6771 10.291 16.0473 10.1374 16.112 10.0554C16.1766 9.97352 16.169 9.87676 16.1819 9.83802C16.2258 9.83802 16.4821 9.70336 16.5857 9.76036C16.6893 9.81736 16.6168 9.97267 16.6168 9.97267C16.6168 9.97267 16.9303 9.73698 17.09 9.5059C17.2298 9.51887 17.2948 9.41016 17.3972 9.41016C17.5242 9.41016 17.7235 9.58355 17.7623 9.95373C17.7882 10.166 17.827 10.2877 17.7882 10.6632C17.7701 10.8755 17.7752 11.3288 17.8394 11.5537C17.8833 11.7324 17.9869 11.7143 17.9869 11.7143C17.971 11.7688 17.9395 11.8174 17.8962 11.8541C17.8263 11.9188 17.8186 12.0898 17.8263 12.1545C17.8366 12.2018 17.8496 12.2484 17.8652 12.2942C17.8652 12.2942 17.7824 12.39 17.7616 12.4548C17.7435 12.5195 17.6582 12.5635 17.5959 12.5635C17.5336 12.5635 17.5648 12.5583 17.482 12.5635C17.3993 12.5688 17.3733 12.5816 17.3214 12.5635C17.2696 12.5455 17.2308 12.5246 17.2516 12.3587C17.2697 12.193 16.6122 11.8073 16.6122 11.8073L15.537 11.4242L15.5394 11.425Z" fill="#CCA849"/>
<path fill-rule="evenodd" clip-rule="evenodd" d="M14.3046 13.0617C14.3046 13.0617 14.5401 13.375 15.5084 13.375C15.9692 13.375 16.1298 13.331 16.2252 13.305C16.3288 13.2791 16.7171 13.1265 17.1081 12.6655C17.4601 12.2488 17.3825 12.0779 17.3825 12.0779L17.1777 12.0469L16.5121 12.1375L14.5426 12.9763L14.3037 13.0617H14.3046Z" fill="#585136"/>
<path fill-rule="evenodd" clip-rule="evenodd" d="M15.0263 13.139C15.0263 13.139 14.1875 13.3255 14.1875 12.7947C14.1875 12.2769 14.7053 11.7332 14.8348 11.6374C14.9695 11.5415 15.2905 11.4326 15.2905 11.4326H16.0647L16.2121 11.8236L16.1474 12.6676L15.0263 13.1388V13.139Z" fill="#252211"/>
<path fill-rule="evenodd" clip-rule="evenodd" d="M15.8009 11.5908C15.8009 11.5908 15.6404 11.4432 15.2754 11.642C14.9103 11.8408 14.6151 12.2564 14.597 12.6337C14.5789 12.9675 14.8714 13.2162 15.3271 13.2292C15.6662 13.242 15.8708 13.2032 15.9744 13.178C15.9485 13.1469 15.8138 12.9786 15.8138 12.9786L15.801 11.591L15.8009 11.5908Z" fill="#C3B378"/>
<path fill-rule="evenodd" clip-rule="evenodd" d="M15.6425 11.6738C15.6425 11.6738 15.6038 11.6427 15.4889 11.7048C15.3932 11.756 15.2534 11.8914 15.1447 11.9871C15.0747 12.0441 15.0307 12.0699 14.9911 12.1139C14.8305 12.3056 14.6958 12.6189 14.7737 12.7742C14.8515 12.9295 15.1077 13.1082 15.7601 12.9865L15.6406 11.674L15.6425 11.6738Z" fill="#E6D89C"/>
<path fill-rule="evenodd" clip-rule="evenodd" d="M15.4304 11.9946C15.4304 11.9946 15.3268 12.1552 15.3268 12.4116C15.3268 12.673 15.4745 13.0898 16.0182 13.1208C16.435 13.1468 16.7145 12.5203 17.0174 12.2769C17.2478 12.0906 17.3876 12.0853 17.3876 12.0853C17.3876 12.0853 17.1521 11.8293 16.523 11.4977C15.9016 11.1637 15.2052 11.1196 14.8271 11.6323C15.0058 11.6194 15.5832 11.4717 15.5832 11.4717L15.8655 11.5623L15.4304 11.9948V11.9946Z" fill="#252211"/>
<path fill-rule="evenodd" clip-rule="evenodd" d="M16.2432 12.334C16.2252 12.2953 16.2122 12.2434 16.2873 12.2306C16.3624 12.2178 16.396 12.2253 16.4219 12.2818C16.4478 12.3383 16.4731 12.3854 16.4347 12.4088C16.396 12.4294 16.295 12.4088 16.2431 12.3337L16.2432 12.334ZM16.1216 11.969C16.1216 11.969 16.0956 11.9871 16.1086 11.9509C16.1137 11.907 16.1475 11.8292 16.2303 11.8475C16.313 11.8657 16.2951 11.9562 16.2815 11.9821C16.2678 12.008 16.1987 12.0519 16.1468 12.0333C16.1403 12.0316 16.1342 12.0284 16.1291 12.0239C16.124 12.0195 16.12 12.0138 16.1175 12.0075C16.1149 12.0012 16.1139 11.9944 16.1145 11.9877C16.1151 11.9809 16.1173 11.9744 16.1209 11.9686L16.1216 11.969Z" fill="#6F674D"/>
<path fill-rule="evenodd" clip-rule="evenodd" d="M9.11377 12.1346C9.11377 12.1346 9.31857 12.2882 9.55648 12.2822C9.792 12.2769 10.0949 12.0337 10.2347 11.8783C10.3175 11.7876 10.3883 11.6919 10.4651 11.6168C10.53 11.5521 10.5738 11.5211 10.6049 11.477C10.6489 11.4258 10.6955 11.3296 10.7189 11.2983C10.6619 11.3424 10.5791 11.4202 10.4936 11.4719C10.4108 11.5231 10.2321 11.6194 10.1596 11.6453C10.0898 11.6712 9.36482 12.0549 9.36482 12.0549L9.11377 12.1346Z" fill="#AC924C"/>
<path fill-rule="evenodd" clip-rule="evenodd" d="M9.42676 10.221C9.42676 10.221 9.54059 10.1434 9.76075 10.094C9.97306 10.0428 10.4002 10.0034 10.4002 10.0034L10.7523 10.157L10.8921 10.6878L10.6361 11.2394L10.31 11.4442L9.93961 10.8487L9.42761 10.222L9.42676 10.221Z" fill="#9F8E57"/>
<path fill-rule="evenodd" clip-rule="evenodd" d="M8.96561 10.6955L8.84375 10.7864C8.84375 10.7864 8.87498 10.7294 8.90075 10.556C8.92652 10.3826 9.06135 9.96059 9.25813 9.71722C9.45491 9.47386 9.44979 9.48683 9.44979 9.48683C9.43168 9.48352 9.41308 9.4841 9.39521 9.48854C9.37735 9.49299 9.36064 9.50119 9.34619 9.5126C9.37214 9.45525 9.53785 9.25046 9.70357 9.14806C9.86929 9.04566 9.93397 9.01341 10.1074 9.09686C10.2808 9.18032 10.3248 9.22367 10.4518 9.21855C10.5788 9.21343 10.6873 9.07877 10.6873 9.07877C10.6873 9.07877 10.7132 9.16154 10.6175 9.3532C10.5218 9.54485 10.1437 9.93567 10.1437 9.93567L9.35661 10.4741L8.96561 10.696V10.6955Z" fill="#EAC970"/>
<path fill-rule="evenodd" clip-rule="evenodd" d="M9.54805 10.1565C9.54805 10.1565 10.1177 10.2341 10.2911 10.0737C10.2962 10.0918 10.3171 10.0918 10.3171 10.1048C10.3157 10.1146 10.3111 10.1236 10.3041 10.1305C10.323 10.1275 10.342 10.1258 10.3611 10.1254C10.3839 10.1322 10.4074 10.1366 10.4311 10.1384C10.4502 10.138 10.4692 10.1362 10.4881 10.1331C10.4863 10.146 10.4819 10.1583 10.4752 10.1695C10.4685 10.1806 10.4597 10.1903 10.4492 10.198C10.4751 10.198 10.5004 10.2031 10.5004 10.2237C10.5004 10.2444 10.5055 10.3067 10.4744 10.3196C10.4487 10.3268 10.4213 10.3249 10.3968 10.3144C10.3988 10.3634 10.4121 10.4113 10.4357 10.4543C10.4869 10.55 10.5961 10.6591 10.7429 10.6277C10.7429 10.6277 10.8204 10.8141 10.4942 11.2283C10.4504 11.2853 10.4036 11.3629 10.3468 11.4276C10.3243 11.4766 10.3071 11.5278 10.2956 11.5804C10.2956 11.5804 10.8472 11.368 11.005 10.8839C11.1656 10.3971 11.1967 9.91824 11.1656 9.47041C11.1603 9.34343 11.1397 9.25298 11.1086 9.18812C11.031 9.02753 10.8134 9.05347 10.7255 9.14409C10.5985 9.27107 10.3862 9.5868 10.0911 9.80423C9.79073 10.0217 9.77793 10.0602 9.54736 10.1565H9.54805Z" fill="#D7BC6B"/>
<path fill-rule="evenodd" clip-rule="evenodd" d="M8.86489 10.8556C8.86489 10.8556 8.75617 10.9203 8.69917 11.1628C8.64217 11.4113 8.75037 11.7142 8.81301 11.8099C8.87564 11.9057 9.01781 12.1673 9.31272 12.1803C9.38572 12.1799 9.45791 12.1649 9.52504 12.1363C9.62799 12.089 9.72456 12.029 9.81244 11.9576C9.93942 11.8618 10.0428 11.779 10.0299 11.7712C9.99881 11.7582 9.24804 11.1368 9.24804 11.1368L8.96576 10.8218L8.86472 10.8559L8.86489 10.8556Z" fill="#585136"/>
<path fill-rule="evenodd" clip-rule="evenodd" d="M9.57403 11.886C9.57403 11.886 9.72678 11.8732 9.81741 11.8162C9.90803 11.7592 9.28662 11.1431 9.28662 11.1431L9.33065 11.8087L9.57403 11.886Z" fill="#453A25"/>
<path fill-rule="evenodd" clip-rule="evenodd" d="M8.9142 10.8091C8.9142 10.8091 8.83655 10.9567 8.83655 10.9956C8.82358 11.1224 8.86249 11.5211 8.89355 11.6479C8.92461 11.7825 9.09289 11.987 9.31049 11.987C9.44497 11.987 9.63151 11.9042 9.63151 11.8836C9.63151 11.8576 9.43985 11.8324 9.38814 11.7359C9.35708 11.6847 9.34411 11.5574 9.33694 11.4287C9.33182 11.346 9.33182 11.2553 9.36288 11.2239C9.43285 11.1463 9.44565 10.9236 9.44565 10.9236L9.69414 10.4619H9.36732L8.97632 10.7053L8.9142 10.8091Z" fill="#84754B"/>
<path fill-rule="evenodd" clip-rule="evenodd" d="M8.81836 10.9516C8.81836 10.9516 9.07435 10.6125 9.30509 10.5347C9.53583 10.4569 9.63908 10.5036 9.63908 10.5036L9.50443 10.8481L9.31277 11.0604L9.32574 11.1691C9.32574 11.1691 9.29451 11.4565 9.48617 11.6558C9.67782 11.8551 9.82015 11.8475 9.9031 11.8475C9.98604 11.8475 10.2241 11.7775 10.3458 11.4901C10.4545 11.221 10.5451 10.8757 10.3277 10.5296C10.1152 10.1852 9.73994 10.1719 9.66741 10.1719C9.59488 10.1719 9.02537 10.2004 8.81836 10.9511V10.9516Z" fill="#252211"/>
<path fill-rule="evenodd" clip-rule="evenodd" d="M15.3913 12.1033C15.2956 12.0592 15.3862 11.7901 15.482 11.7072C15.5777 11.6242 15.6994 11.5286 15.9119 11.5155C15.9894 11.5104 16.0644 11.5595 16.0516 11.6114C16.0336 11.7072 15.8989 11.8418 15.7772 11.9376C15.6089 12.0697 15.5 12.1524 15.3913 12.1033Z" fill="#F7F7E7"/>
<path fill-rule="evenodd" clip-rule="evenodd" d="M10.2131 10.6356C10.2831 10.6305 10.3737 10.6868 10.3918 10.7626C10.4099 10.8453 10.3478 11.0111 10.2131 11.0111C10.1044 11.0111 10.0474 10.8764 10.0474 10.8377C10.0486 10.8058 10.0575 10.7747 10.0733 10.747C10.0784 10.7392 10.0914 10.6485 10.2131 10.6356V10.6356Z" fill="#F8F6DE"/>
<path fill-rule="evenodd" clip-rule="evenodd" d="M9.20406 10.6953C9.20406 10.6953 9.02537 10.7781 8.9426 10.9513C8.88345 11.0792 8.86556 11.2224 8.8914 11.3609C8.90437 11.4256 8.96905 11.586 9.01308 11.643C9.05711 11.7 9.11668 11.7389 9.16071 11.7336C9.20474 11.7283 9.2952 11.6119 9.2952 11.5421C9.2952 11.4723 9.30049 11.1771 9.38582 11.0165C9.46091 10.8561 9.20457 10.6955 9.20457 10.6955L9.20406 10.6953Z" fill="#D4C38B"/>
<path fill-rule="evenodd" clip-rule="evenodd" d="M9.23017 10.6826C9.19911 10.7007 9.1474 10.7266 9.1602 10.7602C9.17317 10.7913 9.28189 10.8115 9.3208 10.8872C9.36483 10.9649 9.36483 11.0477 9.35186 11.0866C9.38568 11.0705 9.41636 11.0486 9.44248 11.0217C9.49949 10.957 9.56929 10.8691 9.62885 10.8691C9.66776 10.8691 9.70651 10.8872 9.74286 10.8872C9.79986 10.8872 9.85669 10.8691 9.86454 10.8096C9.87734 10.7319 9.75583 10.6619 9.68586 10.6749C9.69883 10.6237 9.71692 10.5481 9.65991 10.4962C9.60291 10.4443 9.42439 10.5351 9.38548 10.5611C9.34657 10.587 9.23017 10.6828 9.23017 10.6828V10.6826Z" fill="#E2D59D"/>
<path fill-rule="evenodd" clip-rule="evenodd" d="M13.3441 16.1215L13.7272 16.0083L13.8359 16.086C13.8359 16.086 13.9134 16.2517 14.0353 16.2723C13.9964 16.3551 13.8953 16.4259 13.9006 16.4846C13.9059 16.5433 13.9576 16.5882 13.9576 16.5882C13.9576 16.5882 13.6132 17.1577 14.2916 17.7317C14.131 17.7964 13.9265 17.8853 13.8178 17.9365C13.8953 17.9546 14.061 17.9877 14.131 18.0505C14.201 18.1133 14.201 18.1333 14.2657 18.1722C14.3303 18.2111 14.3691 18.2628 14.3563 18.286C14.3123 18.2601 14.1646 18.1826 14.1389 18.255C14.1131 18.3273 13.4994 18.299 13.4994 18.299L12.4638 18.4983C12.4638 18.4983 12.5025 18.3947 12.3938 18.299C12.267 18.1852 12.1117 18.3041 11.946 18.1773C11.7285 18.0116 11.7207 17.8199 11.6509 17.7476C11.7207 17.7035 11.8632 17.6389 12.2023 17.594C12.1893 17.568 12.1453 17.4904 12.1712 17.4206C12.2023 17.3299 12.3317 17.2729 12.2929 17.1646C12.3499 17.1516 12.3757 17.1516 12.5182 16.9729C12.6529 16.7942 12.7356 16.7555 12.8392 16.7425C12.9428 16.7295 13.0049 16.7425 13.1966 16.5638C13.3311 16.437 13.2872 16.3283 13.2872 16.3283C13.2872 16.3283 13.3751 16.2998 13.3442 16.1211L13.3441 16.1215Z" fill="#CBAC5A"/>
<path fill-rule="evenodd" clip-rule="evenodd" d="M12.2125 16.1791C12.2176 16.1531 12.2385 16.1402 12.3782 16.1531C12.518 16.1661 13.4034 16.0703 13.6442 16.0574C13.8876 16.0393 14.7445 16.0521 15.1615 16.1402C15.5784 16.2282 16.0003 16.3318 16.2048 16.3835C16.4096 16.4405 16.4741 16.461 16.4662 16.487C16.4611 16.5129 16.415 16.5382 16.3886 16.531C16.3628 16.5259 15.6844 16.3187 15.4748 16.275C15.2652 16.2313 14.5401 16.1144 14.1436 16.1214C13.7734 16.1267 13.6258 16.1163 13.3126 16.1524C12.9993 16.1914 12.4815 16.2431 12.3262 16.2224C12.1726 16.2043 12.2043 16.2043 12.2122 16.1784L12.2125 16.1791Z" fill="#D6BC6F"/>
<path fill-rule="evenodd" clip-rule="evenodd" d="M14.2968 18.2084C14.2968 18.2084 14.8276 18.4958 15.0192 18.8479C15.159 19.1094 14.9364 19.2389 14.9364 19.2389C14.9364 19.2389 15.2368 19.2389 15.1979 19.4046C15.1798 19.508 14.6801 19.7876 14.3461 19.9352C14.007 20.0828 14.02 20.0751 13.8542 20.1009C13.6936 20.1269 13.2535 20.0497 13.1629 20.1786C13.0722 20.3074 13.1117 20.4402 13.1369 20.4608C13.1629 20.4789 13.3726 20.5049 13.3726 20.5049C13.3726 20.5049 13.3286 20.6266 12.8937 20.6395C12.4589 20.6525 12.35 20.6834 12.324 20.7302C12.2981 20.774 12.4068 20.7482 12.6063 20.7814C12.8057 20.8124 13.0852 20.8326 13.0852 20.8326C13.0852 20.8326 12.9946 20.9102 12.7591 20.9723C12.4898 21.0421 12.0677 21.107 11.9409 21.1846C12.0056 21.2287 12.1015 21.2933 12.1457 21.2985C12.037 21.3244 11.8841 21.3814 11.8583 21.4021C11.897 21.428 11.9489 21.4591 11.9489 21.4591C11.9489 21.4591 11.7313 21.7205 11.6045 21.7854C11.4777 21.8502 10.7476 22.1892 10.4964 22.1245C9.86984 21.9588 9.79219 21.2727 9.63944 21.221C9.40904 21.1433 9.30033 21.2985 9.0957 21.1898C9.18632 21.1251 9.23564 21.0863 9.33139 21.0423C9.22779 20.9911 8.6919 20.6513 8.6919 20.6513C8.63586 20.5292 8.57366 20.4099 8.50553 20.2941C8.40193 20.1154 8.24953 19.8772 8.13518 19.6674C7.88669 19.2066 7.87372 18.9943 7.64844 18.7329C7.68735 18.6817 7.82184 18.6888 7.82184 18.6888L9.70942 19.3102L13.0564 19.4072L13.9268 18.1646L14.297 18.2086L14.2968 18.2084Z" fill="#DFC677"/>
<path fill-rule="evenodd" clip-rule="evenodd" d="M9.33838 20.1035C9.35858 20.1259 9.38212 20.1452 9.40818 20.1605C9.47304 20.2045 9.56878 20.2564 9.63346 20.3339C9.6594 20.2951 9.72409 20.2252 9.83826 20.3339C9.95244 20.4426 10.0943 20.3651 10.1825 20.3909C10.2731 20.4221 10.2782 20.4349 10.2782 20.4349C10.2782 20.4349 10.3294 20.3909 10.444 20.3443C10.5139 20.3183 10.5967 20.3002 10.6873 20.2745C10.7701 20.2564 10.8607 20.2304 10.923 20.2304C10.98 20.2692 11.1845 20.4864 12.0052 20.1658C12.7794 19.8654 12.9579 19.8318 13.0874 19.8782C13.1004 19.8471 13.1134 19.7876 13.3127 19.7954C13.3127 19.7126 13.147 19.4304 13.147 19.4304L12.2331 19.1172H11.7332L10.2342 19.3916L9.40357 19.8656L9.33889 20.1045L9.33838 20.1035Z" fill="#C4A859"/>
<path fill-rule="evenodd" clip-rule="evenodd" d="M8.83887 19.5781C8.83887 19.5781 8.85696 19.7179 9.06415 19.8655C9.26895 20.013 9.33329 20.101 9.33329 20.101C9.33329 20.101 9.3722 20.0498 9.40326 19.9976C9.43432 19.9406 9.46026 19.8759 9.51198 19.8578C9.61557 19.8138 9.85109 19.8966 9.90297 19.8836C9.94701 19.8708 9.93403 19.7802 9.98063 19.7802C10.0893 19.7749 10.1591 19.85 10.1981 19.85C10.237 19.85 10.3325 19.8448 10.3455 19.8242C10.3585 19.8035 10.3636 19.5885 10.5112 19.4849C10.6718 19.3711 10.8686 19.4202 10.9208 19.4462C10.9208 19.4849 10.9259 19.5808 11.0295 19.5859C11.1331 19.5911 11.1434 19.573 11.2343 19.604C11.3253 19.6351 11.4337 19.5989 11.4828 19.7515C11.5269 19.7387 11.6305 19.7257 11.6045 19.5781C11.6557 19.5394 11.7004 19.5134 11.8093 19.3607C11.8353 19.3219 11.8791 19.2779 11.9129 19.2209C12.0035 19.2209 12.1123 19.2028 12.2571 19.3296C12.2131 19.3607 12.1872 19.3808 12.1744 19.4124C12.2123 19.4499 12.2469 19.4906 12.2778 19.5341C12.3167 19.5853 12.3427 19.6481 12.3918 19.661C12.5005 19.6921 12.6792 19.6481 12.8785 19.661C13.0702 19.674 13.2306 19.7438 13.3006 19.7878C13.3265 19.775 13.3265 19.7698 13.3912 19.7827C13.4559 19.7957 13.5051 19.8008 13.4353 19.718C13.474 19.7361 13.518 19.775 13.5569 19.7361C13.5959 19.6972 13.6267 19.6404 13.7355 19.6274C13.8442 19.6144 13.8831 19.6325 13.9271 19.5187C13.9841 19.3789 13.7873 19.3789 13.7873 19.3789C13.7873 19.3789 13.878 19.296 13.979 19.1873C14.1007 19.0734 14.2405 18.9258 14.2741 18.7446C14.3311 18.4106 14.0049 18.3667 14.0049 18.3667L12.423 18.8534L10.489 18.7575L8.83989 19.5783L8.83887 19.5781Z" fill="#927D49"/>
<path fill-rule="evenodd" clip-rule="evenodd" d="M7.41768 15.0085C7.41768 15.0085 7.36648 15.0732 7.3349 15.226C7.30333 15.3787 7.31681 15.3606 7.29087 15.4694C7.26493 15.5781 6.9463 16.6603 7.06576 17.0253C7.18523 17.3904 7.39208 17.5251 7.52144 17.8202C7.54738 17.8848 7.57264 17.9238 7.58612 17.9808C7.63016 18.1722 7.59141 18.3199 7.64313 18.5115C7.66122 18.5762 7.70798 18.6513 7.77778 18.729C7.93138 18.8894 8.18175 19.0422 8.28978 19.1509C8.44235 19.3115 8.65995 19.6378 8.93694 19.6687C9.08457 19.6868 9.29432 19.6246 9.46772 19.5212C9.62131 19.4253 9.71621 19.2908 9.87731 19.214C9.99115 19.157 10.1128 19.1364 10.2215 19.1104C10.4468 19.0664 10.6515 19.0592 10.7731 19.0845C10.9595 19.1234 11.3997 19.258 11.6435 19.258C11.8341 19.255 12.0236 19.2289 12.2079 19.1804C12.5781 19.0717 13.0259 18.8851 13.3212 18.8024C13.4946 18.7512 13.6344 18.7377 13.7769 18.7066C14.0202 18.6496 14.2247 18.572 14.3413 18.4243C14.2636 18.3337 14.1679 18.1939 13.6499 18.199C13.0623 18.212 12.3839 18.5382 12.0499 18.59C11.7159 18.6419 11.571 18.6858 11.1981 18.5511C10.8325 18.4151 10.8204 18.3252 10.8204 18.3252C10.8204 18.3252 10.4366 18.0567 10.276 17.3723C10.1154 16.6879 10.276 16.1892 10.6929 15.7153C10.8016 15.5936 10.7757 15.4849 10.7757 15.4849C10.7757 15.4849 11.0501 15.1147 10.975 14.7681C10.8923 14.4237 10.3615 14.4936 10.3615 14.4936L7.41785 15.0085H7.41768Z" fill="#6E6342"/>
<path fill-rule="evenodd" clip-rule="evenodd" d="M7.86003 16.1602C7.8372 16.2031 7.82647 16.2514 7.82897 16.2999C7.83409 16.3698 7.85491 16.4604 8.06449 16.665C8.24318 16.8436 8.20426 17.0429 8.20426 17.0429C8.20426 17.0429 8.2942 17.061 8.53826 16.9468C8.72991 16.8562 8.79426 17.0168 8.79426 17.0168C8.85005 16.9875 8.91052 16.9682 8.97294 16.9598C9.0295 16.9546 9.08425 16.9371 9.13337 16.9086C9.13337 16.9086 9.35865 17.139 9.55543 17.2477C9.73411 17.3436 9.83771 17.4083 9.92577 17.3436C10.0085 17.2866 10.0085 17.1701 10.0033 17.1184C9.98272 17.0706 9.95672 17.0254 9.92577 16.9837C9.86877 16.9009 9.77815 16.805 9.77217 16.7277C9.7592 16.5491 9.90683 16.3366 9.8756 16.2849C9.84436 16.2332 9.72814 16.2202 9.44074 16.3238C9.1431 16.4221 7.85883 16.1607 7.85883 16.1607L7.86003 16.1602Z" fill="#39331F"/>
<path fill-rule="evenodd" clip-rule="evenodd" d="M8.53838 17.3176C8.53838 17.3176 8.39092 17.1779 8.44264 16.4996C8.50524 16.4987 8.56775 16.5048 8.62901 16.5177C8.62901 16.5177 8.70939 17.0433 8.53838 17.3176V17.3176Z" fill="#292311"/>
<path fill-rule="evenodd" clip-rule="evenodd" d="M7.48769 14.4907C7.50827 14.4755 7.52735 14.4583 7.5447 14.4395C7.4935 14.5352 7.25712 14.9184 7.44878 15.5217C7.64044 16.1222 8.12189 16.5701 8.71479 16.5909C9.30768 16.6117 9.61932 16.3216 9.97567 15.8867C10.1154 15.7133 10.276 15.4957 10.4184 15.3483C10.6307 15.1177 10.7964 15.053 10.7964 14.8305C10.7964 14.3748 10.3303 14.1702 9.64424 13.9657C8.95816 13.7613 8.33932 13.7865 8.0183 13.9265C7.70512 14.079 7.57047 14.2396 7.48752 14.4909L7.48769 14.4907Z" fill="#252211"/>
<path fill-rule="evenodd" clip-rule="evenodd" d="M9.69045 17.5223L9.74166 17.4963C9.74166 17.4963 9.75446 17.2915 9.83742 17.297C9.9202 17.31 9.95912 17.4188 9.95127 17.4576C9.94615 17.4963 9.92549 17.5612 9.84254 17.5533C9.73381 17.5559 9.68994 17.5223 9.68994 17.5223H9.69045Z" fill="#3F3824"/>
<path fill-rule="evenodd" clip-rule="evenodd" d="M9.45996 16.6524C9.45996 16.6524 9.51116 16.6343 9.5738 16.6964C9.625 16.6964 9.84823 16.6705 9.9182 16.7145C9.98817 16.7586 10.0088 16.7973 10.0088 16.7973C10.0088 16.7973 9.74736 16.8544 9.60486 16.7973C9.45996 16.7482 9.45996 16.6524 9.45996 16.6524V16.6524Z" fill="#2D2815"/>
<path fill-rule="evenodd" clip-rule="evenodd" d="M10.6123 16.691C10.6123 16.678 10.4726 16.5823 10.3249 16.5511C10.299 16.546 10.2937 16.564 10.2738 16.564C10.2608 16.5589 10.2557 16.52 10.2557 16.52L10.1717 16.5642C10.1717 16.5642 10.1587 16.5823 10.2028 16.6154C10.2415 16.6465 10.3063 16.6724 10.3244 16.7241C10.3425 16.7758 10.3425 16.7939 10.3504 16.8017C10.3555 16.8069 10.4461 16.8017 10.4901 16.7758C10.5342 16.7499 10.6171 16.7075 10.6118 16.6905L10.6123 16.691Z" fill="#82764F"/>
<path fill-rule="evenodd" clip-rule="evenodd" d="M9.30518 17.2168C9.30518 17.2168 9.33095 17.0383 9.50451 17.0305C9.68303 17.0175 9.71682 17.1908 9.71682 17.1908L9.61323 17.2944C9.61323 17.2918 9.53558 17.1832 9.30603 17.2168H9.30518Z" fill="#2D2816"/>
<path fill-rule="evenodd" clip-rule="evenodd" d="M10.4312 16.4478C10.4312 16.4478 10.3352 16.5514 10.1231 16.5825C10.105 16.5565 10.0661 16.5048 10.1231 16.4221C10.1801 16.3393 10.2448 16.3134 10.3095 16.3391C10.338 16.3438 10.3646 16.3565 10.3862 16.3757C10.4078 16.395 10.4234 16.42 10.4312 16.4478V16.4478Z" fill="#574F35"/>
<path fill-rule="evenodd" clip-rule="evenodd" d="M10.8217 16.5748C10.827 16.5488 10.8089 16.5437 10.8217 16.5308C10.8345 16.5178 10.9046 16.492 10.9176 16.5048C10.9227 16.5101 10.9176 16.5308 10.9176 16.556C10.9176 16.5813 10.9176 16.6072 10.9046 16.6258C10.8865 16.6518 10.8348 16.6647 10.8089 16.657C10.783 16.6494 10.7778 16.613 10.7778 16.6058C10.7906 16.6007 10.8217 16.5878 10.8217 16.5748ZM11.2637 16.2953C11.2637 16.2823 11.3078 16.2563 11.3337 16.2563C11.3724 16.2563 11.3724 16.2874 11.3777 16.2953C11.3905 16.3004 11.3905 16.29 11.4035 16.3133C11.4165 16.3367 11.4347 16.378 11.4216 16.404C11.4084 16.4299 11.3569 16.4478 11.3441 16.4427C11.326 16.4297 11.269 16.3133 11.2637 16.2953V16.2953Z" fill="#82764F"/>
<path fill-rule="evenodd" clip-rule="evenodd" d="M10.374 16.6344C10.374 16.6344 10.431 16.6472 10.5087 16.7121C10.4827 16.7302 10.4438 16.7508 10.4438 16.7508C10.4438 16.7508 10.4387 16.6913 10.374 16.6343V16.6344Z" fill="#6E6342"/>
<path fill-rule="evenodd" clip-rule="evenodd" d="M10.2472 16.0647C10.2342 16.0519 10.2859 16.0208 10.317 16.0259C10.348 16.0311 10.361 16.0519 10.3946 16.057C10.4282 16.0621 10.4335 16.044 10.4458 16.0311C10.4581 16.0181 10.5028 16.0259 10.5105 16.0311C10.5153 16.0367 10.5196 16.0428 10.5235 16.0491C10.524 16.0393 10.5266 16.0297 10.531 16.0209C10.5355 16.0121 10.5417 16.0043 10.5493 15.9979C10.5592 15.9907 10.5706 15.9857 10.5828 15.9835C10.5949 15.9812 10.6073 15.9817 10.6192 15.985C10.6243 16.0031 10.6503 16.0678 10.6452 16.0807C10.64 16.0937 10.5624 16.112 10.5493 16.0988C10.5622 16.13 10.6192 16.1947 10.6269 16.2075C10.6346 16.2203 10.5699 16.2516 10.5441 16.2464C10.5079 16.2439 10.2852 16.1143 10.2465 16.0652L10.2472 16.0647ZM10.5863 15.6349C10.5815 15.6219 10.5723 15.6109 10.5603 15.6039C10.5423 15.5988 10.4827 15.6039 10.4827 15.6349C10.4827 15.666 10.5339 15.8397 10.5914 15.9302C10.6563 16.0208 10.7001 16.0957 10.7442 16.1166C10.758 16.1229 10.7737 16.1237 10.7881 16.1189C10.8025 16.1141 10.8145 16.104 10.8218 16.0906C10.8269 16.0777 10.8399 15.9819 10.8348 15.7566C10.8297 15.5313 10.8218 15.3139 10.8088 15.3009C10.7959 15.288 10.7442 15.2881 10.7261 15.3139C10.708 15.3397 10.5914 15.5962 10.5861 15.6349H10.5863Z" fill="#585136"/>
<path fill-rule="evenodd" clip-rule="evenodd" d="M10.356 16.9609C10.356 16.9609 10.2654 16.9039 10.1773 16.9428C10.0946 16.9817 10.0997 17.1344 10.0997 17.1344C10.1183 17.1417 10.1384 17.1443 10.1583 17.1421C10.1782 17.1398 10.1972 17.1327 10.2137 17.1214C10.2707 17.0827 10.3431 17.018 10.356 16.961V16.9609Z" fill="#574F35"/>
<path fill-rule="evenodd" clip-rule="evenodd" d="M10.5268 17.1651C10.5217 17.1139 10.4756 17.1139 10.4756 17.0875C10.4788 17.0748 10.4861 17.0636 10.4964 17.0556C10.5067 17.0477 10.5194 17.0434 10.5324 17.0435C10.5584 17.0435 10.5836 17.0745 10.6154 17.0947C10.6464 17.1127 10.693 17.1459 10.6981 17.1853C10.7033 17.2247 10.6469 17.3327 10.5843 17.3327C10.5217 17.3327 10.5403 17.2162 10.5273 17.1645L10.5268 17.1651ZM11.0265 17.0952C11.0265 17.0952 10.9229 17.1262 10.9306 17.0952C10.9383 17.0641 10.9618 17.0564 10.9954 17.0564C11.0125 17.0385 11.0355 17.0275 11.0601 17.0252C11.0742 17.0245 11.088 17.0291 11.0989 17.0382C11.0989 17.0382 11.1688 17.0071 11.1895 17.0252C11.2101 17.0433 11.1948 17.0433 11.2076 17.0641C11.2239 17.0872 11.2346 17.1138 11.2388 17.1418C11.2388 17.1624 11.1612 17.2064 11.0989 17.1988C11.0265 17.1832 11.0393 17.1081 11.0265 17.0952V17.0952ZM11.6296 16.9786C11.6296 16.9786 11.6607 16.9967 11.6349 17.0175C11.6168 17.0356 11.5262 17.0687 11.4484 17.0745C11.3707 17.0745 11.3009 17.0873 11.3009 17.0615C11.3009 17.0358 11.3656 16.9839 11.4044 16.9709C11.4121 16.9612 11.422 16.9533 11.4332 16.948C11.4445 16.9426 11.4568 16.9398 11.4692 16.9399C11.5003 16.9399 11.6218 16.9269 11.6556 16.9218C11.6866 16.9165 11.7126 16.9346 11.6943 16.9605C11.6866 16.9786 11.6296 16.9786 11.6296 16.9786V16.9786ZM11.8083 16.1792C11.8083 16.1792 11.7694 16.262 11.7255 16.262C11.6815 16.2568 11.6815 16.2439 11.6815 16.2309C11.6815 16.2128 11.7255 16.1662 11.7203 16.1532C11.7075 16.1532 11.6762 16.1532 11.6815 16.1222C11.6815 16.0962 11.7255 16.0652 11.7643 16.071C11.7936 16.0469 11.83 16.0333 11.8679 16.0322C11.9119 16.0322 11.9507 16.045 11.9507 16.071C11.9507 16.0969 11.8995 16.1537 11.8807 16.1669C11.86 16.1875 11.8341 16.201 11.8083 16.1797V16.1792ZM11.218 17.7092C11.218 17.7092 11.1668 17.7145 11.1668 17.7403C11.1668 17.7533 11.1796 17.7533 11.1978 17.7456C11.2084 17.745 11.2188 17.7432 11.2289 17.7403C11.234 17.7456 11.234 17.7714 11.2729 17.7714C11.3049 17.7671 11.3357 17.7565 11.3636 17.7403C11.3946 17.7275 11.4206 17.7144 11.4206 17.6891C11.4076 17.6451 11.3817 17.6243 11.3429 17.6243C11.3231 17.623 11.3033 17.6275 11.2859 17.6372C11.2859 17.6372 11.2729 17.6113 11.2289 17.6372C11.1849 17.6632 11.19 17.6632 11.203 17.6761C11.2262 17.6968 11.2185 17.7103 11.2185 17.7103L11.218 17.7092ZM10.9255 17.9786C10.9255 17.9656 10.9901 17.9397 11.0082 17.9475C11.0263 17.9526 11.078 18.0509 11.078 18.0613C11.078 18.0743 11.0134 18.1054 10.9874 18.1054C10.9615 18.1054 10.9176 18.0613 10.9176 18.0542C10.9176 18.0491 10.9487 18.0414 10.9487 18.0361C10.9564 18.0233 10.9255 17.992 10.9255 17.9791V17.9786ZM10.7207 17.6005C10.7336 17.5954 10.7336 17.5824 10.7517 17.5695C10.7574 17.5657 10.7638 17.5633 10.7706 17.5624C10.7773 17.5615 10.7842 17.5622 10.7906 17.5643C10.7952 17.5562 10.8015 17.5492 10.8091 17.5438C10.8168 17.5384 10.8255 17.5347 10.8347 17.5331C10.8657 17.528 10.8917 17.5331 10.8859 17.5461C10.8859 17.585 10.9118 17.6108 10.9118 17.6418C10.9118 17.6729 10.8937 17.7118 10.829 17.7377C10.7644 17.7558 10.6763 17.7558 10.6633 17.7507C10.6503 17.7456 10.6374 17.6937 10.6503 17.6678C10.6633 17.6418 10.6995 17.6135 10.7203 17.6005H10.7207Z" fill="#82764F"/>
<path fill-rule="evenodd" clip-rule="evenodd" d="M10.8032 17.6182C10.8032 17.6182 10.7591 17.6441 10.7591 17.6571C10.7552 17.6696 10.7535 17.6827 10.754 17.6958C10.754 17.7035 10.811 17.6907 10.8187 17.6828C10.8213 17.6777 10.8032 17.6316 10.8032 17.6182Z" fill="#6E6342"/>
<path fill-rule="evenodd" clip-rule="evenodd" d="M10.418 17.4964C10.4438 17.5017 10.4878 17.4964 10.5214 17.5094C10.5473 17.5224 10.5654 17.5483 10.5395 17.5794C10.5135 17.6104 10.4883 17.657 10.4308 17.6492C10.3661 17.644 10.304 17.6104 10.304 17.5845C10.3029 17.5681 10.3051 17.5516 10.3104 17.5361C10.3157 17.5205 10.3241 17.5062 10.335 17.4939C10.361 17.4732 10.3738 17.4862 10.4178 17.4964H10.418Z" fill="#585136"/>
<path fill-rule="evenodd" clip-rule="evenodd" d="M10.387 17.522C10.387 17.522 10.3043 17.5867 10.2834 17.6179C10.2575 17.6489 10.1307 17.8094 10.0919 17.843C10.1048 17.8203 10.1195 17.7987 10.1358 17.7783C10.0846 17.8111 10.0462 17.8604 10.0271 17.9181C9.99603 18.014 10.2007 18.0657 10.3352 18.1046C10.4696 18.1435 10.5217 18.1558 10.5217 18.1558C10.4722 18.0814 10.4297 18.0026 10.3947 17.9203C10.3435 17.7986 10.3171 17.7857 10.3507 17.7287C10.3766 17.6716 10.4155 17.6329 10.4155 17.5889C10.4 17.5479 10.387 17.522 10.387 17.522V17.522Z" fill="#574F35"/>
<path fill-rule="evenodd" clip-rule="evenodd" d="M7.4354 17.7273C7.45424 17.7308 7.47356 17.7308 7.4924 17.7273C7.53114 17.722 7.93511 17.5737 8.35717 17.6004C8.67312 17.6195 8.98629 17.6709 9.29173 17.754C9.8225 17.8937 10.4826 18.1707 10.9098 18.3287C11.0237 18.3726 11.1351 18.4504 11.217 18.4813C11.5433 18.6083 11.5561 18.6083 11.7478 18.6419C11.9731 18.6729 12.2035 18.5978 12.4443 18.5461C12.7394 18.4813 13.2442 18.4502 13.6869 18.3856C13.83 18.3657 13.9712 18.3337 14.1089 18.2898C14.1089 18.2898 13.7569 18.6419 12.9128 18.7687C12.5716 18.8205 12.2248 18.8248 11.8824 18.7816C11.6131 18.7557 11.4346 18.7168 11.3 18.6781C11.1472 18.634 10.8339 18.5175 10.4482 18.4221C10.1789 18.3521 9.87848 18.3004 9.53425 18.2357C8.68502 18.0802 7.76342 17.9017 7.43506 17.7284L7.4354 17.7273Z" fill="#252211"/>
<path fill-rule="evenodd" clip-rule="evenodd" d="M6.48261 16.127C6.27781 16.3004 6.06055 16.4661 5.84841 16.6265L5.20893 17.1178C4.9915 17.2783 4.77919 17.444 4.56159 17.6046C4.34399 17.7652 4.12674 17.9178 3.896 18.0654C4.1008 17.892 4.31805 17.7314 4.53548 17.5735C4.75291 17.4157 4.97836 17.2609 5.18811 17.1008L5.82759 16.6087C6.04758 16.4483 6.25989 16.2826 6.48261 16.1273V16.127ZM5.35126 17.9393C5.35126 17.9393 5.58166 17.7476 5.86906 17.4785C6.22627 17.1446 6.66385 16.7173 6.80363 16.6398L5.35109 17.9394L5.35126 17.9393Z" fill="#CFB66C"/>
<path fill-rule="evenodd" clip-rule="evenodd" d="M5.35156 17.9391C5.46557 17.8253 5.58725 17.714 5.70894 17.6051L5.89531 17.4447C5.95231 17.3935 6.01716 17.336 6.07399 17.279C6.18783 17.1652 6.29927 17.0433 6.41311 16.9269C6.46953 16.8684 6.52919 16.8131 6.5918 16.7612C6.6231 16.7335 6.65786 16.71 6.69522 16.6913C6.72645 16.6732 6.76007 16.6401 6.80394 16.6343C6.77817 16.6732 6.7471 16.6913 6.72116 16.7249C6.6901 16.7508 6.66416 16.7819 6.63839 16.8077C6.58139 16.8647 6.5167 16.9164 6.4597 16.9682C6.33802 17.0718 6.21121 17.173 6.08952 17.2814C5.96784 17.3897 5.854 17.5066 5.73215 17.6153C5.60022 17.7268 5.47854 17.8355 5.35156 17.9396V17.9391ZM6.89985 16.9036C6.89985 16.9036 6.0559 17.7295 5.88234 17.864L6.89985 16.9036Z" fill="#CFB66C"/>
<path fill-rule="evenodd" clip-rule="evenodd" d="M6.89935 16.9033C6.82343 16.9912 6.74203 17.0742 6.65564 17.1518L6.39964 17.3952C6.31687 17.478 6.23904 17.5609 6.15115 17.6437C6.06052 17.7213 5.97775 17.7973 5.88184 17.869L6.13033 17.6256C6.21327 17.5428 6.30389 17.473 6.39196 17.3901L6.64045 17.1467C6.72578 17.0614 6.80873 16.9784 6.89935 16.9033V16.9033ZM6.93809 17.3511C6.8603 17.5683 6.76863 17.7802 6.66366 17.9855C6.44623 18.4205 6.12009 18.9641 5.97758 19.2413L6.93809 17.3511Z" fill="#CFB66C"/>
<path fill-rule="evenodd" clip-rule="evenodd" d="M6.93842 17.3516C6.93842 17.4473 6.91248 17.5303 6.88142 17.613C6.85114 17.6959 6.81662 17.7771 6.77799 17.8564C6.73908 17.9341 6.69505 18.017 6.65102 18.0921C6.60699 18.1672 6.55527 18.2447 6.51636 18.3225L6.2549 18.7834C6.16428 18.937 6.07621 19.0915 5.98047 19.2391C6.04515 19.0734 6.13322 18.918 6.21616 18.7653C6.30678 18.6117 6.38956 18.4581 6.47216 18.2992C6.51249 18.22 6.54877 18.1388 6.58087 18.0559C6.61962 17.973 6.65836 17.8953 6.68959 17.8202C6.72833 17.7375 6.75939 17.6596 6.7983 17.5847C6.84216 17.5043 6.87852 17.4267 6.93808 17.3516H6.93842Z" fill="#CFB66C"/>
<path fill-rule="evenodd" clip-rule="evenodd" d="M7.86013 19.4741C7.86013 19.4741 7.60413 19.8132 7.62973 20.243C7.69953 20.0179 7.78759 19.6735 7.86013 19.4741ZM8.1035 19.8141C8.1035 19.8141 8.01287 20.7357 7.93778 21.1888C8.04393 20.665 8.06458 20.7091 8.1035 19.8141ZM9.79922 21.2433C9.79922 21.2433 9.41608 22.3697 9.40823 22.6827C9.49117 22.3608 9.6516 21.7032 9.79922 21.2424V21.2433Z" fill="#DEC270"/>
<path fill-rule="evenodd" clip-rule="evenodd" d="M10.6953 19.4048C10.6953 19.4048 11.3167 20.43 11.7828 21.305C11.6567 20.8647 11.3665 20.0571 10.6953 19.4048Z" fill="#CBAF59"/>
<path fill-rule="evenodd" clip-rule="evenodd" d="M12.3652 20.9141C12.7064 21.5171 13.0141 22.1386 13.2868 22.7755C13.2351 22.3354 13.0952 21.5821 12.3652 20.9141Z" fill="#E3C677"/>
<path fill-rule="evenodd" clip-rule="evenodd" d="M17.2741 22.4259C17.3776 22.3612 17.5822 22.0089 17.7609 21.9211C17.9394 21.8304 18.074 21.8123 18.2346 21.6336C18.3951 21.4471 18.4394 21.3333 18.7912 21.1858C19.2832 20.9733 18.9448 20.6989 18.9448 20.6989C18.999 20.6457 19.0569 20.5964 19.1182 20.5515C19.2452 20.4557 19.3926 20.3391 19.3798 20.1345C19.3617 19.7903 19.297 19.2906 19.0148 19.0006C19.2892 18.9436 19.8147 18.9049 20.1412 18.8221C20.519 18.7262 20.6926 18.5915 20.6926 18.5915C20.6926 18.5915 20.4751 18.2213 20.8272 17.8486C21.1793 17.4759 21.4667 17.2531 21.679 16.8362C21.4357 16.8051 21.0646 16.6758 20.1178 17.0355C20.1689 17.0596 20.2182 17.0873 20.2654 17.1183C20.2654 17.1183 19.6829 17.2789 19.4706 17.4576C19.1003 17.7708 19.0537 18.0271 18.6524 18.2188C18.2512 18.4104 17.8472 18.3586 17.5134 18.5139C17.1796 18.6692 17.1303 18.8013 17.0084 18.8583C17.0344 18.8893 17.0033 18.941 17.0524 18.9851C17.0214 19.0291 16.8401 19.3242 16.6563 19.3242C16.6744 19.3942 16.8297 19.4459 16.8297 19.4459C16.8297 19.4459 16.7159 19.5288 16.4259 19.5495C16.5734 19.7031 16.7133 19.8705 17.099 20.1139C17.068 20.1785 16.9384 20.2745 16.9903 20.3961C17.0473 20.5178 17.1951 20.6835 17.7851 20.8182C17.4847 20.831 17.1328 20.901 16.6587 20.8363C16.1849 20.7793 16.1073 20.7457 15.8148 20.8182C15.8458 20.8493 15.9286 20.8493 16.0011 20.932C15.9235 20.9372 15.4367 20.875 15.271 21.0926C15.0976 21.3177 15.0225 21.6881 15.0355 21.9366C14.9449 21.9806 14.8568 22.0583 14.9009 22.2189C14.9449 22.3795 15.1753 22.4312 15.3229 22.532C15.4704 22.6408 15.4833 22.6795 15.6233 22.6537C15.7707 22.6227 15.9882 22.4752 16.1151 22.4752C16.2421 22.4752 16.3326 22.571 16.3326 22.571C16.3326 22.571 16.677 22.4052 16.7106 22.4363C16.7417 22.4674 16.7157 22.6667 16.7493 22.6978C16.7835 22.7211 17.1714 22.4907 17.275 22.4259H17.2741Z" fill="#ECD592"/>
<path fill-rule="evenodd" clip-rule="evenodd" d="M24.7997 12.0646C23.1816 7.88596 19.1815 7.11182 19.1815 7.11182H7.76921L7.81325 11.3681H10.086V20.8723H7.76904V25.1209H18.8656C21.54 25.1209 23.6837 22.4334 23.6837 22.4334C27.1167 17.5611 24.7995 12.0646 24.7995 12.0646H24.7997ZM18.9252 19.57C18.9252 19.57 18.0548 20.8257 17.1078 20.8257H15.2134L15.1685 11.3785H17.5996C17.5996 11.3785 18.726 11.614 19.513 13.8431C19.513 13.8431 20.5562 17.0345 18.9252 19.57V19.57Z" fill="white" fill-opacity="0.8"/>
</svg>
