<svg width="32" height="32" viewBox="0 0 32 32" fill="none" xmlns="http://www.w3.org/2000/svg">
<circle cx="16" cy="16" r="16" fill="black"/>
<path d="M16.0628 3.58252C10.8698 3.58252 6.62549 7.79924 6.62549 13.014C6.62549 14.0619 6.80025 15.0849 7.12482 16.083C7.34951 16.7566 8.09851 17.1309 8.79757 16.9063C9.47166 16.6818 9.84616 15.9333 9.62146 15.2346C9.34683 14.4612 9.222 13.6378 9.24696 12.8144C9.34683 9.2963 12.193 6.40198 15.7133 6.22732C19.633 6.02772 22.8786 9.14659 22.8786 13.014C22.8786 16.6319 20.0325 19.6011 16.4623 19.8007C16.4623 19.8007 15.139 19.8755 14.4899 19.9753C14.1653 20.0252 13.9157 20.0751 13.7409 20.1001C13.666 20.125 13.5911 20.0502 13.6161 19.9753L13.8408 18.8775L15.0641 13.2386C15.2139 12.5399 14.7645 11.8413 14.0655 11.6916C13.3664 11.5419 12.6674 11.991 12.5176 12.6896C12.5176 12.6896 9.57153 26.4127 9.54656 26.5624C9.39676 27.261 9.84616 27.9596 10.5452 28.1093C11.2443 28.259 11.9433 27.8099 12.0931 27.1113C12.1181 26.9616 12.5176 25.1402 12.5176 25.1402C12.8172 23.7429 13.9656 22.7199 15.3138 22.5453C15.6134 22.4954 16.7868 22.4205 16.7868 22.4205C21.6553 22.0463 25.5001 17.9792 25.5001 13.014C25.5001 7.79924 21.2558 3.58252 16.0628 3.58252Z" fill="white"/>
<path d="M16.739 25.2898C15.8901 25.1152 15.0413 25.6391 14.8665 26.5124C14.6917 27.3607 15.216 28.2091 16.0898 28.3837C16.9387 28.5584 17.7876 28.0344 17.9623 27.1611C18.1371 26.2879 17.6128 25.4645 16.739 25.2898Z" fill="#E6007A"/>
</svg>
