<svg fill="none" xmlns="http://www.w3.org/2000/svg" viewBox="0 0 100 100"><g clip-path="url(#clip0)"><path d="M51.89 13.977L35.325 30.54 13.874 51.989l.05 33.833 33.833.05 16.569-16.57 21.447-21.446.101-33.986-33.984.107zm1.197 2.876l27.855-.083L65.17 32.542H37.4l15.687-15.689zM32.441 37.499v27.77L16.799 80.91l-.043-27.726 15.685-15.685zm14.123 45.49l-27.727-.038L34.48 67.31h27.769L46.566 82.992l-.002-.002zm-11.24-18.562V35.422h29.002v29H35.323v.005zm31.882-2.077V34.578l15.772-15.772-.085 27.855-15.687 15.69z" fill="url(#paint0_linear)"/></g><defs><linearGradient id="paint0_linear" x1="13.874" y1="13.872" x2="86.475" y2="13.872" gradientUnits="userSpaceOnUse"><stop stop-color="#33F"/><stop offset="1" stop-color="#8080FF"/></linearGradient><clipPath id="clip0"><path fill="#fff" transform="translate(14 14)" d="M0 0h72v72H0z"/></clipPath></defs></svg>