<svg width="32" height="32" viewBox="0 0 32 32" fill="none" xmlns="http://www.w3.org/2000/svg">
<circle cx="16" cy="16" r="16" fill="url(#paint0_linear_2084_2263)"/>
<path d="M14.75 7.34375C14.75 6.92954 14.4142 6.59375 14 6.59375C13.5858 6.59375 13.25 6.92954 13.25 7.34375V10.5625H9.54688C9.3831 10.5625 9.23159 10.615 9.10824 10.7041C8.89334 10.836 8.75 11.0731 8.75 11.3438V20.6562C8.75 20.8793 8.84733 21.0795 9.00184 21.2169C9.13921 21.3714 9.33949 21.4688 9.5625 21.4688H13.25V24.6875C13.25 25.1017 13.5858 25.4375 14 25.4375C14.4142 25.4375 14.75 25.1017 14.75 24.6875V21.4688H17.25V24.6875C17.25 25.1017 17.5858 25.4375 18 25.4375C18.4142 25.4375 18.75 25.1017 18.75 24.6875V21.4688H22.4688C22.7394 21.4688 22.9765 21.3254 23.1084 21.1105C23.1975 20.9872 23.25 20.8357 23.25 20.6719V15.9062C23.25 15.492 22.9142 15.1562 22.5 15.1562C22.4869 15.1562 22.4739 15.1566 22.4609 15.1572C22.448 15.1566 22.435 15.1562 22.4219 15.1562H14.0312C13.617 15.1562 13.2812 15.492 13.2812 15.9062C13.2812 16.3205 13.617 16.6562 14.0312 16.6562H21.75V19.9688H10.25V12.0625L22.4688 12.0625C22.883 12.0625 23.2188 11.7267 23.2188 11.3125C23.2188 10.8983 22.883 10.5625 22.4688 10.5625H18.75V7.34375C18.75 6.92954 18.4142 6.59375 18 6.59375C17.5858 6.59375 17.25 6.92954 17.25 7.34375V10.5625L14.75 10.5625V7.34375Z" fill="black"/>
<path fill-rule="evenodd" clip-rule="evenodd" d="M16 2.25C8.40608 2.25 2.25 8.40608 2.25 16C2.25 23.5939 8.40608 29.75 16 29.75C23.5939 29.75 29.75 23.5939 29.75 16C29.75 8.40608 23.5939 2.25 16 2.25ZM3.75 16C3.75 9.23451 9.23451 3.75 16 3.75C22.7655 3.75 28.25 9.23451 28.25 16C28.25 22.7655 22.7655 28.25 16 28.25C9.23451 28.25 3.75 22.7655 3.75 16Z" fill="black"/>
<defs>
<linearGradient id="paint0_linear_2084_2263" x1="7.1875" y1="1.9375" x2="25.375" y2="29.125" gradientUnits="userSpaceOnUse">
<stop stop-color="#CBA74A"/>
<stop offset="1" stop-color="#EDD388"/>
</linearGradient>
</defs>
</svg>
