<svg xmlns="http://www.w3.org/2000/svg" xmlns:xlink="http://www.w3.org/1999/xlink" viewBox="0 0 1271.9 1256.3"><defs><path id="a" d="M1271 407.6h-.1l-203.6-203.8L1270.9 0h.1v407.6z"/></defs><defs><path id="b" d="M1272 831.9l-.1.1-203.6-203.9 203.6-203.8.1.1v407.5z"/></defs><defs><path id="c" d="M1272 1256.3h-.1l-203.6-203.8 203.6-203.8h.1v407.6z"/></defs><defs><path id="d" d="M1060.9 1044.1h-.1V636.6l.1-.1 203.7 203.8-203.7 203.8z"/></defs><defs><path id="e" d="M1060.9 619.8l-.1-.1V212.2h.1L1264.6 416l-203.7 203.8z"/></defs><defs><path id="f" d="M1060.8 1044.1L857.2 840.3l203.6-203.7v407.5z"/></defs><defs><path id="g" d="M1060.8 619.7L857.2 416l203.6-203.8v407.5z"/></defs><defs><path id="h" d="M1053 627.6l.2.2-203.7 203.8-203.7-203.8.1-.2H1053z"/></defs><defs><path id="i" d="M645.9 627.9l-.1-.1L849.5 424l203.7 203.8-.2.1H645.9z"/></defs><defs><path id="j" d="M637.8 1044.1V636.5l203.7 203.8-203.7 203.8z"/></defs><defs><path id="k" d="M637.8 1044.1L434.2 840.3l203.6-203.8v407.6z"/></defs><defs><path id="l" d="M629 627.6l.1.2-203.7 203.8-203.6-203.8.1-.2H629z"/></defs><defs><path id="m" d="M221.9 627.9l-.1-.1L425.4 424l203.7 203.8-.1.1H221.9z"/></defs><defs><path id="n" d="M212.1 1044.1V636.6l203.6 203.7-203.6 203.8z"/></defs><defs><path id="o" d="M212.1 619.7V212.2L415.7 416 212.1 619.7z"/></defs><defs><path id="p" d="M212.1 1044.1h-.1L8.4 840.3 212 636.5l.1.1v407.5z"/></defs><defs><path id="q" d="M212.1 619.7l-.1.1L8.4 416 212 212.2h.1v407.5z"/></defs><defs><path id="r" d="M0 1256.3V848.7l203.7 203.8L0 1256.3z"/></defs><defs><path id="s" d="M0 832V424.3l203.7 203.8L0 832z"/></defs><defs><path id="t" d="M0 407.6V0l203.7 203.8L0 407.6z"/></defs><use xlink:href="#a" overflow="visible" fill-rule="evenodd" clip-rule="evenodd" fill="#ff86c0"/><use xlink:href="#b" overflow="visible" fill-rule="evenodd" clip-rule="evenodd" fill="#d93389"/><use xlink:href="#c" overflow="visible" fill-rule="evenodd" clip-rule="evenodd" fill="#92278f"/><use xlink:href="#d" overflow="visible" fill-rule="evenodd" clip-rule="evenodd" fill="#b41d8e"/><use xlink:href="#e" overflow="visible" fill-rule="evenodd" clip-rule="evenodd" fill="#ef59a1"/><use xlink:href="#f" overflow="visible" fill-rule="evenodd" clip-rule="evenodd" fill="#92278f"/><use xlink:href="#g" overflow="visible" fill-rule="evenodd" clip-rule="evenodd" fill="#371466"/><use xlink:href="#h" overflow="visible" fill-rule="evenodd" clip-rule="evenodd" fill="#702c91"/><use xlink:href="#i" overflow="visible" fill-rule="evenodd" clip-rule="evenodd" fill="#562988"/><use xlink:href="#j" overflow="visible" fill-rule="evenodd" clip-rule="evenodd" fill="#371466"/><use xlink:href="#k" overflow="visible" fill-rule="evenodd" clip-rule="evenodd" fill="#272262"/><use xlink:href="#l" overflow="visible" fill-rule="evenodd" clip-rule="evenodd" fill="#1d3d88"/><use xlink:href="#m" overflow="visible" fill-rule="evenodd" clip-rule="evenodd" fill="#252f77"/><use xlink:href="#n" overflow="visible" fill-rule="evenodd" clip-rule="evenodd" fill="#084f9d"/><use xlink:href="#o" overflow="visible" fill-rule="evenodd" clip-rule="evenodd" fill="#272262"/><use xlink:href="#p" overflow="visible" fill-rule="evenodd" clip-rule="evenodd" fill="#1b87c7"/><use xlink:href="#q" overflow="visible" fill-rule="evenodd" clip-rule="evenodd" fill="#0cb699"/><use xlink:href="#r" overflow="visible" fill-rule="evenodd" clip-rule="evenodd" fill="#0058a2"/><use xlink:href="#s" overflow="visible" fill-rule="evenodd" clip-rule="evenodd" fill="#3bc3f3"/><use xlink:href="#t" overflow="visible" fill-rule="evenodd" clip-rule="evenodd" fill="#0fe9c4"/><clipPath id="u"><use xlink:href="#a" overflow="visible"/></clipPath><clipPath id="v" clip-path="url(#u)"><use xlink:href="#b" overflow="visible"/></clipPath><clipPath id="w" clip-path="url(#v)"><use xlink:href="#c" overflow="visible"/></clipPath><clipPath id="x" clip-path="url(#w)"><use xlink:href="#d" overflow="visible"/></clipPath><clipPath id="y" clip-path="url(#x)"><use xlink:href="#e" overflow="visible"/></clipPath><clipPath id="z" clip-path="url(#y)"><use xlink:href="#f" overflow="visible"/></clipPath><clipPath id="A" clip-path="url(#z)"><use xlink:href="#g" overflow="visible"/></clipPath><clipPath id="B" clip-path="url(#A)"><use xlink:href="#h" overflow="visible"/></clipPath><clipPath id="C" clip-path="url(#B)"><use xlink:href="#i" overflow="visible"/></clipPath><clipPath id="D" clip-path="url(#C)"><use xlink:href="#j" overflow="visible"/></clipPath><clipPath id="E" clip-path="url(#D)"><use xlink:href="#k" overflow="visible"/></clipPath><clipPath id="F" clip-path="url(#E)"><use xlink:href="#l" overflow="visible"/></clipPath><clipPath id="G" clip-path="url(#F)"><use xlink:href="#m" overflow="visible"/></clipPath><clipPath id="H" clip-path="url(#G)"><use xlink:href="#n" overflow="visible"/></clipPath><clipPath id="I" clip-path="url(#H)"><use xlink:href="#o" overflow="visible"/></clipPath><clipPath id="J" clip-path="url(#I)"><use xlink:href="#p" overflow="visible"/></clipPath><clipPath id="K" clip-path="url(#J)"><use xlink:href="#q" overflow="visible"/></clipPath><clipPath id="L" clip-path="url(#K)"><use xlink:href="#r" overflow="visible"/></clipPath><clipPath id="M" clip-path="url(#L)"><use xlink:href="#s" overflow="visible"/></clipPath></svg>