<svg xmlns="http://www.w3.org/2000/svg" viewBox="0 0 116 116"><g fill="#24C1AB" fill-rule="nonzero"><path d="M54.11 56.153L21.208 36.448c-1.547-.927-2.919-2.246-4.027-3.872s-1.927-3.523-2.404-5.566L14.542 26l.023.017 32.796 19.356c1.728 1.02 3.238 2.526 4.41 4.398 1.172 1.872 1.973 4.058 2.339 6.382zM48.513 89.214L30.926 78.95c-1.437-.838-2.714-2.044-3.746-3.537-1.033-1.494-1.798-3.24-2.245-5.127l-.348-1.465.123.07v.005l24.766 14.45c.423.247.893.344 1.358.28a2.292 2.292 0 001.275-.642c.368-.356.65-.831.813-1.373a3.83 3.83 0 00.112-1.698c-.335-2.105-1.064-4.084-2.128-5.78-1.063-1.695-2.433-3.059-3.998-3.983L25.905 57.753c-1.413-.835-2.67-2.026-3.69-3.497-1.02-1.47-1.781-3.188-2.234-5.043-.147-.601-.283-1.162-.393-1.628l.094.052 28.211 16.654c2.549 1.505 4.778 3.726 6.51 6.486 1.732 2.76 2.919 5.982 3.465 9.41a10.072 10.072 0 01-.293 4.463c-.43 1.425-1.17 2.675-2.14 3.611-.97.936-2.13 1.52-3.352 1.688-1.222.169-2.458-.086-3.57-.735zM61.89 56.153l32.902-19.705c1.547-.927 2.919-2.246 4.027-3.872s1.927-3.523 2.404-5.566l.235-1.01-.023.017-32.796 19.356c-1.728 1.02-3.238 2.526-4.41 4.398-1.172 1.872-1.973 4.058-2.339 6.382z"/><path d="M67.487 89.214L85.074 78.95c1.437-.838 2.714-2.044 3.746-3.537 1.033-1.494 1.798-3.24 2.245-5.127l.347-1.465-.122.07v.005l-24.766 14.45a2.106 2.106 0 01-1.358.28 2.291 2.291 0 01-1.275-.642 3.174 3.174 0 01-.814-1.373 3.83 3.83 0 01-.111-1.698c.335-2.105 1.064-4.085 2.128-5.78 1.063-1.695 2.432-3.059 3.998-3.983l21.002-12.398c1.414-.835 2.67-2.025 3.691-3.496 1.02-1.47 1.781-3.188 2.234-5.043.147-.601.283-1.162.393-1.628l-.094.052-28.211 16.654c-2.549 1.505-4.778 3.726-6.51 6.486-1.732 2.76-2.919 5.982-3.465 9.41a10.071 10.071 0 00.292 4.463c.43 1.425 1.17 2.675 2.14 3.611.97.936 2.13 1.52 3.352 1.689 1.223.168 2.459-.087 3.57-.736z"/></g></svg>