<svg width="28" height="29" viewBox="0 0 28 29" fill="none" xmlns="http://www.w3.org/2000/svg">
    <path
        d="M12.7467 13.3046L2.14771 6.95663C1.64935 6.65797 1.20735 6.23292 0.850421 5.70912C0.493498 5.18532 0.229639 4.57447 0.075988 3.91627L0 3.59082L0.00762822 3.59643L10.5726 9.83175C11.1291 10.1602 11.6157 10.6454 11.9932 11.2485C12.3708 11.8516 12.6288 12.5558 12.7467 13.3045L12.7467 13.3046Z"
        fill="#23C1AA" />
    <path
        d="M10.9431 23.9546L5.27751 20.6482C4.81463 20.3781 4.40328 19.9898 4.07059 19.5086C3.7379 19.0275 3.49143 18.4646 3.34743 17.8571C3.31062 17.7018 3.27333 17.5444 3.23557 17.385L3.27493 17.4074V17.4093L11.2532 22.0644C11.3895 22.1439 11.5409 22.1751 11.6906 22.1545C11.8404 22.1338 11.9825 22.0622 12.1013 21.9476C12.2201 21.833 12.3109 21.6798 12.3635 21.5052C12.4161 21.3306 12.4286 21.1413 12.3995 20.9584C12.2914 20.2802 12.0567 19.6425 11.714 19.0965C11.3714 18.5504 10.9303 18.111 10.426 17.8133L3.66015 13.8195C3.20483 13.5505 2.79989 13.1669 2.47124 12.6932C2.14259 12.2195 1.89746 11.6662 1.75153 11.0686C1.70416 10.8748 1.66054 10.6943 1.625 10.5439L1.65526 10.5608L10.7433 15.9259C11.5644 16.4106 12.2826 17.1261 12.8405 18.0151C13.3984 18.9041 13.7807 19.9422 13.9568 21.0465C14.0334 21.5273 14.0008 22.025 13.8624 22.4842C13.7241 22.9435 13.4854 23.3462 13.1731 23.6476C12.8607 23.949 12.4869 24.1373 12.0932 24.1915C11.6995 24.2457 11.3014 24.1637 10.9431 23.9546Z"
        fill="#23C1AA" />
    <path
        d="M15.2534 13.3046L25.8524 6.95663C26.3508 6.65796 26.7928 6.23292 27.1497 5.70912C27.5066 5.18531 27.7705 4.57447 27.9241 3.91627C27.9503 3.80429 27.9756 3.69581 28.0001 3.59082L27.9925 3.59643L17.4275 9.83175C16.871 10.1602 16.3844 10.6454 16.0069 11.2485C15.6293 11.8516 15.3713 12.5558 15.2534 13.3045V13.3046Z"
        fill="#23C1AA" />
    <path
        d="M17.0556 23.9546L22.7212 20.6482C23.1841 20.3781 23.5955 19.9898 23.9282 19.5087C24.2609 19.0275 24.5073 18.4646 24.6513 17.8571C24.6881 17.7018 24.7254 17.5444 24.7632 17.385L24.7238 17.4074V17.4093L16.7455 22.0644C16.6093 22.1439 16.4578 22.1751 16.3081 22.1545C16.1584 22.1339 16.0162 22.0622 15.8974 21.9476C15.7786 21.833 15.6879 21.6798 15.6352 21.5052C15.5826 21.3306 15.5701 21.1413 15.5993 20.9584C15.7073 20.2801 15.9421 19.6425 16.2847 19.0964C16.6273 18.5504 17.0684 18.1109 17.5727 17.8133L24.3386 13.8194C24.7939 13.5504 25.1989 13.1668 25.5275 12.6932C25.8561 12.2195 26.1013 11.6662 26.2472 11.0686C26.2946 10.8748 26.3382 10.6943 26.3737 10.5439L26.3435 10.5608L17.2554 15.9259C16.4343 16.4106 15.7162 17.1261 15.1582 18.0151C14.6003 18.9042 14.2181 19.9422 14.042 21.0465C13.9653 21.5273 13.9979 22.025 14.1363 22.4842C14.2746 22.9435 14.5133 23.3462 14.8256 23.6476C15.138 23.949 15.5118 24.1373 15.9055 24.1915C16.2992 24.2457 16.6974 24.1637 17.0556 23.9546Z"
        fill="#23C1AA" />
</svg>
