<svg width="32" height="32" viewBox="0 0 32 32" fill="none" xmlns="http://www.w3.org/2000/svg">
<path d="M16 32C24.8366 32 32 24.8366 32 16C32 7.16345 24.8366 0 16 0C7.16345 0 0 7.16345 0 16C0 24.8366 7.16345 32 16 32Z" fill="#C8ECE1"/>
<path d="M5.29524 11.8893C5.08172 11.6904 5.28095 11.442 5.45579 11.3054C5.67519 11.0999 5.89249 10.8767 6.09844 10.68C7.01512 9.74696 7.93219 8.84079 8.96785 8.04847C9.10908 7.58198 9.76138 7.96741 9.48569 8.34273C8.19239 9.37206 7.01974 10.5548 5.85046 11.7253L5.86601 11.7098C5.86983 11.7066 5.87335 11.7031 5.87652 11.6992C5.72941 11.8619 5.50791 12.0842 5.29524 11.8893Z" fill="#308D8A"/>
<path d="M22.9244 12.238C22.899 12.207 22.8803 12.1712 22.8693 12.1327C22.8583 12.0942 22.8552 12.0539 22.8603 12.0142C22.8654 11.9745 22.8786 11.9363 22.899 11.9018C22.9194 11.8674 22.9467 11.8374 22.979 11.8139C24.1386 10.5446 25.2647 9.25007 26.4844 8.03585C26.5928 7.88744 26.8559 7.87108 26.9538 8.04801C27.0513 8.20815 26.9664 8.37498 26.845 8.49266C26.573 8.7978 26.2658 9.0681 25.9867 9.36648C25.2722 10.1041 24.5997 10.8758 23.9272 11.65C23.6482 11.8715 23.3321 12.5923 22.9244 12.238Z" fill="#308D8A"/>
<path d="M9.33668 8.4205C9.26579 8.41715 9.19873 8.3875 9.14859 8.33723C9.09853 8.28702 9.06909 8.21982 9.06596 8.14899C9.06525 8.10853 9.073 8.06843 9.08872 8.03116C9.10443 7.9939 9.12776 7.96034 9.1572 7.93268C9.18671 7.90494 9.22155 7.88368 9.25974 7.87031C9.29786 7.85687 9.33839 7.85161 9.37871 7.85474C9.74351 7.8056 10.0693 7.77488 10.4294 7.75511C15.7577 7.38782 21.1236 7.53915 26.4455 7.81527C26.6019 7.80261 26.7398 7.94555 26.7423 8.09687C26.733 8.50661 26.2433 8.38053 25.9744 8.37847C20.4444 8.09054 14.8624 7.93339 9.33668 8.4205Z" fill="#308D8A"/>
<path d="M22.5912 12.4739C22.5042 12.4704 22.4231 12.4671 22.355 12.4739C19.2788 12.3011 16.1887 12.3225 13.102 12.3436C10.9056 12.3591 8.71029 12.3734 6.52514 12.3196C6.44358 12.2749 6.35482 12.2449 6.26288 12.2309C6.12583 12.1844 5.98528 12.149 5.84258 12.125C5.78751 12.1133 5.73204 12.1027 5.67698 12.0922C5.6547 12.0838 5.63495 12.0771 5.61225 12.0699C5.53645 12.0456 5.45732 12.0333 5.37771 12.0334C5.37309 12.0334 5.36806 12.0334 5.36344 12.0313C5.36773 12.0323 5.37208 12.033 5.37646 12.0334H5.37183C5.30842 12.0224 5.24443 12.0151 5.18018 12.0115C5.18544 11.9718 5.19949 11.9338 5.22131 11.9002C5.24312 11.8666 5.27214 11.8383 5.30627 11.8174C5.49288 11.6858 5.72658 11.6812 5.94387 11.7106C6.85131 11.8278 7.75996 11.8022 8.67118 11.7774C9.2176 11.7635 9.76402 11.7484 10.3104 11.7648C11.5793 11.7892 12.8498 11.7787 14.1204 11.7682C15.7075 11.7551 17.2962 11.7425 18.8824 11.7997C19.5915 11.7871 20.3018 11.8139 21.0109 11.8417C21.6472 11.8674 22.2836 11.8922 22.919 11.8888C22.9584 11.8783 22.9995 11.8761 23.0397 11.8822C23.08 11.8883 23.1186 11.9026 23.153 11.9243C23.1875 11.946 23.2172 11.9746 23.2401 12.0083C23.263 12.0419 23.2788 12.0799 23.2864 12.1199C23.3048 12.4335 23.0384 12.4798 22.7631 12.4798C22.7068 12.4781 22.6479 12.4759 22.5912 12.4739Z" fill="#308D8A"/>
<path d="M6.15479 12.2139H6.18078C6.17324 12.2168 6.16359 12.2168 6.15479 12.2139Z" fill="#308D8A"/>
<path d="M5.61291 12.0675C5.53719 12.0429 5.458 12.0307 5.37839 12.0313C5.37377 12.0313 5.36873 12.0313 5.36411 12.0288C5.36873 12.0288 5.37377 12.0288 5.37713 12.0313H5.37251C5.29553 12.0162 5.21729 12.0083 5.13883 12.0078H5.11487C5.08916 11.9518 5.07948 11.8897 5.0869 11.8285C5.09431 11.7673 5.11854 11.7093 5.1569 11.6611C5.25903 11.5308 5.34015 11.3324 5.53138 11.3286C5.84828 11.3311 5.90123 11.6926 5.6995 11.883C5.70398 11.9173 5.70149 11.9523 5.69217 11.9856C5.68286 12.019 5.66691 12.0501 5.64528 12.0771L5.61291 12.0675Z" fill="#308D8A"/>
<path d="M6.75799 12.3719C6.49068 12.3643 6.20866 12.3403 5.94808 12.3365C5.67026 12.3097 5.35504 12.3878 5.10119 12.2525C4.70905 11.9781 5.34411 11.1858 5.69422 11.2614C5.91613 11.3106 6.01112 11.6174 5.8182 11.7628C6.15443 11.7713 6.47849 11.7864 6.81431 11.8048C7.1812 11.8469 7.12616 12.4 6.75799 12.3719Z" fill="#308D8A"/>
<path d="M22.53 14.3575C17.003 14.1453 11.4722 14.3516 5.94313 14.2865C5.59386 14.2726 5.58083 13.7346 5.94313 13.7219C11.6118 13.767 17.2813 13.5959 22.9474 13.7913C23.3114 13.7829 23.3408 14.3428 22.9663 14.3587C22.8196 14.363 22.6738 14.3617 22.53 14.3575Z" fill="#308D8A"/>
<path d="M26.0399 18.4691C22.7317 18.3068 19.4084 18.3947 16.0926 18.3518C14.8258 18.3333 13.567 18.2576 12.3015 18.293C11.3999 18.2787 10.4912 18.467 9.59518 18.4035C9.26522 18.3152 9.33498 17.8218 9.68762 17.8458C11.5101 17.786 13.34 17.6289 15.1671 17.7688C17.5868 17.8054 20.0077 17.7688 22.4278 17.8281C23.6467 17.8382 24.8702 17.7835 26.0844 17.9025C26.3366 17.9105 26.7422 17.826 26.7674 18.1791C26.7573 18.567 26.2954 18.4682 26.0315 18.4691H26.0399Z" fill="#308D8A"/>
<path d="M9.3859 18.3246L9.36151 18.3036L9.34978 18.2944C9.36279 18.3045 9.37623 18.3158 9.3918 18.3259C7.93289 17.1638 6.78594 15.6881 5.53386 14.3225C5.23461 14.0867 5.58513 13.65 5.86715 13.8631C6.96245 14.9613 7.85894 16.239 9.04165 17.2503C9.28542 17.4941 9.55067 17.7034 9.80112 17.9299C10.0256 18.1927 9.64105 18.5634 9.3859 18.3246Z" fill="#308D8A"/>
<path d="M26.4637 18.4502C26.4154 18.4389 26.3707 18.4153 26.3342 18.3817C26.2977 18.348 26.2705 18.3054 26.2553 18.2582C26.2401 18.2109 26.2374 18.1605 26.2475 18.1119C26.2576 18.0632 26.2801 18.0181 26.3128 17.9807C25.2877 16.6845 24.0831 15.5333 22.8639 14.4237C22.3074 14.2337 22.8639 13.5192 23.2337 13.9874C24.4412 15.036 25.5665 16.1756 26.5999 17.3961C26.7592 17.5819 26.8521 17.7378 26.984 17.929C27.1425 18.2589 26.7752 18.5372 26.4637 18.4502Z" fill="#308D8A"/>
<path d="M9.46332 20.5063C9.39064 20.4881 9.32792 20.4421 9.28867 20.3783C9.24934 20.3144 9.23661 20.2377 9.25318 20.1646C9.29521 19.9766 9.47889 19.9304 9.64906 19.9544C9.87434 19.913 10.1016 19.8837 10.3299 19.8665C15.6636 19.5597 21.0326 19.8077 26.3814 19.7799C26.7307 19.7905 26.7475 20.3318 26.3835 20.3445C20.7472 20.3916 15.0655 20.0738 9.46332 20.5063Z" fill="#308D8A"/>
<path d="M5.9828 24.4555C5.58435 24.5126 5.48137 23.928 5.89874 23.8897C6.52246 23.928 7.13653 23.8687 7.75818 23.8426C12.8682 23.7645 17.9799 23.8569 23.0908 23.8884C23.4102 23.9582 23.3538 24.456 23.0273 24.4488C17.328 24.4336 11.6372 24.3071 5.94329 24.4534L5.9828 24.4555Z" fill="#308D8A"/>
<path d="M22.9506 24.2727C22.6379 24.0302 22.9927 23.7234 23.1852 23.5422C23.1788 23.5489 23.1721 23.5548 23.1658 23.5607C24.2233 22.4221 25.1569 21.1691 26.2543 20.0687C26.2812 19.73 26.8137 19.7455 26.8167 20.0881C26.8204 20.1649 26.8059 20.2415 26.7746 20.3117C26.7431 20.3818 26.6956 20.4436 26.6359 20.492C25.7533 21.3633 25.0118 22.3636 24.1762 23.2796C23.9089 23.6015 23.6181 23.91 23.3398 24.2202C23.2928 24.2753 23.227 24.3112 23.1552 24.3209C23.0834 24.3306 23.0106 24.3134 22.9506 24.2727Z" fill="#308D8A"/>
<path d="M5.66685 24.2647C5.18602 24.0428 5.6513 23.6074 5.877 23.3952C6.5041 22.6941 7.15895 21.9695 7.84823 21.339C8.27859 20.9011 8.73086 20.4888 9.18903 20.0819C9.27308 20.0025 9.38067 19.918 9.49921 19.9197C9.81146 19.9075 9.90099 20.3652 9.6051 20.4699C8.34416 21.5698 7.18753 22.7891 6.07076 24.0197C5.9724 24.1643 5.88205 24.3333 5.66685 24.2647Z" fill="#308D8A"/>
<path d="M9.2907 20.1835C15.0073 19.6967 20.8017 20.0394 26.5529 20.0014C25.5203 21.2271 24.6099 22.5827 23.5902 23.8248L23.5862 23.8294C23.4863 23.9339 23.3553 24.0725 23.2837 24.2176C17.9833 24.1785 12.6806 24.0725 7.38137 24.1645C6.82422 24.191 6.27591 24.2456 5.71875 24.2346C6.84854 22.8303 8.01902 21.4412 9.2907 20.1835Z" fill="#308D8A"/>
<path d="M26.65 18.1263C26.5901 18.1263 26.5328 18.1305 26.4813 18.1291C25.2173 17.9928 23.9454 18.0555 22.6775 18.0435C20.1604 17.977 17.6417 18.0182 15.1246 17.977C13.2301 17.8178 11.3322 17.9942 9.44077 18.0621C9.20995 17.8408 8.97208 17.6318 8.74957 17.3864C7.67615 16.3821 6.82972 15.1474 5.87354 14.0173C11.5097 14.08 17.1476 13.8609 22.7816 14.0963C22.855 14.0986 22.9293 14.1 23.0028 14.1C23.0417 14.1311 23.0849 14.155 23.1309 14.1709C24.3708 15.4066 25.5985 16.6878 26.65 18.1263Z" fill="#308D8A"/>
<path d="M26.6547 8.21904C26.7059 8.21904 26.7652 8.22416 26.8262 8.22921C25.6627 9.45432 24.574 10.7453 23.4545 12.0116C23.4246 12.0331 23.399 12.0603 23.3791 12.0918C22.7057 12.096 22.0297 12.0686 21.354 12.0403C20.5968 12.0093 19.8377 11.9791 19.0804 11.994C17.3863 11.9304 15.6898 11.9448 13.9943 11.9591C12.6373 11.9707 11.2807 11.9824 9.92507 11.955C9.34146 11.9369 8.75792 11.955 8.17431 11.9694C7.20109 11.9968 6.23057 12.0251 5.26094 11.8956C5.23715 11.8914 5.21606 11.8891 5.19092 11.8863C5.19361 11.8826 5.19585 11.8775 5.19855 11.8733C6.40475 10.625 7.61588 9.36749 8.94416 8.26079C14.8261 7.72902 20.766 7.90253 26.6547 8.21904Z" fill="#308D8A"/>
</svg>
