<svg width="24" height="24" viewBox="0 0 24 24" fill="none" xmlns="http://www.w3.org/2000/svg">
    <path
        d="M24 12C24 18.6274 18.6274 24 12 24C5.37258 24 0 18.6274 0 12C0 5.37258 5.37258 0 12 0C18.6274 0 24 5.37258 24 12Z"
        fill="#FFD15C" />
    <path
        d="M6.18774 16.9173C6.29129 16.847 6.38794 16.7416 6.43605 16.5921C6.48952 16.4259 6.45798 16.2797 6.43294 16.1987C6.43212 16.196 6.43124 16.1933 6.43037 16.1906L6.45032 16.0741C6.50543 16.1051 6.56885 16.1468 6.64117 16.1976C6.65861 16.2099 6.683 16.2273 6.70836 16.2453C6.74166 16.2691 6.77676 16.2942 6.80015 16.3105C6.84034 16.3384 6.89741 16.3774 6.95788 16.4095C8.55811 17.4041 9.8815 17.8141 10.9326 17.7633C12.0194 17.7108 12.7815 17.1641 13.1746 16.3663C13.5545 15.5951 13.5678 14.6395 13.3015 13.7543C13.0335 12.8634 12.4699 11.9975 11.6298 11.3983C10.2142 10.3886 8.91702 8.8534 8.26109 7.548C7.92799 6.88502 7.79547 6.35035 7.83046 6.00123C7.8467 5.83875 7.8965 5.74046 7.95604 5.6772C8.01563 5.6139 8.1242 5.54408 8.33337 5.50964C8.77641 5.43665 9.28883 5.27709 9.80885 5.11517C10.0107 5.0523 10.2137 4.98908 10.4143 4.93043C11.1638 4.71126 11.9573 4.52713 12.7914 4.5287C14.409 4.53174 16.3075 5.23407 18.3064 8.15576C20.8742 11.909 19.4644 16.103 16.5063 18.3063C15.0311 19.4051 13.1904 19.9884 11.299 19.7666C9.59596 19.567 7.81225 18.7099 6.18774 16.9173ZM6.48559 15.9459C6.48559 15.946 6.48504 15.9471 6.48373 15.949C6.48487 15.9468 6.48553 15.9459 6.48559 15.9459ZM6.3248 16.0192C6.32475 16.0191 6.32639 16.0193 6.32994 16.0202C6.32666 16.0198 6.32491 16.0194 6.3248 16.0192Z"
        fill="white" stroke="black" stroke-width="1.65708" />
    <path
        d="M7.65771 5.70135C7.65771 5.70135 12.2449 4.47986 13.2493 4.47986C14.2536 4.47986 18.2668 6.42868 19.438 9.99003C21.0984 15.0387 16.5822 18.3491 16.0722 18.0246C20.9309 14.0073 12.9778 6.58165 9.06918 7.13993C8.58059 7.20975 8.85203 7.62852 8.85203 7.62852L8.74346 8.71426L7.92915 7.35708L7.65771 5.70135Z"
        fill="black" />
    <path
        d="M18.7697 8.47131C20.2182 11.0214 19.9172 9.56137 19.5956 12.4765C20.1907 11.5138 21.1212 12.2346 21.5055 12.6027C21.5744 12.6687 21.688 12.6278 21.6848 12.5325C21.6702 12.1001 21.5463 11.1657 20.8305 10.1633C19.849 8.78878 18.7697 8.47131 18.7697 8.47131Z"
        fill="black" />
    <path
        d="M19.5956 12.4765C19.651 12.3396 19.7375 12.126 19.7375 12.126M19.5956 12.4765C19.9172 9.56137 20.2182 11.0214 18.7697 8.47131C18.7697 8.47131 19.849 8.78878 20.8305 10.1633C21.5463 11.1657 21.6702 12.1001 21.6848 12.5325C21.688 12.6278 21.5744 12.6687 21.5055 12.6027C21.1212 12.2346 20.1907 11.5138 19.5956 12.4765Z"
        stroke="black" stroke-width="0.0930942" />
    <path
        d="M7.1151 12.0876C6.50389 13.1224 5.24989 13.0448 5.2739 14.279C6.39395 16.7675 6.40057 16.589 6.40057 16.589C8.47534 15.4235 7.62271 12.8499 7.31486 12.093C7.28004 12.0074 7.16206 12.0081 7.1151 12.0876Z"
        fill="black" />
    <path
        d="M2.41197 14.3755C3.60365 14.531 4.31453 13.495 5.27229 14.2737C6.5437 16.6884 6.39894 16.5838 6.39894 16.5838C4.20318 17.5011 2.70012 15.2448 2.2932 14.5362C2.2472 14.4561 2.32038 14.3636 2.41197 14.3755Z"
        fill="black" />
    <path
        d="M12.4078 12.8402C12.4078 12.8402 13.6022 14.0618 12.9779 14.2517C12.1994 13.7726 10.8044 14.1449 10.1206 14.3755C9.95228 14.4323 9.78724 14.2829 9.84792 14.1159C10.0804 13.4761 10.6546 12.2918 11.7564 12.1345C12.4078 11.9715 12.4078 12.8402 12.4078 12.8402Z"
        fill="black" />
    <path
        d="M13.1407 6.86845C13.005 6.67847 12.7336 6.16272 13.575 6.16272C14.4165 6.16272 15.7022 7.1155 15.9636 7.46796C15.8822 7.68276 15.3394 7.73081 15.0679 7.70993C14.7965 7.68904 14.335 7.64438 13.9822 7.46796C13.6293 7.29154 13.2764 7.05848 13.1407 6.86845Z"
        fill="white" />
</svg>
