<svg xmlns="http://www.w3.org/2000/svg"
  xmlns:xlink="http://www.w3.org/1999/xlink" fill="none" height="22" viewBox="0 0 20 22" width="20">
  <linearGradient id="a" gradientUnits="userSpaceOnUse" x1="19.2913" x2="-.570821" y1="5.50724" y2="13.2671">
    <stop offset="0" stop-color="#c200fb"/>
    <stop offset=".489658" stop-color="#3772ff"/>
    <stop offset="1" stop-color="#5ac4be"/>
  </linearGradient>
  <g fill="url(#a)">
    <path d="m18.3361 8.25654v7.67126l-8.336 4.9253-8.34068-4.9253v-9.85555l8.34068-4.93013 6.4066 3.78801.967-.57106-7.3736-4.35907-9.307717 5.50119v10.99761l9.307717 5.5012 9.3077-5.5012v-8.81332z"/>
    <path d="m7.66618 15.9325h-1.39476v-4.7874h4.64918c.4399-.005.8601-.187 1.1699-.5067.3097-.3197.484-.75142.4852-1.20168.0026-.22265-.0394-.44347-.1234-.64889-.0839-.20542-.2081-.39108-.3647-.54557-.1516-.15946-.3331-.28592-.5337-.37179-.2005-.08586-.4159-.12936-.6333-.12788h-4.64918v-1.4562h4.65388c.8147.00499 1.5947.33851 2.1709.92823.5761.58972.902 1.38813.9068 2.2221.005.63838-.1852 1.26238-.5439 1.78458-.3302.4996-.7955.8899-1.339 1.1231-.5381.1746-1.0999.2614-1.6644.2569h-2.78952z"/>
    <path d="m13.9705 15.8135h-1.6272l-1.2553-2.2414c.4966-.0311.9865-.1336 1.4552-.3045z"/>
    <path d="m17.3644 6.66234.9624.54726.9624-.54726v-1.15639l-.9624-.57106-.9624.57106z"/>
  </g>
</svg>