<svg width="32" height="32" viewBox="0 0 32 32" fill="none" xmlns="http://www.w3.org/2000/svg">
<path fill-rule="evenodd" clip-rule="evenodd" d="M29.5024 23.9982L29.5017 8.01513L15.7537 0.015625L15.7541 16.0047L2.00928 24.001L15.758 31.9997L29.4937 24.009L29.5024 24.0141V24.0038L29.5072 24.001L29.5024 23.9982V23.9982Z" fill="#64C557"/>
<path d="M2.01389 8.01455L15.7615 0.0146484L15.7607 16.0133L2.0127 24.0132L2.01349 8.01455H2.01389Z" fill="#118AB2"/>
<path d="M15.7631 0L29.5118 7.99871L24.9294 10.6649L11.1807 2.66624L15.7631 0Z" fill="#00F8B7"/>
<path d="M24.919 10.6605V15.9934L11.1714 7.99351V2.66064L24.919 10.6605Z" fill="#09BD8E"/>
<path d="M11.161 8.00098L24.9098 15.9997L20.3274 18.6659L6.57861 10.6672L11.1614 8.00098H11.161Z" fill="#FFE3A3"/>
<path d="M20.3818 18.6937V24.0266L6.63379 16.0267V10.6938L20.3814 18.6937H20.3818Z" fill="#FFBB1D"/>
<path d="M6.59247 16.002L20.3412 24.0007L15.758 26.6669L2.00928 18.6682L6.59247 16.002V16.002Z" fill="#FF965E"/>
<path d="M15.748 26.6628V31.9957L2 23.9954V18.6621L15.748 26.6624V26.6628Z" fill="#D94C00"/>
<path d="M24.9251 10.6618L29.5075 7.99512L29.5071 23.9937L24.9243 26.6604L24.9251 10.6618Z" fill="#06D6A0"/>
<path d="M20.3325 18.6627L24.9153 15.9961V26.6618L20.3325 29.3285V18.6627Z" fill="#FFD166"/>
<path d="M15.7402 26.6642L20.323 23.9976V29.3308L15.7402 31.9971V26.6642Z" fill="#F3722C"/>
</svg>
