<svg fill="none" xmlns="http://www.w3.org/2000/svg" viewBox="0 0 100 99"><g clip-path="url(#clip0)"><path fill-rule="evenodd" clip-rule="evenodd" d="M85.637 68.538l-.002-40.188L51.067 8.236l.001 40.203-34.56 20.106 34.57 20.112 34.537-20.092.022.013v-.026l.012-.007-.012-.007z" fill="#64C557"/><path d="M16.52 28.348L51.087 8.233l-.002 40.227-34.568 20.115.002-40.227z" fill="#118AB2"/><path d="M51.09 8.196l34.57 20.112-11.522 6.704L39.568 14.9 51.09 8.196z" fill="#00F8B7"/><path d="M74.112 35v13.409L39.545 28.294V14.885L74.112 35z" fill="#09BD8E"/><path d="M39.52 28.314l34.57 20.112-11.522 6.704-34.57-20.112 11.523-6.704z" fill="#FFE3A3"/><path d="M62.705 55.2v13.409L28.137 48.494V35.085L62.704 55.2z" fill="#FFBB1D"/><path d="M28.032 48.432l34.57 20.112-11.524 6.704-34.57-20.112 11.524-6.704z" fill="#FF965E"/><path d="M51.053 75.237v13.409L16.485 68.53V55.12l34.568 20.116z" fill="#D94C00"/><path d="M74.129 35.004l11.522-6.705-.001 40.227-11.523 6.705.002-40.227z" fill="#06D6A0"/><path d="M62.58 55.122l11.523-6.705v26.818L62.58 81.94V55.122z" fill="#FFD166"/><path d="M51.033 75.24l11.523-6.705v13.41l-11.523 6.704V75.24z" fill="#F3722C"/></g><defs><clipPath id="clip0"><path fill="#fff" d="M0 0h99.658v98.427H0z"/></clipPath></defs></svg>