<svg width="32" height="32" viewBox="0 0 32 32" fill="none" xmlns="http://www.w3.org/2000/svg">
<g clip-path="url(#clip0)">
<path d="M6.66654 3.06689L31.4665 20.0002L25.3332 29.0669L0.533203 12.0002L6.66654 3.06689Z" fill="url(#paint0_linear)"/>
<path d="M31.4664 20.0001C29.3331 23.0668 22.1331 21.8668 15.3331 17.0668C8.39978 12.4001 4.66645 6.13346 6.66645 3.0668C8.79978 0.000129535 15.9998 1.20013 22.7998 6.00013C29.7331 10.5335 33.4664 16.9335 31.4664 20.0001Z" fill="url(#paint1_linear)"/>
<path d="M25.3332 28.9333C23.1998 31.9999 15.9998 30.7999 9.19985 25.9999C2.39985 21.1999 -1.46682 15.0666 0.666515 11.8666C2.79985 8.79993 9.99985 9.99994 16.7998 14.7999C23.5998 19.5999 27.3332 25.8666 25.3332 28.9333V28.9333Z" fill="url(#paint2_linear)"/>
<path d="M31.4663 20L25.333 29.0666C23.1996 32.1333 15.9996 30.8 9.19964 26.1333C7.86631 25.2 6.66631 24.2666 5.46631 23.2C6.39964 23.0666 7.59964 22.5333 8.79964 21.2C10.933 18.9333 11.9996 18.4 12.933 18.5333C13.8663 18.5333 14.933 19.4666 16.6663 21.7333C18.3996 24 20.7996 24.6666 22.2663 23.4666C22.3996 23.3333 22.533 23.3333 22.6663 23.2C23.8663 22.2666 24.2663 21.8666 26.533 17.6C27.0663 16.5333 28.933 14.8 31.4663 15.6C32.133 17.3333 32.133 18.8 31.4663 20V20Z" fill="#0E0F23"/>
<path fill-rule="evenodd" clip-rule="evenodd" d="M30.5332 19.4667C28.6665 22.1334 22.1332 20.8 15.8665 16.4C9.46654 12 5.73321 6.40004 7.59988 3.73337C9.46654 1.0667 15.9999 2.40004 22.2665 6.80004C28.5332 11.2 32.2665 16.8 30.5332 19.4667ZM24.6665 15.4667C23.7332 16.8 20.5332 16.1334 17.3332 14C14.2665 11.8667 12.3999 9.06671 13.3332 7.73337C14.2665 6.40004 17.4665 7.06671 20.6665 9.20004C23.7332 11.3334 25.5999 14.1334 24.6665 15.4667V15.4667Z" fill="white"/>
<path d="M6.13343 6.13339C6.13343 6.00005 6.0001 5.86672 5.86676 6.00005C5.73343 6.13339 5.6001 6.13339 5.6001 6.26672C5.73343 6.66672 5.86676 6.93339 5.86676 7.20005C5.86676 7.33339 6.0001 7.46672 6.13343 7.33339C6.26676 7.33339 6.4001 7.20005 6.26676 7.06672C6.26676 6.80005 6.26676 6.53339 6.13343 6.13339ZM6.8001 8.26672C6.8001 8.13339 6.66676 8.00005 6.53343 8.13339C6.4001 8.26672 6.4001 8.26672 6.4001 8.40005C7.86676 11.7334 10.9334 15.3334 14.9334 18.0001C15.0668 18.1334 15.2001 18.0001 15.3334 18.0001C15.4668 17.8667 15.3334 17.7334 15.3334 17.6001C11.2001 14.9334 8.26676 11.4667 6.8001 8.26672V8.26672ZM22.9334 21.3334C22.8001 21.3334 22.6668 21.3334 22.6668 21.4667C22.6668 21.6001 22.6668 21.7334 22.8001 21.7334C23.2001 21.8667 23.7334 22.0001 24.1334 22.1334C24.2668 22.1334 24.4001 22.1334 24.4001 22.0001C24.4001 21.8667 24.4001 21.7334 24.2668 21.7334C23.8668 21.6001 23.3334 21.4667 22.9334 21.3334ZM25.3334 21.8667C25.2001 21.8667 25.0668 22.0001 25.0668 22.1334C25.0668 22.2667 25.2001 22.4001 25.3334 22.4001C26.4001 22.5334 27.6001 22.6667 28.5334 22.5334C28.6668 22.5334 28.8001 22.4001 28.8001 22.2667C28.8001 22.1334 28.6668 22.0001 28.5334 22.0001C27.4668 22.1334 26.4001 22.0001 25.3334 21.8667Z" fill="white"/>
</g>
<defs>
<linearGradient id="paint0_linear" x1="11.5252" y1="0.658895" x2="16.4439" y2="17.5469" gradientUnits="userSpaceOnUse">
<stop stop-color="#03B8FF"/>
<stop offset="1" stop-color="#FA52A0"/>
</linearGradient>
<linearGradient id="paint1_linear" x1="15.5758" y1="-0.519871" x2="20.4931" y2="16.3681" gradientUnits="userSpaceOnUse">
<stop stop-color="#03B8FF"/>
<stop offset="1" stop-color="#FA52A0"/>
</linearGradient>
<linearGradient id="paint2_linear" x1="7.48785" y1="1.8346" x2="12.4065" y2="18.7226" gradientUnits="userSpaceOnUse">
<stop stop-color="#03B8FF"/>
<stop offset="1" stop-color="#FA52A0"/>
</linearGradient>
<clipPath id="clip0">
<rect width="32" height="32" fill="white"/>
</clipPath>
</defs>
</svg>
