<svg width="32" height="32" viewBox="0 0 32 32" fill="none" xmlns="http://www.w3.org/2000/svg">
<path fill-rule="evenodd" clip-rule="evenodd" d="M5.8592 2.21826L0.0244761 14.4741C0.00227334 14.5197 -0.00476259 14.5712 0.00439729 14.6211C0.0135572 14.6709 0.0384323 14.7166 0.075385 14.7513L15.8336 29.8514C15.8783 29.8943 15.9379 29.9183 16 29.9183C16.062 29.9183 16.1216 29.8943 16.1664 29.8514L31.9245 14.7522C31.9615 14.7175 31.9864 14.6719 31.9955 14.622C32.0047 14.5721 31.9977 14.5206 31.9755 14.475L26.1407 2.2192C26.1219 2.17804 26.0916 2.14318 26.0535 2.11877C26.0154 2.09436 25.971 2.08144 25.9258 2.08156H6.07603C6.03055 2.081 5.98588 2.0936 5.94741 2.11786C5.90893 2.14211 5.8783 2.17698 5.8592 2.21826V2.21826Z" fill="#50AF95"/>
<path fill-rule="evenodd" clip-rule="evenodd" d="M18.0245 15.7329C17.9114 15.7414 17.3269 15.7763 16.023 15.7763C14.986 15.7763 14.2497 15.7452 13.9914 15.7329C9.98372 15.5566 6.99236 14.859 6.99236 14.0237C6.99236 13.1884 9.98372 12.4917 13.9914 12.3126V15.0381C14.2535 15.057 15.0039 15.1013 16.0409 15.1013C17.2854 15.1013 17.9085 15.0494 18.0207 15.0391V12.3145C22.0199 12.4927 25.0047 13.1903 25.0047 14.0237C25.0047 14.8571 22.0208 15.5547 18.0207 15.732L18.0245 15.7329ZM18.0245 12.0326V9.59369H23.6056V5.87451H8.41026V9.59369H13.9904V12.0317C9.45484 12.24 6.04395 13.1385 6.04395 14.2151C6.04395 15.2917 9.45484 16.1892 13.9904 16.3985V24.214H18.0235V16.3957C22.5488 16.1873 25.954 15.2898 25.954 14.2141C25.954 13.1385 22.5516 12.2409 18.0235 12.0317L18.0245 12.0326Z" fill="white"/>
</svg>
